<svg width="1280" height="667" viewBox="0 0 1280 667" fill="none" xmlns="http://www.w3.org/2000/svg">
<path d="M310.765 244.713C310.763 244.713 310.762 244.713 310.761 244.713C310.762 244.713 310.763 244.713 310.765 244.713ZM310.75 244.715C310.749 244.715 310.747 244.715 310.746 244.715C310.747 244.715 310.749 244.715 310.75 244.715ZM310.734 244.716C310.733 244.716 310.733 244.716 310.733 244.716C310.733 244.716 310.733 244.716 310.734 244.716ZM310.703 244.72L310.702 244.72C310.702 244.72 310.702 244.72 310.703 244.72Z" fill="#A7B8E3"/>
<path d="M461.598 143.969C461.598 143.344 461.511 142.703 461.475 142.093C461.43 141.324 460.254 141.305 460.254 142.064C460.254 142.073 460.255 142.084 460.255 142.093C460.289 142.964 460.213 143.937 460.443 144.78C460.583 145.287 461.439 145.353 461.537 144.78C461.582 144.516 461.598 144.244 461.598 143.969" fill="#3EB6A9"/>
<path d="M294.427 331.019C294.427 330.82 294.273 330.627 294.03 330.711C293.775 330.801 293.57 330.917 293.381 331.111C293.311 331.18 293.283 331.257 293.283 331.332C293.283 331.584 293.61 331.803 293.847 331.579C293.945 331.467 294.063 331.388 294.205 331.343C294.359 331.284 294.427 331.151 294.427 331.019Z" fill="#F8A60D"/>
<path d="M79.5946 75.9941C86.3453 75.9941 86.1639 85.3275 79.5946 85.3275C74.6973 85.3275 73.7893 75.9941 79.5946 75.9941Z" fill="#423387"/>
<path d="M120.713 165.812L120.726 165.52C120.908 163.683 122.782 160.974 127.473 159.39C128.996 158.875 130.705 158.532 132.51 158.364C131.416 161.213 129.544 163.796 127.089 165.569C124.268 167.607 122.27 167.756 121.416 167.265C120.836 166.932 120.713 166.295 120.713 165.812V165.812ZM159.557 173.264C159.557 168.357 157.758 164.82 155.714 162.381C151.349 157.179 144.206 154.82 137.534 154.372C137.734 152.178 137.556 149.967 136.957 147.861C135.014 141.029 129.008 136.762 120.48 136.154C100.26 134.71 91.0518 148.2 90.6705 148.775C90.0585 149.695 90.3105 150.936 91.2291 151.548C92.1478 152.157 93.3865 151.909 93.9985 150.993C94.3318 150.499 102.379 138.871 120.195 140.143C127.047 140.632 131.632 143.762 133.109 148.956C133.597 150.672 133.716 152.507 133.506 154.329C130.769 154.459 128.244 154.907 126.192 155.6C119.702 157.792 117.057 161.96 116.746 165.129C116.502 167.541 117.51 169.635 119.422 170.733C122.022 172.227 125.67 171.528 129.432 168.812C132.986 166.245 135.542 162.435 136.777 158.29C142.846 158.62 149.157 160.788 152.649 164.952C156.849 169.959 156.458 177.372 151.522 186.395C150.993 187.365 151.349 188.58 152.317 189.109C153.286 189.639 154.501 189.284 155.032 188.315C158.337 182.272 159.557 177.304 159.557 173.264" fill="#E91578"/>
<path d="M302.514 532.767L302.527 532.475C302.709 530.637 304.583 527.928 309.274 526.344C310.797 525.829 312.506 525.487 314.311 525.319C313.217 528.168 311.345 530.751 308.89 532.524C306.069 534.561 304.071 534.711 303.217 534.22C302.637 533.887 302.514 533.249 302.514 532.767V532.767ZM341.358 540.219C341.358 535.312 339.559 531.775 337.515 529.336C333.15 524.133 326.007 521.775 319.335 521.327C319.535 519.132 319.357 516.921 318.758 514.816C316.815 507.984 310.809 503.716 302.281 503.108C282.061 501.664 272.853 515.155 272.471 515.729C271.859 516.649 272.111 517.891 273.03 518.503C273.949 519.112 275.187 518.864 275.799 517.948C276.133 517.453 284.179 505.825 301.995 507.097C308.847 507.587 313.433 510.716 314.91 515.911C315.398 517.627 315.517 519.461 315.307 521.284C312.57 521.413 310.045 521.861 307.993 522.555C301.503 524.747 298.858 528.915 298.547 532.084C298.303 534.496 299.311 536.589 301.223 537.688C303.823 539.181 307.471 538.483 311.233 535.767C314.787 533.2 317.343 529.389 318.578 525.244C324.647 525.575 330.958 527.743 334.45 531.907C338.65 536.913 338.259 544.327 333.323 553.349C332.794 554.32 333.15 555.535 334.118 556.064C335.087 556.593 336.302 556.239 336.833 555.269C340.138 549.227 341.358 544.259 341.358 540.219" fill="#E91578"/>
<path d="M513.374 594.232C516.394 591.211 522.186 596.079 518.241 599.016C514.297 601.955 510.351 597.253 513.374 594.232Z" fill="#423387"/>
<path d="M110.156 539.4C113.177 536.379 118.968 541.247 115.022 544.185C111.078 547.123 107.134 542.421 110.156 539.4Z" fill="#423387"/>
<path d="M346.206 48.9532C349.227 45.9318 355.018 50.7999 351.072 53.7385C347.128 56.6759 343.184 51.9745 346.206 48.9532Z" fill="#423387"/>
<path d="M597.701 545.76C603.389 546.915 600.108 554.649 595.227 553.58C590.349 552.511 593.089 544.824 597.701 545.76Z" fill="#E91578"/>
<path d="M600.24 56.3876C603.663 51.8012 611.42 57.1652 607.275 62.1075C603.256 66.8996 596.375 61.5663 600.24 56.3876" fill="#F68A11"/>
<path d="M622.165 138.155C624.12 135.535 628.553 138.6 626.184 141.423C623.887 144.163 619.954 141.115 622.165 138.155Z" fill="#423387"/>
<path d="M59.7542 357.46C61.7115 354.838 66.1435 357.904 63.7755 360.728C61.4769 363.468 57.5462 360.418 59.7542 357.46Z" fill="#E70F6D"/>
<path d="M198.224 613.822C200.18 611.2 204.612 614.266 202.244 617.09C199.946 619.828 196.016 616.782 198.224 613.822Z" fill="#37A49A"/>
<path d="M235.121 134.653C238.054 130.723 244.704 135.32 241.15 139.556C237.705 143.664 231.808 139.092 235.121 134.653Z" fill="#37A49A"/>
<path d="M538.717 78.2454C540.106 78.0646 549.113 67.9241 551.159 68.7522C553.206 69.5803 554.694 81.3303 555.406 83.0995C556.198 85.0636 566.987 89.4017 566.881 91.8303C566.773 94.2579 555.653 99.0162 554.494 100.903C553.382 102.714 553.502 114.193 551.199 114.367C547.723 114.628 540.939 107.077 539.333 106.53C537.373 105.862 527.202 109.128 525.21 107.138C523.91 105.84 525.513 101.846 527.115 98.3474C528.31 95.7412 529.503 93.4099 529.498 92.6703C529.49 91.1776 523.038 80.0881 523.73 78.5579C524.939 75.887 536.706 78.5058 538.717 78.2454" fill="#423387"/>
<path d="M566.88 91.7943C566.88 89.3588 556.194 85.0541 555.406 83.0995C554.694 81.3303 553.206 69.5803 551.159 68.7521C551.079 68.7197 550.989 68.7041 550.889 68.7036C550.989 68.7041 551.079 68.7197 551.159 68.7521C553.206 69.5803 554.694 81.3303 555.406 83.0995C556.194 85.0541 566.88 89.3588 566.88 91.7943C566.88 91.8063 566.88 91.8183 566.88 91.8303C566.773 94.2579 555.653 99.0161 554.494 100.903C554.492 100.904 554.491 100.906 554.49 100.908C554.491 100.906 554.492 100.904 554.494 100.903C555.653 99.0161 566.773 94.2579 566.88 91.8303C566.88 91.8183 566.88 91.8063 566.88 91.7943ZM554.489 100.911C554.487 100.913 554.487 100.914 554.486 100.915C554.487 100.914 554.487 100.913 554.489 100.911ZM554.485 100.918C554.484 100.919 554.484 100.919 554.484 100.92C554.484 100.919 554.484 100.918 554.485 100.918ZM538.717 78.2454C538.713 78.2459 538.71 78.2464 538.707 78.2464C538.71 78.2464 538.713 78.2459 538.717 78.2454ZM538.707 78.2469C538.099 78.3213 536.627 78.1421 534.83 77.924C536.627 78.1421 538.099 78.3213 538.707 78.2469Z" fill="#A8B9E4"/>
<path d="M566.88 91.7943C566.88 89.3588 556.194 85.0541 555.406 83.0995C554.694 81.3303 553.206 69.5803 551.159 68.7521C551.079 68.7197 550.989 68.7041 550.889 68.7036C548.421 68.7011 540.051 78.0714 538.717 78.2454C538.713 78.2459 538.71 78.2464 538.707 78.2464L538.707 78.2469C538.099 78.3213 536.627 78.1421 534.83 77.924C532.121 77.5953 528.669 77.1798 526.319 77.4172C537.321 80.6798 546.404 90.538 550.566 100.961C551.856 104.194 552.587 107.463 552.915 110.738C553.57 107.176 553.78 102.111 554.484 100.92C554.484 100.919 554.484 100.919 554.485 100.918C554.485 100.917 554.486 100.916 554.486 100.915C554.487 100.914 554.487 100.913 554.489 100.911C554.489 100.91 554.489 100.909 554.49 100.908C554.491 100.906 554.492 100.904 554.494 100.903C555.653 99.0161 566.773 94.2579 566.88 91.8303C566.88 91.8183 566.88 91.8063 566.88 91.7943" fill="#362B73"/>
<path d="M534.225 91.0312C534.225 90.953 534.213 90.8697 534.185 90.7817C533.705 89.2426 533.087 87.7521 532.373 86.3078C531.985 85.524 530.921 86.0088 530.921 86.7385C530.921 86.8557 530.949 86.9786 531.01 87.1041C531.667 88.4306 532.209 89.7926 532.671 91.1989C532.957 92.0677 534.225 91.813 534.225 91.0312Z" fill="#5940A2"/>
<path d="M534.075 95.2004C534.074 94.443 532.983 93.9378 532.607 94.7504C531.726 96.6482 530.841 98.5441 529.982 100.451C529.929 100.571 529.905 100.687 529.905 100.799C529.905 101.541 530.957 102.042 531.337 101.244C532.238 99.3566 533.113 97.4577 533.993 95.5602C534.05 95.4368 534.075 95.3154 534.075 95.2004" fill="#5940A2"/>
<path d="M185.124 516.02C186.573 515.832 195.964 505.258 198.097 506.122C200.229 506.985 201.781 519.236 202.525 521.081C203.349 523.129 214.598 527.65 214.486 530.184C214.376 532.714 202.78 537.676 201.573 539.641C200.413 541.53 200.54 553.497 198.138 553.678C194.514 553.952 187.44 546.08 185.768 545.509C183.722 544.812 173.12 548.217 171.042 546.141C169.688 544.789 171.358 540.625 173.03 536.977C174.274 534.26 175.52 531.83 175.514 531.058C175.505 529.502 168.777 517.941 169.5 516.346C170.76 513.561 183.028 516.292 185.124 516.02" fill="#423387"/>
<path d="M214.488 530.147C214.486 527.607 203.345 523.119 202.525 521.081C202.524 521.079 202.524 521.076 202.522 521.075C202.524 521.076 202.524 521.079 202.525 521.081C203.345 523.119 214.486 527.607 214.488 530.147C214.488 530.159 214.488 530.171 214.486 530.184C214.426 531.559 210.98 533.649 207.649 535.588C210.98 533.649 214.426 531.559 214.486 530.184C214.488 530.171 214.488 530.159 214.488 530.147Z" fill="#B3BEE4"/>
<path d="M214.488 530.147C214.486 527.607 203.345 523.119 202.525 521.081C202.524 521.079 202.524 521.076 202.522 521.075C202.522 521.073 202.521 521.072 202.521 521.069C201.95 519.628 200.906 512.149 199.493 508.331C197.733 516.339 195.02 524.156 189.006 529.983C184.268 534.575 178.542 536.899 172.464 538.241C171.437 540.584 170.546 542.98 170.546 544.601C170.546 545.263 170.694 545.795 171.042 546.141C171.54 546.639 172.524 546.821 173.764 546.821C177.208 546.823 182.616 545.413 184.961 545.413C185.298 545.413 185.572 545.443 185.768 545.509C187.413 546.069 194.281 553.692 197.956 553.685C198.017 553.685 198.078 553.683 198.138 553.679C200.492 553.501 200.417 541.995 201.506 539.764C201.528 539.72 201.55 539.679 201.573 539.641C202.125 538.744 204.846 537.22 207.649 535.588C210.98 533.649 214.426 531.559 214.486 530.184C214.488 530.171 214.488 530.159 214.488 530.147" fill="#362B73"/>
<path d="M185.873 519.034C185.873 518.721 185.694 518.429 185.278 518.35C183.045 517.928 180.781 517.676 178.514 517.524C177.984 517.488 177.721 517.88 177.721 518.292C177.721 518.705 177.986 519.137 178.514 519.174C180.64 519.324 182.738 519.598 184.841 519.934C185.461 520.034 185.873 519.51 185.873 519.034" fill="#5940A2"/>
<path d="M194.313 512.95C194.313 512.318 193.538 511.768 193.002 512.36C191.888 513.596 190.662 514.707 189.408 515.797C189.238 515.944 189.168 516.128 189.168 516.315C189.168 516.888 189.838 517.481 190.385 517.064C191.769 516.011 192.988 514.795 194.113 513.471C194.253 513.306 194.313 513.124 194.313 512.95" fill="#5940A2"/>
<path d="M175.61 517.992C175.61 517.6 175.356 517.182 174.86 517.127C174.368 517.072 173.876 517.018 173.384 516.964C172.869 516.907 172.61 517.292 172.61 517.702C172.61 518.107 172.866 518.536 173.384 518.578C173.876 518.618 174.368 518.656 174.86 518.696C175.365 518.736 175.61 518.378 175.61 517.992" fill="#5940A2"/>
<path d="M464.815 364.948C466.265 364.76 475.655 354.186 477.789 355.05C479.921 355.913 481.473 368.164 482.217 370.009C483.041 372.057 494.29 376.578 494.178 379.112C494.067 381.642 482.471 386.604 481.265 388.569C480.105 390.458 480.231 402.425 477.83 402.606C474.206 402.88 467.131 395.008 465.459 394.437C463.414 393.74 452.811 397.145 450.734 395.069C449.379 393.717 451.05 389.553 452.722 385.905C453.966 383.188 455.211 380.758 455.206 379.986C455.197 378.43 448.469 366.869 449.191 365.274C450.451 362.489 462.719 365.22 464.815 364.948" fill="#423387"/>
<path d="M494.179 379.074C494.177 376.534 483.036 372.046 482.216 370.009C482.215 370.006 482.215 370.004 482.213 370.002C482.215 370.004 482.215 370.006 482.216 370.009C483.036 372.046 494.177 376.534 494.179 379.074C494.179 379.086 494.179 379.098 494.177 379.112C494.117 380.486 490.671 382.577 487.34 384.516C490.671 382.577 494.117 380.486 494.177 379.112C494.179 379.098 494.179 379.086 494.179 379.074Z" fill="#B3BEE4"/>
<path d="M494.179 379.074C494.177 376.534 483.036 372.046 482.216 370.009C482.215 370.006 482.215 370.004 482.213 370.002C482.213 370.001 482.212 370 482.212 369.997C481.641 368.556 480.597 361.077 479.184 357.258C477.424 365.266 474.711 373.084 468.697 378.91C463.959 383.502 458.233 385.826 452.155 387.169C451.128 389.512 450.237 391.908 450.237 393.529C450.237 394.19 450.385 394.722 450.733 395.069C451.231 395.566 452.215 395.749 453.455 395.749C456.899 395.75 462.307 394.341 464.652 394.341C464.989 394.341 465.263 394.37 465.459 394.437C467.104 394.997 473.972 402.62 477.647 402.613C477.708 402.613 477.769 402.61 477.829 402.606C480.183 402.429 480.108 390.922 481.197 388.692C481.219 388.648 481.241 388.606 481.264 388.569C481.816 387.672 484.537 386.148 487.34 384.516C490.671 382.577 494.117 380.486 494.177 379.112C494.179 379.098 494.179 379.086 494.179 379.074" fill="#362B73"/>
<path d="M465.564 367.962C465.564 367.649 465.386 367.357 464.97 367.278C462.736 366.856 460.472 366.604 458.206 366.452C457.675 366.416 457.412 366.808 457.412 367.22C457.412 367.633 457.678 368.065 458.206 368.102C460.331 368.252 462.43 368.526 464.532 368.862C465.152 368.962 465.564 368.438 465.564 367.962" fill="#5940A2"/>
<path d="M474.004 361.877C474.004 361.245 473.23 360.696 472.694 361.288C471.579 362.524 470.354 363.635 469.099 364.725C468.93 364.872 468.859 365.056 468.859 365.243C468.859 365.816 469.53 366.409 470.076 365.992C471.46 364.939 472.679 363.723 473.804 362.399C473.944 362.233 474.004 362.052 474.004 361.877" fill="#5940A2"/>
<path d="M455.302 366.92C455.302 366.528 455.047 366.109 454.551 366.055C454.059 366 453.567 365.945 453.075 365.892C452.56 365.835 452.302 366.22 452.302 366.629C452.302 367.035 452.558 367.464 453.075 367.505C453.567 367.545 454.059 367.584 454.551 367.624C455.056 367.664 455.302 367.305 455.302 366.92" fill="#5940A2"/>
<path d="M96.9772 405.644C97.7466 405.533 102.663 399.836 103.804 400.28C104.947 400.723 105.865 407.229 106.275 408.204C106.729 409.288 112.749 411.609 112.709 412.957C112.669 414.304 106.537 417.032 105.909 418.088C105.307 419.101 105.465 425.469 104.189 425.583C102.264 425.755 98.4399 421.621 97.5453 421.331C96.4519 420.975 90.8359 422.867 89.7146 421.78C88.9813 421.068 89.8453 418.831 90.7093 416.873C91.3479 415.424 91.9866 414.129 91.9786 413.72C91.9626 412.892 88.2946 406.792 88.6666 405.937C89.316 404.447 95.8639 405.804 96.9772 405.644" fill="#F68A11"/>
<path d="M206.977 382.644C207.747 382.533 212.663 376.836 213.804 377.28C214.947 377.723 215.865 384.229 216.275 385.204C216.729 386.288 222.749 388.609 222.709 389.957C222.669 391.304 216.537 394.032 215.909 395.088C215.307 396.101 215.465 402.469 214.189 402.583C212.264 402.755 208.44 398.621 207.545 398.331C206.452 397.975 200.836 399.867 199.715 398.78C198.981 398.068 199.845 395.831 200.709 393.873C201.348 392.424 201.987 391.129 201.979 390.72C201.963 389.892 198.295 383.792 198.667 382.937C199.316 381.447 205.864 382.804 206.977 382.644" fill="#F68A11"/>
<path d="M105.906 418.094L105.905 418.094C105.906 418.094 105.906 418.094 105.906 418.094ZM105.885 418.132C105.885 418.133 105.885 418.133 105.885 418.134C105.885 418.133 105.885 418.133 105.885 418.132ZM105.882 418.137C105.785 418.334 105.708 418.678 105.641 419.114C105.641 419.114 105.641 419.114 105.642 419.114C105.709 418.68 105.785 418.334 105.882 418.137ZM96.9049 405.652C96.8555 405.656 96.7996 405.657 96.7369 405.657C96.7996 405.657 96.8555 405.656 96.9049 405.652ZM91.1462 405.23C89.9062 405.232 88.9009 405.398 88.6663 405.937C88.9009 405.398 89.9062 405.232 91.1462 405.23Z" fill="#D6D9C1"/>
<path d="M215.906 395.094L215.905 395.094C215.906 395.094 215.906 395.094 215.906 395.094ZM215.885 395.132C215.885 395.133 215.885 395.133 215.885 395.134C215.885 395.133 215.885 395.133 215.885 395.132ZM215.882 395.137C215.785 395.334 215.708 395.678 215.641 396.114C215.641 396.114 215.641 396.114 215.642 396.114C215.709 395.68 215.785 395.334 215.882 395.137ZM206.905 382.652C206.856 382.656 206.8 382.657 206.737 382.657C206.8 382.657 206.856 382.656 206.905 382.652ZM201.146 382.23C199.906 382.232 198.901 382.398 198.666 382.937C198.901 382.398 199.906 382.232 201.146 382.23Z" fill="#D6D9C1"/>
<path d="M112.709 412.944C112.709 411.594 106.728 409.284 106.274 408.204C105.865 407.229 104.946 400.722 103.804 400.28C103.762 400.264 103.714 400.256 103.662 400.254C102.304 400.25 97.7183 405.538 96.977 405.644C96.9543 405.648 96.9316 405.65 96.9049 405.652C96.8556 405.656 96.7996 405.657 96.737 405.657C95.753 405.658 93.1436 405.229 91.1463 405.23C89.9063 405.232 88.901 405.398 88.6663 405.937L88.6516 406.21C94.9583 409.517 101.26 413.505 105.641 419.114C105.708 418.678 105.785 418.334 105.882 418.137C105.884 418.136 105.884 418.134 105.885 418.134C105.885 418.133 105.885 418.133 105.885 418.132C105.886 418.13 105.886 418.128 105.888 418.126C105.894 418.116 105.9 418.105 105.905 418.094L105.906 418.094C105.906 418.092 105.908 418.09 105.909 418.088C106.537 417.032 112.669 414.304 112.709 412.957C112.709 412.952 112.709 412.948 112.709 412.944" fill="#F57715"/>
<path d="M222.709 389.944C222.709 388.594 216.728 386.284 216.274 385.204C215.865 384.229 214.946 377.722 213.804 377.28C213.762 377.264 213.714 377.256 213.662 377.254C212.304 377.25 207.718 382.538 206.977 382.644C206.954 382.648 206.932 382.65 206.905 382.652C206.856 382.656 206.8 382.657 206.737 382.657C205.753 382.658 203.144 382.229 201.146 382.23C199.906 382.232 198.901 382.398 198.666 382.937L198.652 383.21C204.958 386.517 211.26 390.505 215.641 396.114C215.708 395.678 215.785 395.334 215.882 395.137C215.884 395.136 215.884 395.134 215.885 395.134C215.885 395.133 215.885 395.133 215.885 395.132C215.886 395.13 215.886 395.128 215.888 395.126C215.894 395.116 215.9 395.105 215.905 395.094L215.906 395.094C215.906 395.092 215.908 395.09 215.909 395.088C216.537 394.032 222.669 391.304 222.709 389.957C222.709 389.952 222.709 389.948 222.709 389.944" fill="#F57715"/>
<path d="M97.9648 418.701C97.9648 418.375 97.7435 418.045 97.3422 418.056C95.9862 418.095 94.6008 418.503 93.3075 418.885C92.9755 418.984 92.8315 419.249 92.8315 419.517C92.8315 419.924 93.1608 420.337 93.6675 420.193C94.9368 419.831 96.2435 419.66 97.5115 419.315C97.8222 419.231 97.9648 418.967 97.9648 418.701" fill="#F8A60D"/>
<path d="M207.965 395.701C207.965 395.375 207.744 395.045 207.342 395.056C205.986 395.095 204.601 395.503 203.307 395.885C202.975 395.984 202.832 396.249 202.832 396.517C202.832 396.924 203.161 397.337 203.668 397.193C204.937 396.831 206.244 396.66 207.512 396.315C207.822 396.231 207.965 395.967 207.965 395.701" fill="#F8A60D"/>
<path d="M102.214 421.128C102.214 420.976 102.157 420.814 102.021 420.665C101.426 420.012 100.758 419.42 100.118 418.809C99.6277 418.34 98.945 418.801 98.945 419.32C98.945 419.474 99.0064 419.636 99.1504 419.777C99.781 420.397 100.394 421.045 101.066 421.62C101.573 422.053 102.214 421.638 102.214 421.128" fill="#F8A60D"/>
<path d="M377.474 311.39C378.243 311.279 383.159 305.582 384.301 306.026C385.443 306.468 386.362 312.975 386.771 313.95C387.226 315.034 393.246 317.355 393.206 318.703C393.166 320.05 387.034 322.778 386.406 323.834C385.803 324.847 385.962 331.215 384.686 331.328C382.761 331.5 378.937 327.367 378.042 327.076C376.949 326.72 371.333 328.612 370.211 327.526C369.478 326.814 370.342 324.576 371.206 322.619C371.845 321.17 372.483 319.875 372.475 319.466C372.459 318.638 368.791 312.538 369.163 311.683C369.813 310.192 376.36 311.55 377.474 311.39" fill="#F68A11"/>
<path d="M386.403 323.84L386.402 323.84C386.403 323.84 386.403 323.84 386.403 323.84ZM386.382 323.877C386.382 323.879 386.382 323.879 386.382 323.88C386.382 323.879 386.382 323.879 386.382 323.877ZM386.379 323.883C386.282 324.08 386.205 324.424 386.138 324.86C386.138 324.86 386.138 324.86 386.139 324.86C386.206 324.425 386.282 324.08 386.379 323.883ZM377.402 311.397C377.353 311.401 377.297 311.403 377.234 311.403C377.297 311.403 377.353 311.401 377.402 311.397ZM371.643 310.976C370.403 310.977 369.398 311.144 369.163 311.683C369.398 311.144 370.403 310.977 371.643 310.976Z" fill="#D6D9C1"/>
<path d="M393.206 318.689C393.206 317.34 387.225 315.029 386.771 313.949C386.362 312.975 385.443 306.468 384.301 306.025C384.259 306.009 384.211 306.001 384.159 306C382.801 305.996 378.215 311.284 377.474 311.389C377.451 311.393 377.429 311.396 377.402 311.397C377.353 311.401 377.297 311.403 377.234 311.403C376.25 311.404 373.641 310.975 371.643 310.976C370.403 310.977 369.398 311.144 369.163 311.683L369.149 311.956C375.455 315.263 381.757 319.251 386.138 324.86C386.205 324.424 386.282 324.08 386.379 323.883C386.381 323.881 386.381 323.88 386.382 323.88C386.382 323.879 386.382 323.879 386.382 323.877C386.383 323.876 386.383 323.873 386.385 323.872C386.391 323.861 386.397 323.851 386.402 323.84L386.403 323.84C386.403 323.837 386.405 323.836 386.406 323.833C387.034 322.777 393.166 320.049 393.206 318.703C393.206 318.697 393.206 318.693 393.206 318.689" fill="#F57715"/>
<path d="M378.462 324.447C378.462 324.12 378.241 323.791 377.839 323.802C376.483 323.84 375.098 324.248 373.805 324.631C373.473 324.73 373.329 324.995 373.329 325.263C373.329 325.67 373.658 326.083 374.165 325.939C375.434 325.576 376.741 325.406 378.009 325.06C378.319 324.976 378.462 324.712 378.462 324.447" fill="#F8A60D"/>
<path d="M382.711 326.873C382.711 326.721 382.654 326.56 382.518 326.411C381.923 325.757 381.255 325.165 380.615 324.555C380.124 324.085 379.442 324.547 379.442 325.065C379.442 325.22 379.503 325.381 379.647 325.523C380.278 326.143 380.891 326.791 381.563 327.365C382.07 327.799 382.711 327.384 382.711 326.873" fill="#F8A60D"/>
<path d="M391.474 150.39C392.243 150.279 397.159 144.582 398.301 145.026C399.443 145.468 400.362 151.975 400.771 152.95C401.226 154.034 407.246 156.355 407.206 157.703C407.166 159.05 401.034 161.778 400.406 162.834C399.803 163.847 399.962 170.215 398.686 170.328C396.761 170.5 392.937 166.367 392.042 166.076C390.949 165.72 385.333 167.612 384.211 166.526C383.478 165.814 384.342 163.576 385.206 161.619C385.845 160.17 386.483 158.875 386.475 158.466C386.459 157.638 382.791 151.538 383.163 150.683C383.813 149.192 390.36 150.55 391.474 150.39" fill="#F68A11"/>
<path d="M400.403 162.84L400.402 162.84C400.403 162.84 400.403 162.84 400.403 162.84ZM400.382 162.877C400.382 162.879 400.382 162.879 400.382 162.88C400.382 162.879 400.382 162.879 400.382 162.877ZM400.379 162.883C400.282 163.08 400.205 163.424 400.138 163.86C400.138 163.86 400.138 163.86 400.139 163.86C400.206 163.425 400.282 163.08 400.379 162.883ZM391.402 150.397C391.353 150.401 391.297 150.403 391.234 150.403C391.297 150.403 391.353 150.401 391.402 150.397ZM385.643 149.976C384.403 149.977 383.398 150.144 383.163 150.683C383.398 150.144 384.403 149.977 385.643 149.976Z" fill="#D6D9C1"/>
<path d="M407.206 157.689C407.206 156.34 401.225 154.029 400.771 152.949C400.362 151.975 399.443 145.468 398.301 145.025C398.259 145.009 398.211 145.001 398.159 145C396.801 144.996 392.215 150.284 391.474 150.389C391.451 150.393 391.429 150.396 391.402 150.397C391.353 150.401 391.297 150.403 391.234 150.403C390.25 150.404 387.641 149.975 385.643 149.976C384.403 149.977 383.398 150.144 383.163 150.683L383.149 150.956C389.455 154.263 395.757 158.251 400.138 163.86C400.205 163.424 400.282 163.08 400.379 162.883C400.381 162.881 400.381 162.88 400.382 162.88C400.382 162.879 400.382 162.879 400.382 162.877C400.383 162.876 400.383 162.873 400.385 162.872C400.391 162.861 400.397 162.851 400.402 162.84L400.403 162.84C400.403 162.837 400.405 162.836 400.406 162.833C401.034 161.777 407.166 159.049 407.206 157.703C407.206 157.697 407.206 157.693 407.206 157.689" fill="#F57715"/>
<path d="M392.462 163.447C392.462 163.12 392.241 162.791 391.839 162.802C390.483 162.84 389.098 163.248 387.805 163.631C387.473 163.73 387.329 163.995 387.329 164.263C387.329 164.67 387.658 165.083 388.165 164.939C389.434 164.576 390.741 164.406 392.009 164.06C392.319 163.976 392.462 163.712 392.462 163.447" fill="#F8A60D"/>
<path d="M396.711 165.873C396.711 165.721 396.654 165.56 396.518 165.411C395.923 164.757 395.255 164.165 394.615 163.555C394.124 163.085 393.442 163.547 393.442 164.065C393.442 164.22 393.503 164.381 393.647 164.523C394.278 165.143 394.891 165.791 395.563 166.365C396.07 166.799 396.711 166.384 396.711 165.873" fill="#F8A60D"/>
<path d="M212.214 398.128C212.214 397.976 212.157 397.814 212.021 397.665C211.426 397.012 210.758 396.42 210.118 395.809C209.628 395.34 208.945 395.801 208.945 396.32C208.945 396.474 209.006 396.636 209.15 396.777C209.781 397.397 210.394 398.045 211.066 398.62C211.573 399.053 212.214 398.638 212.214 398.128" fill="#F8A60D"/>
<path d="M184.858 73.8257C186.369 73.706 196.649 63.2445 198.813 64.2497C200.978 65.256 201.946 78.0262 202.62 79.9753C203.368 82.1404 214.784 87.4117 214.536 90.0289C214.289 92.6456 202.02 97.1794 200.665 99.1533C199.365 101.049 198.872 113.452 196.376 113.514C192.606 113.608 185.69 105.084 183.988 104.406C181.905 103.578 170.745 106.551 168.7 104.293C166.376 101.725 174.037 90.7748 174.12 88.9024C174.153 88.1414 172.753 84.992 171.352 81.709C169.785 78.0382 168.218 74.2008 168.657 73.3486C170.108 70.5289 182.673 73.9976 184.858 73.8257" fill="#F68A11"/>
<path d="M214.54 89.9437C214.54 87.2984 203.36 82.1166 202.62 79.975C201.946 78.0259 200.978 65.2551 198.813 64.2494C198.714 64.203 198.597 64.1812 198.466 64.1812C198.597 64.1812 198.714 64.203 198.813 64.2494C200.978 65.2557 201.946 78.0259 202.62 79.975C203.36 82.1166 214.54 87.2984 214.54 89.9437C214.54 89.9724 214.538 90.0005 214.536 90.0286C214.538 90.0005 214.54 89.9724 214.54 89.9437ZM214.534 90.0421C214.534 90.0426 214.534 90.0432 214.534 90.0437C214.534 90.0432 214.534 90.0426 214.534 90.0421ZM214.529 90.0812C214.529 90.0817 214.529 90.0817 214.529 90.0822C214.529 90.0817 214.529 90.0817 214.529 90.0812ZM214.529 90.0879C214.528 90.089 214.528 90.0896 214.528 90.0901C214.528 90.0896 214.529 90.0885 214.529 90.0879ZM214.528 90.0953C214.528 90.0964 214.526 90.0969 214.526 90.0978C214.526 90.0969 214.528 90.0964 214.528 90.0953ZM214.526 90.1021C214.526 90.103 214.525 90.1041 214.525 90.1057C214.525 90.1041 214.526 90.103 214.526 90.1021ZM214.525 90.1083C214.525 90.1098 214.524 90.1119 214.524 90.1135C214.524 90.1119 214.525 90.1098 214.525 90.1083ZM214.524 90.1139C214.524 90.1166 214.522 90.1187 214.522 90.1213C214.522 90.1187 214.524 90.1166 214.524 90.1139ZM214.522 90.1239C214.521 90.1254 214.521 90.127 214.521 90.1291C214.521 90.1275 214.521 90.1254 214.522 90.1239ZM214.52 90.1327C214.52 90.1343 214.52 90.1354 214.52 90.1369C214.52 90.1354 214.52 90.1338 214.52 90.1327ZM214.518 90.139C214.518 90.1437 214.517 90.1484 214.516 90.1526C214.517 90.1478 214.518 90.1437 214.518 90.139ZM214.516 90.1535C214.516 90.1557 214.514 90.1584 214.514 90.1604C214.514 90.1584 214.516 90.1557 214.516 90.1535ZM214.513 90.162C214.513 90.164 214.513 90.1661 214.512 90.1682C214.513 90.1661 214.513 90.164 214.513 90.162ZM214.512 90.1693C214.512 90.1713 214.51 90.174 214.51 90.176C214.51 90.174 214.512 90.1713 214.512 90.1693ZM214.51 90.177C214.509 90.1792 214.509 90.1817 214.508 90.1843C214.509 90.1817 214.509 90.1797 214.51 90.177ZM214.508 90.1843C213.817 92.8109 202.088 97.1822 200.681 99.1297C200.682 99.1306 200.682 99.1322 200.684 99.1333C202.07 97.189 213.817 92.8135 214.508 90.1843V90.1843ZM198.025 64.2458C194.836 65.0775 186.23 73.7166 184.858 73.825C182.817 73.9859 171.708 70.9671 169.078 72.8729C171.708 70.9671 182.817 73.9859 184.858 73.8254C186.23 73.7166 194.836 65.0775 198.025 64.2458V64.2458ZM168.657 73.3483C168.654 73.353 168.653 73.3578 168.65 73.3625C168.653 73.3578 168.654 73.353 168.657 73.3483Z" fill="#D6D9C1"/>
<path d="M214.54 89.9437C214.54 87.2984 203.36 82.1166 202.62 79.975C201.946 78.0259 200.978 65.2557 198.813 64.2494C198.714 64.203 198.597 64.1812 198.466 64.1812C198.334 64.1812 198.186 64.2035 198.025 64.2458C194.836 65.0775 186.23 73.7166 184.858 73.8254C182.817 73.9859 171.708 70.9671 169.078 72.8729C168.894 73.0062 168.752 73.1639 168.657 73.3483C168.654 73.353 168.653 73.3578 168.65 73.3625C168.649 73.3639 168.649 73.3656 168.648 73.3672C168.604 73.4636 168.584 73.5947 168.584 73.7562C168.584 74.1057 168.68 74.5973 168.845 75.189C180.754 78.012 192.142 85.5786 198.689 95.501C199.47 96.6863 200.109 97.9016 200.681 99.1297C202.088 97.1822 213.817 92.8109 214.508 90.1843C214.509 90.1817 214.509 90.1792 214.51 90.177C214.51 90.1765 214.51 90.1765 214.51 90.176C214.51 90.174 214.512 90.1713 214.512 90.1693C214.512 90.1688 214.512 90.1688 214.512 90.1682C214.513 90.1661 214.513 90.164 214.513 90.162C214.513 90.162 214.514 90.1609 214.514 90.1604C214.514 90.1584 214.516 90.1557 214.516 90.1535C214.516 90.153 214.516 90.153 214.516 90.1526C214.517 90.1484 214.518 90.1437 214.518 90.139C214.518 90.1385 214.52 90.1374 214.52 90.1369C214.52 90.1354 214.52 90.1343 214.52 90.1327C214.521 90.1311 214.521 90.1302 214.521 90.1291C214.521 90.127 214.521 90.1254 214.522 90.1239C214.522 90.1229 214.522 90.1223 214.522 90.1213C214.522 90.1187 214.524 90.1166 214.524 90.1139L214.524 90.1135C214.524 90.1119 214.525 90.1098 214.525 90.1083C214.525 90.1073 214.525 90.1068 214.525 90.1057C214.525 90.1041 214.526 90.103 214.526 90.1021C214.526 90.1005 214.526 90.0989 214.526 90.0978C214.526 90.0969 214.528 90.0964 214.528 90.0953C214.528 90.0937 214.528 90.0921 214.528 90.0901C214.528 90.0896 214.528 90.089 214.529 90.0879C214.529 90.0859 214.529 90.0844 214.529 90.0822C214.529 90.0817 214.529 90.0817 214.529 90.0812C214.532 90.0688 214.533 90.0562 214.534 90.0437C214.534 90.0432 214.534 90.0426 214.534 90.0421C214.536 90.0374 214.536 90.0333 214.536 90.0286C214.538 90.0005 214.54 89.9724 214.54 89.9437" fill="#F57715"/>
<path d="M184.713 100.102C184.713 99.5473 184.35 98.9942 183.626 98.9802C180.661 98.9239 177.726 99.1879 174.792 99.6035C174.232 99.6822 173.98 100.158 173.98 100.652C173.98 101.281 174.389 101.938 175.096 101.844C177.929 101.464 180.77 101.303 183.626 101.231C184.35 101.212 184.713 100.656 184.713 100.102" fill="#F8A60D"/>
<path d="M194.125 106.856C194.125 106.602 194.041 106.336 193.841 106.092C192.572 104.532 191.081 103.153 189.573 101.828C188.73 101.089 187.586 101.845 187.586 102.688C187.586 102.947 187.694 103.215 187.952 103.449C189.445 104.805 190.814 106.272 192.236 107.698C193.058 108.523 194.125 107.759 194.125 106.856" fill="#F8A60D"/>
<path d="M549.059 460.18C550.517 459.857 559.099 448.253 561.346 448.937C563.594 449.621 566.287 461.932 567.211 463.74C568.235 465.747 580.082 469.317 580.199 471.903C580.318 474.485 568.982 480.585 567.934 482.695C566.927 484.72 568.146 496.872 565.722 497.276C562.062 497.883 554.156 490.524 552.402 490.097C550.261 489.576 539.791 494.003 537.491 492.081C535.965 490.809 537.356 486.296 538.746 482.389C539.741 479.593 540.735 477.109 540.663 476.344C540.511 474.761 532.619 463.623 533.209 461.935C534.235 458.989 546.954 460.647 549.059 460.18" fill="#F68A11"/>
<path d="M580.199 471.894C580.199 471.893 580.198 471.892 580.198 471.892C580.198 471.892 580.199 471.893 580.199 471.894ZM580.198 471.885L580.198 471.884L580.198 471.885ZM540.575 477.048C540.573 477.048 540.57 477.046 540.567 477.046C540.002 479.534 536.825 486.421 536.825 490.08C536.825 490.925 536.994 491.598 537.406 492.004C536.995 491.598 536.826 490.926 536.826 490.082C536.826 488.073 537.786 485.086 538.746 482.389C539.53 480.185 540.314 478.174 540.575 477.048V477.048ZM537.415 492.014C537.414 492.013 537.413 492.012 537.411 492.01C537.413 492.012 537.414 492.013 537.415 492.014Z" fill="#C7D3C3"/>
<path d="M580.201 471.943C580.201 471.929 580.199 471.916 580.199 471.903C580.199 471.9 580.199 471.897 580.199 471.895C580.199 471.893 580.198 471.892 580.198 471.892C580.198 471.889 580.198 471.887 580.198 471.885L580.198 471.884C580.173 471.509 579.884 471.115 579.439 470.707C567.822 476.516 553.737 478.377 540.575 477.048C540.314 478.175 539.53 480.185 538.746 482.389C537.786 485.087 536.826 488.073 536.826 490.083C536.826 490.927 536.995 491.599 537.406 492.004C537.407 492.007 537.41 492.008 537.411 492.011C537.413 492.012 537.414 492.013 537.415 492.015C537.439 492.037 537.465 492.06 537.491 492.081C537.904 492.427 538.58 492.567 539.426 492.568C543.018 492.571 549.646 490.056 551.961 490.055C552.133 490.055 552.28 490.068 552.402 490.097C554.085 490.508 561.439 497.305 565.262 497.312C565.422 497.312 565.575 497.3 565.722 497.276C568.146 496.872 566.927 484.72 567.934 482.695C568.977 480.596 580.201 474.549 580.201 471.943" fill="#F57715"/>
<path d="M561.773 455.1C561.773 454.011 560.378 453.052 559.413 454.061C558.523 454.989 557.629 455.912 556.773 456.871C556.51 457.164 556.399 457.487 556.399 457.796C556.399 458.869 557.734 459.788 558.717 458.813C559.629 457.909 560.502 456.968 561.384 456.029C561.657 455.739 561.773 455.413 561.773 455.1" fill="#F8A60D"/>
<path d="M556.701 460.351C556.701 459.303 555.347 458.396 554.356 459.332C552.954 460.655 551.402 461.777 549.93 463.015C549.623 463.272 549.495 463.575 549.495 463.873C549.495 464.745 550.59 465.572 551.526 465.084C553.333 464.14 554.889 462.728 556.299 461.275C556.582 460.984 556.701 460.661 556.701 460.351Z" fill="#F8A60D"/>
<path d="M545.689 465.97C545.689 465.433 545.389 464.916 544.696 464.746C543.338 464.413 541.97 464.122 540.608 463.813C539.561 463.576 538.877 464.446 538.877 465.265C538.877 465.808 539.177 466.328 539.87 466.486C541.232 466.801 542.591 467.133 543.958 467.42C545.003 467.641 545.689 466.782 545.689 465.97" fill="#F8A60D"/>
<path d="M255.764 249.887C256.592 249.871 262.548 244.491 263.697 245.111C264.846 245.731 264.96 252.737 265.265 253.824C265.602 255.029 271.666 258.28 271.446 259.701C271.226 261.123 264.377 263.2 263.574 264.235C262.802 265.228 262.129 271.987 260.764 271.94C258.702 271.868 255.201 266.988 254.293 266.561C253.184 266.041 246.99 267.304 245.946 266.004C244.761 264.525 249.302 258.793 249.408 257.773C249.45 257.361 248.796 255.615 248.141 253.788C247.401 251.721 246.661 249.553 246.929 249.1C247.813 247.608 254.564 249.911 255.764 249.887" fill="#E91779"/>
<path d="M263.569 264.24C263.569 264.242 263.569 264.242 263.569 264.242C263.569 264.242 263.569 264.242 263.569 264.24ZM263.565 264.247C263.565 264.247 263.565 264.248 263.564 264.248C263.565 264.247 263.565 264.247 263.565 264.247ZM263.561 264.252C263.561 264.252 263.56 264.254 263.56 264.255C263.56 264.254 263.561 264.252 263.561 264.252ZM263.558 264.256C263.409 264.464 263.264 264.884 263.116 265.426L263.116 265.427C263.264 264.888 263.409 264.463 263.558 264.256ZM263.466 245.062C261.91 245.063 256.546 249.872 255.762 249.887C255.756 249.888 255.749 249.888 255.741 249.888C255.749 249.888 255.756 249.888 255.764 249.887C256.546 249.872 261.912 245.063 263.466 245.062ZM248.46 248.596C247.806 248.598 247.293 248.703 247.029 248.971C247.293 248.703 247.806 248.598 248.46 248.596Z" fill="#C6AADB"/>
<path d="M271.452 259.624C271.452 258.166 265.597 255.008 265.265 253.824C264.96 252.738 264.846 245.731 263.697 245.111C263.634 245.078 263.557 245.062 263.466 245.062C261.912 245.063 256.546 249.872 255.764 249.887C255.756 249.888 255.749 249.888 255.741 249.888C254.796 249.886 250.761 248.594 248.46 248.596C247.806 248.598 247.293 248.703 247.029 248.971C246.99 249.011 246.957 249.054 246.929 249.1L246.88 249.311C255.212 251.83 261.158 257.735 263.116 265.426C263.264 264.884 263.409 264.464 263.558 264.256L263.56 264.255C263.56 264.254 263.561 264.252 263.561 264.252C263.562 264.251 263.564 264.25 263.564 264.248C263.565 264.248 263.565 264.247 263.565 264.247C263.566 264.246 263.568 264.243 263.569 264.242C263.569 264.242 263.569 264.242 263.569 264.24C263.572 264.239 263.573 264.238 263.574 264.235C264.377 263.2 271.226 261.123 271.446 259.702C271.45 259.676 271.452 259.651 271.452 259.624" fill="#E21465"/>
<path d="M254.662 264.171C254.662 263.82 254.427 263.453 253.973 263.408C252.505 263.261 251.007 263.348 249.541 263.48C249.091 263.521 248.863 263.893 248.863 264.245C248.863 264.593 249.087 264.924 249.541 264.891C251.022 264.787 252.49 264.833 253.973 264.839C254.438 264.84 254.662 264.513 254.662 264.171Z" fill="#EF269D"/>
<path d="M258.342 266.422C258.342 266.26 258.282 266.089 258.138 265.936C257.784 265.558 257.417 265.193 257.053 264.825C256.545 264.312 255.826 264.802 255.826 265.362C255.826 265.525 255.888 265.694 256.032 265.845C256.39 266.22 256.745 266.596 257.112 266.961C257.628 267.473 258.342 266.985 258.342 266.422Z" fill="#EF269D"/>
<path d="M260.7 268.951C260.7 268.843 260.669 268.735 260.602 268.636C260.333 268.239 259.948 267.948 259.653 267.568C259.236 267.031 258.41 267.532 258.41 268.095C258.41 268.209 258.445 268.327 258.525 268.439C258.881 268.94 259.254 269.409 259.854 269.609C260.278 269.752 260.7 269.356 260.7 268.951" fill="#EF269D"/>
<path d="M336.151 389.826C336.979 389.81 342.935 384.43 344.085 385.05C345.234 385.67 345.347 392.676 345.653 393.763C345.99 394.968 352.054 398.219 351.834 399.64C351.614 401.062 344.765 403.139 343.962 404.174C343.19 405.167 342.517 411.926 341.151 411.879C339.09 411.807 335.589 406.927 334.681 406.5C333.571 405.98 327.378 407.243 326.334 405.943C325.149 404.464 329.69 398.732 329.795 397.712C329.838 397.3 329.183 395.554 328.529 393.727C327.789 391.66 327.049 389.492 327.317 389.039C328.201 387.547 334.951 389.85 336.151 389.826" fill="#E91779"/>
<path d="M343.957 404.179C343.957 404.18 343.957 404.181 343.957 404.181C343.957 404.181 343.957 404.18 343.957 404.179ZM343.953 404.186C343.953 404.186 343.953 404.187 343.951 404.187C343.953 404.186 343.953 404.186 343.953 404.186ZM343.949 404.191C343.949 404.191 343.947 404.192 343.947 404.194C343.947 404.192 343.949 404.191 343.949 404.191ZM343.946 404.195C343.797 404.403 343.651 404.823 343.503 405.364L343.503 405.366C343.651 404.827 343.797 404.402 343.946 404.195ZM343.854 385C342.298 385.002 336.934 389.811 336.15 389.826C336.143 389.827 336.137 389.827 336.129 389.827C336.137 389.827 336.143 389.827 336.151 389.826C336.934 389.811 342.299 385.002 343.854 385ZM328.847 388.535C328.194 388.536 327.681 388.642 327.417 388.91C327.681 388.642 328.194 388.536 328.847 388.535Z" fill="#C6AADB"/>
<path d="M351.839 399.563C351.839 398.104 345.985 394.947 345.653 393.763C345.347 392.676 345.234 385.67 344.085 385.05C344.022 385.016 343.945 385 343.854 385C342.299 385.002 336.934 389.811 336.151 389.826C336.143 389.827 336.137 389.827 336.129 389.827C335.183 389.824 331.149 388.532 328.847 388.535C328.194 388.536 327.681 388.642 327.417 388.91C327.378 388.95 327.345 388.992 327.317 389.039L327.267 389.25C335.599 391.768 341.546 397.674 343.503 405.364C343.651 404.823 343.797 404.403 343.946 404.195L343.947 404.194C343.947 404.192 343.949 404.191 343.949 404.191C343.95 404.19 343.951 404.189 343.951 404.187C343.953 404.187 343.953 404.186 343.953 404.186C343.954 404.185 343.955 404.182 343.957 404.18C343.957 404.18 343.957 404.18 343.957 404.179C343.959 404.178 343.961 404.176 343.962 404.174C344.765 403.139 351.614 401.062 351.834 399.64C351.838 399.615 351.839 399.59 351.839 399.563" fill="#E21465"/>
<path d="M335.05 404.11C335.05 403.759 334.815 403.392 334.36 403.347C332.892 403.2 331.395 403.287 329.928 403.419C329.479 403.46 329.251 403.832 329.251 404.184C329.251 404.532 329.475 404.863 329.928 404.83C331.41 404.726 332.878 404.772 334.36 404.778C334.826 404.779 335.05 404.452 335.05 404.11Z" fill="#EF269D"/>
<path d="M338.73 406.361C338.73 406.199 338.67 406.028 338.526 405.875C338.171 405.497 337.805 405.132 337.441 404.764C336.933 404.251 336.214 404.741 336.214 405.301C336.214 405.464 336.275 405.633 336.419 405.784C336.778 406.159 337.133 406.535 337.499 406.9C338.015 407.412 338.73 406.924 338.73 406.361Z" fill="#EF269D"/>
<path d="M341.087 408.89C341.087 408.782 341.057 408.674 340.99 408.575C340.721 408.178 340.335 407.887 340.041 407.507C339.623 406.97 338.798 407.471 338.798 408.034C338.798 408.148 338.833 408.266 338.913 408.378C339.269 408.879 339.642 409.348 340.242 409.548C340.666 409.691 341.087 409.295 341.087 408.89" fill="#EF269D"/>
<path d="M57.5822 201.859C58.2835 201.764 62.8009 196.619 63.8356 197.031C64.8716 197.443 65.6569 203.369 66.0222 204.261C66.4262 205.249 71.8862 207.408 71.8395 208.635C71.7929 209.861 66.1915 212.295 65.6129 213.251C65.0569 214.168 65.1516 219.963 63.9889 220.056C62.2356 220.199 58.7889 216.407 57.9769 216.136C56.9849 215.804 51.8609 217.481 50.8489 216.483C50.1889 215.831 50.9875 213.807 51.7875 212.035C52.3822 210.719 52.9769 209.54 52.9729 209.168C52.9635 208.415 49.6729 202.835 50.0182 202.061C50.6209 200.709 56.5689 201.996 57.5822 201.859" fill="#E91779"/>
<path d="M71.8398 208.619C71.8385 207.389 66.4252 205.245 66.0225 204.261C65.6572 203.369 64.8719 197.443 63.8359 197.031C63.7959 197.015 63.7505 197.007 63.6985 197.007C63.7505 197.007 63.7959 197.015 63.8359 197.031C64.8719 197.443 65.6572 203.369 66.0225 204.261C66.4252 205.245 71.8385 207.389 71.8398 208.619C71.8398 208.624 71.8398 208.629 71.8398 208.635C71.8385 208.637 71.8385 208.639 71.8385 208.642C71.8385 208.639 71.8385 208.637 71.8398 208.635C71.8398 208.629 71.8398 208.624 71.8398 208.619ZM71.8385 208.643C71.8385 208.647 71.8385 208.652 71.8372 208.656C71.8385 208.652 71.8385 208.647 71.8385 208.643ZM71.8372 208.656C71.7625 209.491 69.2012 210.865 67.3758 211.96C67.3758 211.961 67.3758 211.961 67.3758 211.961C69.2025 210.865 71.7625 209.491 71.8372 208.656ZM50.0185 202.061C50.0185 202.064 50.0172 202.067 50.0158 202.068C50.0172 202.067 50.0185 202.064 50.0185 202.061Z" fill="#C6A7DA"/>
<path d="M71.8398 208.619C71.8385 207.389 66.4252 205.245 66.0225 204.261C65.6572 203.369 64.8719 197.443 63.8359 197.031C63.7959 197.015 63.7505 197.007 63.6985 197.007C62.4532 197.014 58.2558 201.768 57.5825 201.859C57.5292 201.867 57.4612 201.869 57.3825 201.869C56.4852 201.869 54.0305 201.439 52.1892 201.437C51.1039 201.437 50.2305 201.585 50.0185 202.061C50.0185 202.064 50.0172 202.067 50.0158 202.068C50.0012 202.105 49.9932 202.153 49.9932 202.211C49.9932 202.551 50.2478 203.227 50.6065 204.027C56.7225 205.416 62.7758 207.716 67.3758 211.961C69.2012 210.865 71.7625 209.491 71.8372 208.656C71.8385 208.652 71.8385 208.647 71.8385 208.643L71.8385 208.642C71.8385 208.639 71.8385 208.637 71.8398 208.635C71.8398 208.629 71.8398 208.624 71.8398 208.619" fill="#E21365"/>
<path d="M58.1318 214.175C58.1318 213.923 57.9439 213.665 57.6225 213.629C56.4799 213.503 55.1319 213.896 54.0199 214.143C53.7372 214.205 53.6158 214.41 53.6158 214.623C53.6158 214.95 53.8959 215.3 54.3172 215.223C55.4319 215.019 56.6919 215.012 57.7612 214.652C58.0172 214.567 58.1318 214.372 58.1318 214.175Z" fill="#EF269D"/>
<path d="M62.3223 216.408C62.3223 216.323 62.2916 216.233 62.2209 216.141C61.7329 215.503 61.0116 215.021 60.4369 214.453C60.0369 214.057 59.4729 214.441 59.4729 214.875C59.4729 215.003 59.5209 215.135 59.6382 215.252C60.1822 215.801 60.8063 216.525 61.5196 216.844C61.8423 216.988 62.3223 216.745 62.3223 216.408Z" fill="#EF269D"/>
<path d="M571.92 224.312C572.526 224.027 575.13 218.096 576.18 218.172C577.232 218.249 579.634 223.368 580.218 224.068C580.865 224.844 586.403 225.232 586.713 226.351C587.019 227.469 582.666 231.264 582.415 232.291C582.315 232.703 582.561 233.849 582.806 235.075C583.147 236.785 583.489 238.649 582.894 238.892C581.354 239.521 577.163 237.085 576.354 237.073C575.365 237.057 571.222 240.033 570.025 239.421C569.177 238.989 569.417 236.611 569.656 234.687C569.802 233.517 569.947 232.516 569.85 232.219C569.627 231.543 565.067 227.451 565.158 226.655C565.315 225.263 571.046 224.725 571.92 224.312" fill="#E91779"/>
<path d="M586.728 226.473C586.729 227.724 582.657 231.298 582.416 232.29C582.399 232.356 582.393 232.438 582.393 232.537C582.393 232.77 582.433 233.09 582.496 233.464C582.433 233.09 582.393 232.769 582.393 232.537C582.393 232.438 582.399 232.356 582.416 232.29C582.657 231.298 586.728 227.724 586.728 226.473Z" fill="#D4AADA"/>
<path d="M586.728 226.473C586.728 226.435 586.723 226.399 586.716 226.364C586.716 226.36 586.714 226.355 586.713 226.351C586.404 225.232 580.865 224.844 580.218 224.068C579.634 223.368 577.233 218.249 576.181 218.172C576.175 218.172 576.169 218.172 576.162 218.172C575.099 218.165 572.522 224.028 571.921 224.312C571.459 224.531 569.647 224.784 568.014 225.179C574.138 227.017 579.558 230.653 582.934 235.732C582.782 234.932 582.605 234.117 582.496 233.464C582.433 233.091 582.393 232.771 582.393 232.537C582.393 232.439 582.399 232.356 582.416 232.291C582.657 231.299 586.729 227.724 586.728 226.473" fill="#E21365"/>
<path d="M572.646 233.428C572.646 232.969 572.613 232.511 572.55 232.045C572.468 231.441 571.453 231.567 571.453 232.137C571.453 232.156 571.454 232.175 571.455 232.193C571.492 232.533 571.511 232.871 571.511 233.207C571.511 233.728 571.466 234.247 571.375 234.769C571.367 234.808 571.365 234.847 571.365 234.884C571.365 235.531 572.366 235.773 572.495 235.077C572.598 234.523 572.646 233.976 572.646 233.428" fill="#EF269D"/>
<path d="M571.5 230.16C571.5 230.029 571.449 229.9 571.328 229.798C570.828 229.385 570.31 228.994 569.797 228.596C569.364 228.26 568.793 228.633 568.793 229.033C568.793 229.161 568.852 229.292 568.992 229.402C569.537 229.834 570.08 230.274 570.64 230.69C571.03 230.98 571.5 230.56 571.5 230.16Z" fill="#EF269D"/>
<path d="M42.1398 601.676C45.5624 597.089 53.3197 602.453 49.1744 607.396C45.1531 612.189 38.2744 606.855 42.1398 601.676Z" fill="#E91779"/>
<path d="M569.276 374.743C572.699 370.157 580.456 375.521 576.311 380.463C572.29 385.257 565.411 379.922 569.276 374.743Z" fill="#E91779"/>
<path d="M953.765 243.713C953.763 243.713 953.762 243.713 953.761 243.713C953.762 243.713 953.763 243.713 953.765 243.713ZM953.75 243.715C953.749 243.715 953.747 243.715 953.746 243.715C953.747 243.715 953.749 243.715 953.75 243.715ZM953.734 243.716C953.733 243.716 953.733 243.716 953.733 243.716C953.733 243.716 953.733 243.716 953.734 243.716ZM953.703 243.72L953.702 243.72C953.702 243.72 953.702 243.72 953.703 243.72Z" fill="#A7B8E3"/>
<path d="M1104.6 142.969C1104.6 142.344 1104.51 141.703 1104.48 141.093C1104.43 140.324 1103.25 140.305 1103.25 141.064C1103.25 141.073 1103.26 141.084 1103.26 141.093C1103.29 141.964 1103.21 142.937 1103.44 143.78C1103.58 144.287 1104.44 144.353 1104.54 143.78C1104.58 143.516 1104.6 143.244 1104.6 142.969" fill="#3EB6A9"/>
<path d="M937.427 330.019C937.427 329.82 937.273 329.627 937.03 329.711C936.775 329.801 936.57 329.917 936.381 330.111C936.311 330.18 936.283 330.257 936.283 330.332C936.283 330.584 936.61 330.803 936.847 330.579C936.945 330.467 937.063 330.388 937.205 330.343C937.359 330.284 937.427 330.151 937.427 330.019Z" fill="#F8A60D"/>
<path d="M722.595 74.9941C729.345 74.9941 729.164 84.3275 722.595 84.3275C717.697 84.3275 716.789 74.9941 722.595 74.9941Z" fill="#423387"/>
<path d="M763.713 164.812L763.726 164.52C763.908 162.683 765.782 159.974 770.473 158.39C771.996 157.875 773.705 157.532 775.51 157.364C774.416 160.213 772.544 162.796 770.089 164.569C767.268 166.607 765.27 166.756 764.416 166.265C763.836 165.932 763.713 165.295 763.713 164.812V164.812ZM802.557 172.264C802.557 167.357 800.758 163.82 798.714 161.381C794.349 156.179 787.206 153.82 780.534 153.372C780.734 151.178 780.556 148.967 779.957 146.861C778.014 140.029 772.008 135.762 763.48 135.154C743.26 133.71 734.052 147.2 733.67 147.775C733.058 148.695 733.31 149.936 734.229 150.548C735.148 151.157 736.386 150.909 736.998 149.993C737.332 149.499 745.379 137.871 763.195 139.143C770.047 139.632 774.632 142.762 776.109 147.956C776.597 149.672 776.716 151.507 776.506 153.329C773.769 153.459 771.244 153.907 769.192 154.6C762.702 156.792 760.057 160.96 759.746 164.129C759.502 166.541 760.51 168.635 762.422 169.733C765.022 171.227 768.67 170.528 772.432 167.812C775.986 165.245 778.542 161.435 779.777 157.29C785.846 157.62 792.157 159.788 795.649 163.952C799.849 168.959 799.458 176.372 794.522 185.395C793.993 186.365 794.349 187.58 795.317 188.109C796.286 188.639 797.501 188.284 798.032 187.315C801.337 181.272 802.557 176.304 802.557 172.264" fill="#E91578"/>
<path d="M945.514 531.767L945.527 531.475C945.709 529.637 947.583 526.928 952.274 525.344C953.797 524.829 955.506 524.487 957.311 524.319C956.217 527.168 954.345 529.751 951.89 531.524C949.069 533.561 947.071 533.711 946.217 533.22C945.637 532.887 945.514 532.249 945.514 531.767V531.767ZM984.358 539.219C984.358 534.312 982.559 530.775 980.515 528.336C976.15 523.133 969.007 520.775 962.335 520.327C962.535 518.132 962.357 515.921 961.758 513.816C959.815 506.984 953.809 502.716 945.281 502.108C925.061 500.664 915.853 514.155 915.471 514.729C914.859 515.649 915.111 516.891 916.03 517.503C916.949 518.112 918.187 517.864 918.799 516.948C919.133 516.453 927.179 504.825 944.995 506.097C951.847 506.587 956.433 509.716 957.91 514.911C958.398 516.627 958.517 518.461 958.307 520.284C955.57 520.413 953.045 520.861 950.993 521.555C944.503 523.747 941.858 527.915 941.547 531.084C941.303 533.496 942.311 535.589 944.223 536.688C946.823 538.181 950.471 537.483 954.233 534.767C957.787 532.2 960.343 528.389 961.578 524.244C967.647 524.575 973.958 526.743 977.45 530.907C981.65 535.913 981.259 543.327 976.323 552.349C975.794 553.32 976.15 554.535 977.118 555.064C978.087 555.593 979.302 555.239 979.833 554.269C983.138 548.227 984.358 543.259 984.358 539.219" fill="#E91578"/>
<path d="M1156.37 593.232C1159.39 590.211 1165.19 595.079 1161.24 598.016C1157.3 600.955 1153.35 596.253 1156.37 593.232Z" fill="#423387"/>
<path d="M753.156 538.4C756.177 535.379 761.968 540.247 758.022 543.185C754.078 546.123 750.134 541.421 753.156 538.4Z" fill="#423387"/>
<path d="M989.206 47.9532C992.227 44.9318 998.018 49.7999 994.072 52.7385C990.128 55.6759 986.184 50.9745 989.206 47.9532Z" fill="#423387"/>
<path d="M1240.7 544.76C1246.39 545.915 1243.11 553.649 1238.23 552.58C1233.35 551.511 1236.09 543.824 1240.7 544.76Z" fill="#E91578"/>
<path d="M1243.24 55.3876C1246.66 50.8012 1254.42 56.1652 1250.28 61.1075C1246.26 65.8996 1239.38 60.5663 1243.24 55.3876" fill="#F68A11"/>
<path d="M1265.16 137.155C1267.12 134.535 1271.55 137.6 1269.18 140.423C1266.89 143.163 1262.95 140.115 1265.16 137.155Z" fill="#423387"/>
<path d="M702.754 356.46C704.712 353.838 709.144 356.904 706.776 359.728C704.477 362.468 700.546 359.418 702.754 356.46Z" fill="#E70F6D"/>
<path d="M841.224 612.822C843.18 610.2 847.612 613.266 845.244 616.09C842.946 618.828 839.016 615.782 841.224 612.822Z" fill="#37A49A"/>
<path d="M878.121 133.653C881.054 129.723 887.704 134.32 884.15 138.556C880.705 142.664 874.808 138.092 878.121 133.653Z" fill="#37A49A"/>
<path d="M1181.72 77.2454C1183.11 77.0646 1192.11 66.9241 1194.16 67.7522C1196.21 68.5803 1197.69 80.3303 1198.41 82.0995C1199.2 84.0636 1209.99 88.4017 1209.88 90.8303C1209.77 93.2579 1198.65 98.0162 1197.49 99.9027C1196.38 101.714 1196.5 113.193 1194.2 113.367C1190.72 113.628 1183.94 106.077 1182.33 105.53C1180.37 104.862 1170.2 108.128 1168.21 106.138C1166.91 104.84 1168.51 100.846 1170.12 97.3474C1171.31 94.7412 1172.5 92.4099 1172.5 91.6703C1172.49 90.1776 1166.04 79.0881 1166.73 77.5579C1167.94 74.887 1179.71 77.5058 1181.72 77.2454" fill="#423387"/>
<path d="M1209.88 90.7943C1209.88 88.3588 1199.19 84.0541 1198.41 82.0995C1197.69 80.3303 1196.21 68.5803 1194.16 67.7521C1194.08 67.7197 1193.99 67.7041 1193.89 67.7036C1193.99 67.7041 1194.08 67.7197 1194.16 67.7521C1196.21 68.5803 1197.69 80.3303 1198.41 82.0995C1199.19 84.0541 1209.88 88.3588 1209.88 90.7943C1209.88 90.8063 1209.88 90.8183 1209.88 90.8303C1209.77 93.2579 1198.65 98.0161 1197.49 99.9027C1197.49 99.9041 1197.49 99.9063 1197.49 99.9084C1197.49 99.9063 1197.49 99.9041 1197.49 99.9027C1198.65 98.0161 1209.77 93.2579 1209.88 90.8303C1209.88 90.8183 1209.88 90.8063 1209.88 90.7943ZM1197.49 99.9115C1197.49 99.9125 1197.49 99.9136 1197.49 99.9145C1197.49 99.9136 1197.49 99.9125 1197.49 99.9115ZM1197.48 99.9177C1197.48 99.9188 1197.48 99.9193 1197.48 99.9203C1197.48 99.9193 1197.48 99.9183 1197.48 99.9177ZM1181.72 77.2454C1181.71 77.2459 1181.71 77.2464 1181.71 77.2464C1181.71 77.2464 1181.71 77.2459 1181.72 77.2454ZM1181.71 77.2469C1181.1 77.3213 1179.63 77.1421 1177.83 76.924C1179.63 77.1421 1181.1 77.3213 1181.71 77.2469Z" fill="#A8B9E4"/>
<path d="M1209.88 90.7943C1209.88 88.3588 1199.19 84.0541 1198.41 82.0995C1197.69 80.3303 1196.21 68.5803 1194.16 67.7521C1194.08 67.7197 1193.99 67.7041 1193.89 67.7036C1191.42 67.7011 1183.05 77.0714 1181.72 77.2454C1181.71 77.2459 1181.71 77.2464 1181.71 77.2464L1181.71 77.2469C1181.1 77.3213 1179.63 77.1421 1177.83 76.924C1175.12 76.5953 1171.67 76.1798 1169.32 76.4172C1180.32 79.6798 1189.4 89.538 1193.57 99.9615C1194.86 103.194 1195.59 106.463 1195.92 109.738C1196.57 106.176 1196.78 101.111 1197.48 99.9203C1197.48 99.9193 1197.48 99.9188 1197.48 99.9177C1197.48 99.9167 1197.49 99.9156 1197.49 99.9145C1197.49 99.9136 1197.49 99.9125 1197.49 99.9115C1197.49 99.9104 1197.49 99.9093 1197.49 99.9084C1197.49 99.9063 1197.49 99.9041 1197.49 99.9027C1198.65 98.0161 1209.77 93.2579 1209.88 90.8303C1209.88 90.8183 1209.88 90.8063 1209.88 90.7943" fill="#362B73"/>
<path d="M1177.22 90.0312C1177.22 89.953 1177.21 89.8697 1177.18 89.7817C1176.7 88.2426 1176.09 86.7521 1175.37 85.3078C1174.98 84.524 1173.92 85.0088 1173.92 85.7385C1173.92 85.8557 1173.95 85.9786 1174.01 86.1041C1174.67 87.4306 1175.21 88.7926 1175.67 90.1989C1175.96 91.0677 1177.22 90.813 1177.22 90.0312Z" fill="#5940A2"/>
<path d="M1177.08 94.2004C1177.07 93.443 1175.98 92.9378 1175.61 93.7504C1174.73 95.6482 1173.84 97.5441 1172.98 99.4514C1172.93 99.5706 1172.9 99.6873 1172.9 99.7988C1172.9 100.541 1173.96 101.042 1174.34 100.244C1175.24 98.3566 1176.11 96.4577 1176.99 94.5602C1177.05 94.4368 1177.08 94.3154 1177.08 94.2004" fill="#5940A2"/>
<path d="M828.124 515.02C829.573 514.832 838.964 504.258 841.097 505.122C843.229 505.985 844.781 518.236 845.525 520.081C846.349 522.129 857.598 526.65 857.486 529.184C857.376 531.714 845.78 536.676 844.573 538.641C843.413 540.53 843.54 552.497 841.138 552.678C837.514 552.952 830.44 545.08 828.768 544.509C826.722 543.812 816.12 547.217 814.042 545.141C812.688 543.789 814.358 539.625 816.03 535.977C817.274 533.26 818.52 530.83 818.514 530.058C818.505 528.502 811.777 516.941 812.5 515.346C813.76 512.561 826.028 515.292 828.124 515.02" fill="#423387"/>
<path d="M857.488 529.147C857.486 526.607 846.345 522.119 845.525 520.081C845.524 520.079 845.524 520.076 845.522 520.075C845.524 520.076 845.524 520.079 845.525 520.081C846.345 522.119 857.486 526.607 857.488 529.147C857.488 529.159 857.488 529.171 857.486 529.184C857.426 530.559 853.98 532.649 850.649 534.588C853.98 532.649 857.426 530.559 857.486 529.184C857.488 529.171 857.488 529.159 857.488 529.147Z" fill="#B3BEE4"/>
<path d="M857.488 529.147C857.486 526.607 846.345 522.119 845.525 520.081C845.524 520.079 845.524 520.076 845.522 520.075C845.522 520.073 845.521 520.072 845.521 520.069C844.95 518.628 843.906 511.149 842.493 507.331C840.733 515.339 838.02 523.156 832.006 528.983C827.268 533.575 821.542 535.899 815.464 537.241C814.437 539.584 813.546 541.98 813.546 543.601C813.546 544.263 813.694 544.795 814.042 545.141C814.54 545.639 815.524 545.821 816.764 545.821C820.208 545.823 825.616 544.413 827.961 544.413C828.298 544.413 828.572 544.443 828.768 544.509C830.413 545.069 837.281 552.692 840.956 552.685C841.017 552.685 841.078 552.683 841.138 552.679C843.492 552.501 843.417 540.995 844.506 538.764C844.528 538.72 844.55 538.679 844.573 538.641C845.125 537.744 847.846 536.22 850.649 534.588C853.98 532.649 857.426 530.559 857.486 529.184C857.488 529.171 857.488 529.159 857.488 529.147" fill="#362B73"/>
<path d="M828.873 518.034C828.873 517.721 828.694 517.429 828.278 517.35C826.045 516.928 823.781 516.676 821.514 516.524C820.984 516.488 820.721 516.88 820.721 517.292C820.721 517.705 820.986 518.137 821.514 518.174C823.64 518.324 825.738 518.598 827.841 518.934C828.461 519.034 828.873 518.51 828.873 518.034" fill="#5940A2"/>
<path d="M837.313 511.95C837.313 511.318 836.538 510.768 836.002 511.36C834.888 512.596 833.662 513.707 832.408 514.797C832.238 514.944 832.168 515.128 832.168 515.315C832.168 515.888 832.838 516.481 833.385 516.064C834.769 515.011 835.988 513.795 837.113 512.471C837.253 512.306 837.313 512.124 837.313 511.95" fill="#5940A2"/>
<path d="M818.61 516.992C818.61 516.6 818.356 516.182 817.86 516.127C817.368 516.072 816.876 516.018 816.384 515.964C815.869 515.907 815.61 516.292 815.61 516.702C815.61 517.107 815.866 517.536 816.384 517.578C816.876 517.618 817.368 517.656 817.86 517.696C818.365 517.736 818.61 517.378 818.61 516.992" fill="#5940A2"/>
<path d="M1107.82 363.948C1109.26 363.76 1118.66 353.186 1120.79 354.05C1122.92 354.913 1124.47 367.164 1125.22 369.009C1126.04 371.057 1137.29 375.578 1137.18 378.112C1137.07 380.642 1125.47 385.604 1124.26 387.569C1123.1 389.458 1123.23 401.425 1120.83 401.606C1117.21 401.88 1110.13 394.008 1108.46 393.437C1106.41 392.74 1095.81 396.145 1093.73 394.069C1092.38 392.717 1094.05 388.553 1095.72 384.905C1096.97 382.188 1098.21 379.758 1098.21 378.986C1098.2 377.43 1091.47 365.869 1092.19 364.274C1093.45 361.489 1105.72 364.22 1107.82 363.948" fill="#423387"/>
<path d="M1137.18 378.074C1137.18 375.534 1126.04 371.046 1125.22 369.009C1125.21 369.006 1125.21 369.004 1125.21 369.002C1125.21 369.004 1125.21 369.006 1125.22 369.009C1126.04 371.046 1137.18 375.534 1137.18 378.074C1137.18 378.086 1137.18 378.098 1137.18 378.112C1137.12 379.486 1133.67 381.577 1130.34 383.516C1133.67 381.577 1137.12 379.486 1137.18 378.112C1137.18 378.098 1137.18 378.086 1137.18 378.074Z" fill="#B3BEE4"/>
<path d="M1137.18 378.074C1137.18 375.534 1126.04 371.046 1125.22 369.009C1125.21 369.006 1125.21 369.004 1125.21 369.002C1125.21 369.001 1125.21 369 1125.21 368.997C1124.64 367.556 1123.6 360.077 1122.18 356.258C1120.42 364.266 1117.71 372.084 1111.7 377.91C1106.96 382.502 1101.23 384.826 1095.15 386.169C1094.13 388.512 1093.24 390.908 1093.24 392.529C1093.24 393.19 1093.39 393.722 1093.73 394.069C1094.23 394.566 1095.21 394.749 1096.45 394.749C1099.9 394.75 1105.31 393.341 1107.65 393.341C1107.99 393.341 1108.26 393.37 1108.46 393.437C1110.1 393.997 1116.97 401.62 1120.65 401.613C1120.71 401.613 1120.77 401.61 1120.83 401.606C1123.18 401.429 1123.11 389.922 1124.2 387.692C1124.22 387.648 1124.24 387.606 1124.26 387.569C1124.82 386.672 1127.54 385.148 1130.34 383.516C1133.67 381.577 1137.12 379.486 1137.18 378.112C1137.18 378.098 1137.18 378.086 1137.18 378.074" fill="#362B73"/>
<path d="M1108.56 366.962C1108.56 366.649 1108.39 366.357 1107.97 366.278C1105.74 365.856 1103.47 365.604 1101.21 365.452C1100.68 365.416 1100.41 365.808 1100.41 366.22C1100.41 366.633 1100.68 367.065 1101.21 367.102C1103.33 367.252 1105.43 367.526 1107.53 367.862C1108.15 367.962 1108.56 367.438 1108.56 366.962" fill="#5940A2"/>
<path d="M1117 360.877C1117 360.245 1116.23 359.696 1115.69 360.288C1114.58 361.524 1113.35 362.635 1112.1 363.725C1111.93 363.872 1111.86 364.056 1111.86 364.243C1111.86 364.816 1112.53 365.409 1113.08 364.992C1114.46 363.939 1115.68 362.723 1116.8 361.399C1116.94 361.233 1117 361.052 1117 360.877" fill="#5940A2"/>
<path d="M1098.3 365.92C1098.3 365.528 1098.05 365.109 1097.55 365.055C1097.06 365 1096.57 364.945 1096.08 364.892C1095.56 364.835 1095.3 365.22 1095.3 365.629C1095.3 366.035 1095.56 366.464 1096.08 366.505C1096.57 366.545 1097.06 366.584 1097.55 366.624C1098.06 366.664 1098.3 366.305 1098.3 365.92" fill="#5940A2"/>
<path d="M739.977 404.644C740.747 404.533 745.663 398.836 746.804 399.28C747.947 399.723 748.865 406.229 749.275 407.204C749.729 408.288 755.749 410.609 755.709 411.957C755.669 413.304 749.537 416.032 748.909 417.088C748.307 418.101 748.465 424.469 747.189 424.583C745.264 424.755 741.44 420.621 740.545 420.331C739.452 419.975 733.836 421.867 732.715 420.78C731.981 420.068 732.845 417.831 733.709 415.873C734.348 414.424 734.987 413.129 734.979 412.72C734.963 411.892 731.295 405.792 731.667 404.937C732.316 403.447 738.864 404.804 739.977 404.644" fill="#F68A11"/>
<path d="M849.977 381.644C850.747 381.533 855.663 375.836 856.804 376.28C857.947 376.723 858.865 383.229 859.275 384.204C859.729 385.288 865.749 387.609 865.709 388.957C865.669 390.304 859.537 393.032 858.909 394.088C858.307 395.101 858.465 401.469 857.189 401.583C855.264 401.755 851.44 397.621 850.545 397.331C849.452 396.975 843.836 398.867 842.715 397.78C841.981 397.068 842.845 394.831 843.709 392.873C844.348 391.424 844.987 390.129 844.979 389.72C844.963 388.892 841.295 382.792 841.667 381.937C842.316 380.447 848.864 381.804 849.977 381.644" fill="#F68A11"/>
<path d="M748.906 417.094L748.905 417.094C748.906 417.094 748.906 417.094 748.906 417.094ZM748.885 417.132C748.885 417.133 748.885 417.133 748.885 417.134C748.885 417.133 748.885 417.133 748.885 417.132ZM748.882 417.137C748.785 417.334 748.708 417.678 748.641 418.114C748.641 418.114 748.641 418.114 748.642 418.114C748.709 417.68 748.785 417.334 748.882 417.137ZM739.905 404.652C739.856 404.656 739.8 404.657 739.737 404.657C739.8 404.657 739.856 404.656 739.905 404.652ZM734.146 404.23C732.906 404.232 731.901 404.398 731.666 404.937C731.901 404.398 732.906 404.232 734.146 404.23Z" fill="#D6D9C1"/>
<path d="M858.906 394.094L858.905 394.094C858.906 394.094 858.906 394.094 858.906 394.094ZM858.885 394.132C858.885 394.133 858.885 394.133 858.885 394.134C858.885 394.133 858.885 394.133 858.885 394.132ZM858.882 394.137C858.785 394.334 858.708 394.678 858.641 395.114C858.641 395.114 858.641 395.114 858.642 395.114C858.709 394.68 858.785 394.334 858.882 394.137ZM849.905 381.652C849.856 381.656 849.8 381.657 849.737 381.657C849.8 381.657 849.856 381.656 849.905 381.652ZM844.146 381.23C842.906 381.232 841.901 381.398 841.666 381.937C841.901 381.398 842.906 381.232 844.146 381.23Z" fill="#D6D9C1"/>
<path d="M755.709 411.944C755.709 410.594 749.728 408.284 749.274 407.204C748.865 406.229 747.946 399.722 746.804 399.28C746.762 399.264 746.714 399.256 746.662 399.254C745.304 399.25 740.718 404.538 739.977 404.644C739.954 404.648 739.932 404.65 739.905 404.652C739.856 404.656 739.8 404.657 739.737 404.657C738.753 404.658 736.144 404.229 734.146 404.23C732.906 404.232 731.901 404.398 731.666 404.937L731.652 405.21C737.958 408.517 744.26 412.505 748.641 418.114C748.708 417.678 748.785 417.334 748.882 417.137C748.884 417.136 748.884 417.134 748.885 417.134C748.885 417.133 748.885 417.133 748.885 417.132C748.886 417.13 748.886 417.128 748.888 417.126C748.894 417.116 748.9 417.105 748.905 417.094L748.906 417.094C748.906 417.092 748.908 417.09 748.909 417.088C749.537 416.032 755.669 413.304 755.709 411.957C755.709 411.952 755.709 411.948 755.709 411.944" fill="#F57715"/>
<path d="M865.709 388.944C865.709 387.594 859.728 385.284 859.274 384.204C858.865 383.229 857.946 376.722 856.804 376.28C856.762 376.264 856.714 376.256 856.662 376.254C855.304 376.25 850.718 381.538 849.977 381.644C849.954 381.648 849.932 381.65 849.905 381.652C849.856 381.656 849.8 381.657 849.737 381.657C848.753 381.658 846.144 381.229 844.146 381.23C842.906 381.232 841.901 381.398 841.666 381.937L841.652 382.21C847.958 385.517 854.26 389.505 858.641 395.114C858.708 394.678 858.785 394.334 858.882 394.137C858.884 394.136 858.884 394.134 858.885 394.134C858.885 394.133 858.885 394.133 858.885 394.132C858.886 394.13 858.886 394.128 858.888 394.126C858.894 394.116 858.9 394.105 858.905 394.094L858.906 394.094C858.906 394.092 858.908 394.09 858.909 394.088C859.537 393.032 865.669 390.304 865.709 388.957C865.709 388.952 865.709 388.948 865.709 388.944" fill="#F57715"/>
<path d="M740.965 417.701C740.965 417.375 740.744 417.045 740.342 417.056C738.986 417.095 737.601 417.503 736.307 417.885C735.975 417.984 735.832 418.249 735.832 418.517C735.832 418.924 736.161 419.337 736.668 419.193C737.937 418.831 739.244 418.66 740.512 418.315C740.822 418.231 740.965 417.967 740.965 417.701" fill="#F8A60D"/>
<path d="M850.965 394.701C850.965 394.375 850.744 394.045 850.342 394.056C848.986 394.095 847.601 394.503 846.307 394.885C845.975 394.984 845.832 395.249 845.832 395.517C845.832 395.924 846.161 396.337 846.668 396.193C847.937 395.831 849.244 395.66 850.512 395.315C850.822 395.231 850.965 394.967 850.965 394.701" fill="#F8A60D"/>
<path d="M745.214 420.128C745.214 419.976 745.157 419.814 745.021 419.665C744.426 419.012 743.758 418.42 743.118 417.809C742.628 417.34 741.945 417.801 741.945 418.32C741.945 418.474 742.006 418.636 742.15 418.777C742.781 419.397 743.394 420.045 744.066 420.62C744.573 421.053 745.214 420.638 745.214 420.128" fill="#F8A60D"/>
<path d="M1020.47 310.39C1021.24 310.279 1026.16 304.582 1027.3 305.026C1028.44 305.468 1029.36 311.975 1029.77 312.95C1030.23 314.034 1036.25 316.355 1036.21 317.703C1036.17 319.05 1030.03 321.778 1029.41 322.834C1028.8 323.847 1028.96 330.215 1027.69 330.328C1025.76 330.5 1021.94 326.367 1021.04 326.076C1019.95 325.72 1014.33 327.612 1013.21 326.526C1012.48 325.814 1013.34 323.576 1014.21 321.619C1014.84 320.17 1015.48 318.875 1015.48 318.466C1015.46 317.638 1011.79 311.538 1012.16 310.683C1012.81 309.192 1019.36 310.55 1020.47 310.39" fill="#F68A11"/>
<path d="M1029.4 322.84L1029.4 322.84C1029.4 322.84 1029.4 322.84 1029.4 322.84ZM1029.38 322.877C1029.38 322.879 1029.38 322.879 1029.38 322.88C1029.38 322.879 1029.38 322.879 1029.38 322.877ZM1029.38 322.883C1029.28 323.08 1029.2 323.424 1029.14 323.86C1029.14 323.86 1029.14 323.86 1029.14 323.86C1029.21 323.425 1029.28 323.08 1029.38 322.883ZM1020.4 310.397C1020.35 310.401 1020.3 310.403 1020.23 310.403C1020.3 310.403 1020.35 310.401 1020.4 310.397ZM1014.64 309.976C1013.4 309.977 1012.4 310.144 1012.16 310.683C1012.4 310.144 1013.4 309.977 1014.64 309.976Z" fill="#D6D9C1"/>
<path d="M1036.21 317.689C1036.21 316.34 1030.22 314.029 1029.77 312.949C1029.36 311.975 1028.44 305.468 1027.3 305.025C1027.26 305.009 1027.21 305.001 1027.16 305C1025.8 304.996 1021.22 310.284 1020.47 310.389C1020.45 310.393 1020.43 310.396 1020.4 310.397C1020.35 310.401 1020.3 310.403 1020.23 310.403C1019.25 310.404 1016.64 309.975 1014.64 309.976C1013.4 309.977 1012.4 310.144 1012.16 310.683L1012.15 310.956C1018.46 314.263 1024.76 318.251 1029.14 323.86C1029.2 323.424 1029.28 323.08 1029.38 322.883C1029.38 322.881 1029.38 322.88 1029.38 322.88C1029.38 322.879 1029.38 322.879 1029.38 322.877C1029.38 322.876 1029.38 322.873 1029.38 322.872C1029.39 322.861 1029.4 322.851 1029.4 322.84L1029.4 322.84C1029.4 322.837 1029.4 322.836 1029.41 322.833C1030.03 321.777 1036.17 319.049 1036.21 317.703C1036.21 317.697 1036.21 317.693 1036.21 317.689" fill="#F57715"/>
<path d="M1021.46 323.447C1021.46 323.12 1021.24 322.791 1020.84 322.802C1019.48 322.84 1018.1 323.248 1016.8 323.631C1016.47 323.73 1016.33 323.995 1016.33 324.263C1016.33 324.67 1016.66 325.083 1017.16 324.939C1018.43 324.576 1019.74 324.406 1021.01 324.06C1021.32 323.976 1021.46 323.712 1021.46 323.447" fill="#F8A60D"/>
<path d="M1025.71 325.873C1025.71 325.721 1025.65 325.56 1025.52 325.411C1024.92 324.757 1024.25 324.165 1023.61 323.555C1023.12 323.085 1022.44 323.547 1022.44 324.065C1022.44 324.22 1022.5 324.381 1022.65 324.523C1023.28 325.143 1023.89 325.791 1024.56 326.365C1025.07 326.799 1025.71 326.384 1025.71 325.873" fill="#F8A60D"/>
<path d="M1034.47 149.39C1035.24 149.279 1040.16 143.582 1041.3 144.026C1042.44 144.468 1043.36 150.975 1043.77 151.95C1044.23 153.034 1050.25 155.355 1050.21 156.703C1050.17 158.05 1044.03 160.778 1043.41 161.834C1042.8 162.847 1042.96 169.215 1041.69 169.328C1039.76 169.5 1035.94 165.367 1035.04 165.076C1033.95 164.72 1028.33 166.612 1027.21 165.526C1026.48 164.814 1027.34 162.576 1028.21 160.619C1028.84 159.17 1029.48 157.875 1029.48 157.466C1029.46 156.638 1025.79 150.538 1026.16 149.683C1026.81 148.192 1033.36 149.55 1034.47 149.39" fill="#F68A11"/>
<path d="M1043.4 161.84L1043.4 161.84C1043.4 161.84 1043.4 161.84 1043.4 161.84ZM1043.38 161.877C1043.38 161.879 1043.38 161.879 1043.38 161.88C1043.38 161.879 1043.38 161.879 1043.38 161.877ZM1043.38 161.883C1043.28 162.08 1043.2 162.424 1043.14 162.86C1043.14 162.86 1043.14 162.86 1043.14 162.86C1043.21 162.425 1043.28 162.08 1043.38 161.883ZM1034.4 149.397C1034.35 149.401 1034.3 149.403 1034.23 149.403C1034.3 149.403 1034.35 149.401 1034.4 149.397ZM1028.64 148.976C1027.4 148.977 1026.4 149.144 1026.16 149.683C1026.4 149.144 1027.4 148.977 1028.64 148.976Z" fill="#D6D9C1"/>
<path d="M1050.21 156.689C1050.21 155.34 1044.22 153.029 1043.77 151.949C1043.36 150.975 1042.44 144.468 1041.3 144.025C1041.26 144.009 1041.21 144.001 1041.16 144C1039.8 143.996 1035.22 149.284 1034.47 149.389C1034.45 149.393 1034.43 149.396 1034.4 149.397C1034.35 149.401 1034.3 149.403 1034.23 149.403C1033.25 149.404 1030.64 148.975 1028.64 148.976C1027.4 148.977 1026.4 149.144 1026.16 149.683L1026.15 149.956C1032.46 153.263 1038.76 157.251 1043.14 162.86C1043.2 162.424 1043.28 162.08 1043.38 161.883C1043.38 161.881 1043.38 161.88 1043.38 161.88C1043.38 161.879 1043.38 161.879 1043.38 161.877C1043.38 161.876 1043.38 161.873 1043.38 161.872C1043.39 161.861 1043.4 161.851 1043.4 161.84L1043.4 161.84C1043.4 161.837 1043.4 161.836 1043.41 161.833C1044.03 160.777 1050.17 158.049 1050.21 156.703C1050.21 156.697 1050.21 156.693 1050.21 156.689" fill="#F57715"/>
<path d="M1035.46 162.447C1035.46 162.12 1035.24 161.791 1034.84 161.802C1033.48 161.84 1032.1 162.248 1030.8 162.631C1030.47 162.73 1030.33 162.995 1030.33 163.263C1030.33 163.67 1030.66 164.083 1031.16 163.939C1032.43 163.576 1033.74 163.406 1035.01 163.06C1035.32 162.976 1035.46 162.712 1035.46 162.447" fill="#F8A60D"/>
<path d="M1039.71 164.873C1039.71 164.721 1039.65 164.56 1039.52 164.411C1038.92 163.757 1038.25 163.165 1037.61 162.555C1037.12 162.085 1036.44 162.547 1036.44 163.065C1036.44 163.22 1036.5 163.381 1036.65 163.523C1037.28 164.143 1037.89 164.791 1038.56 165.365C1039.07 165.799 1039.71 165.384 1039.71 164.873" fill="#F8A60D"/>
<path d="M855.214 397.128C855.214 396.976 855.157 396.814 855.021 396.665C854.426 396.012 853.758 395.42 853.118 394.809C852.628 394.34 851.945 394.801 851.945 395.32C851.945 395.474 852.006 395.636 852.15 395.777C852.781 396.397 853.394 397.045 854.066 397.62C854.573 398.053 855.214 397.638 855.214 397.128" fill="#F8A60D"/>
<path d="M827.858 72.8257C829.369 72.706 839.649 62.2445 841.813 63.2497C843.978 64.256 844.946 77.0262 845.62 78.9753C846.368 81.1404 857.784 86.4117 857.536 89.0289C857.289 91.6456 845.02 96.1794 843.665 98.1533C842.365 100.049 841.872 112.452 839.376 112.514C835.606 112.608 828.69 104.084 826.988 103.406C824.905 102.578 813.745 105.551 811.7 103.293C809.376 100.725 817.037 89.7748 817.12 87.9024C817.153 87.1414 815.753 83.992 814.352 80.709C812.785 77.0382 811.218 73.2008 811.657 72.3486C813.108 69.5289 825.673 72.9976 827.858 72.8257" fill="#F68A11"/>
<path d="M857.54 88.9437C857.54 86.2984 846.36 81.1166 845.62 78.975C844.946 77.0259 843.978 64.2551 841.813 63.2494C841.714 63.203 841.597 63.1812 841.466 63.1812C841.597 63.1812 841.714 63.203 841.813 63.2494C843.978 64.2557 844.946 77.0259 845.62 78.975C846.36 81.1166 857.54 86.2984 857.54 88.9437C857.54 88.9724 857.538 89.0005 857.536 89.0286C857.538 89.0005 857.54 88.9724 857.54 88.9437ZM857.534 89.0421C857.534 89.0426 857.534 89.0432 857.534 89.0437C857.534 89.0432 857.534 89.0426 857.534 89.0421ZM857.529 89.0812C857.529 89.0817 857.529 89.0817 857.529 89.0822C857.529 89.0817 857.529 89.0817 857.529 89.0812ZM857.529 89.0879C857.528 89.089 857.528 89.0896 857.528 89.0901C857.528 89.0896 857.529 89.0885 857.529 89.0879ZM857.528 89.0953C857.528 89.0964 857.526 89.0969 857.526 89.0978C857.526 89.0969 857.528 89.0964 857.528 89.0953ZM857.526 89.1021C857.526 89.103 857.525 89.1041 857.525 89.1057C857.525 89.1041 857.526 89.103 857.526 89.1021ZM857.525 89.1083C857.525 89.1098 857.524 89.1119 857.524 89.1135C857.524 89.1119 857.525 89.1098 857.525 89.1083ZM857.524 89.1139C857.524 89.1166 857.522 89.1187 857.522 89.1213C857.522 89.1187 857.524 89.1166 857.524 89.1139ZM857.522 89.1239C857.521 89.1254 857.521 89.127 857.521 89.1291C857.521 89.1275 857.521 89.1254 857.522 89.1239ZM857.52 89.1327C857.52 89.1343 857.52 89.1354 857.52 89.1369C857.52 89.1354 857.52 89.1338 857.52 89.1327ZM857.518 89.139C857.518 89.1437 857.517 89.1484 857.516 89.1526C857.517 89.1478 857.518 89.1437 857.518 89.139ZM857.516 89.1535C857.516 89.1557 857.514 89.1584 857.514 89.1604C857.514 89.1584 857.516 89.1557 857.516 89.1535ZM857.513 89.162C857.513 89.164 857.513 89.1661 857.512 89.1682C857.513 89.1661 857.513 89.164 857.513 89.162ZM857.512 89.1693C857.512 89.1713 857.51 89.174 857.51 89.176C857.51 89.174 857.512 89.1713 857.512 89.1693ZM857.51 89.177C857.509 89.1792 857.509 89.1817 857.508 89.1843C857.509 89.1817 857.509 89.1797 857.51 89.177ZM857.508 89.1843C856.817 91.8109 845.088 96.1822 843.681 98.1297C843.682 98.1306 843.682 98.1322 843.684 98.1333C845.07 96.189 856.817 91.8135 857.508 89.1843V89.1843ZM841.025 63.2458C837.836 64.0775 829.23 72.7166 827.858 72.825C825.817 72.9859 814.708 69.9671 812.078 71.8729C814.708 69.9671 825.817 72.9859 827.858 72.8254C829.23 72.7166 837.836 64.0775 841.025 63.2458V63.2458ZM811.657 72.3483C811.654 72.353 811.653 72.3578 811.65 72.3625C811.653 72.3578 811.654 72.353 811.657 72.3483Z" fill="#D6D9C1"/>
<path d="M857.54 88.9437C857.54 86.2984 846.36 81.1166 845.62 78.975C844.946 77.0259 843.978 64.2557 841.813 63.2494C841.714 63.203 841.597 63.1812 841.466 63.1812C841.334 63.1812 841.186 63.2035 841.025 63.2458C837.836 64.0775 829.23 72.7166 827.858 72.8254C825.817 72.9859 814.708 69.9671 812.078 71.8729C811.894 72.0062 811.752 72.1639 811.657 72.3483C811.654 72.353 811.653 72.3578 811.65 72.3625C811.649 72.3639 811.649 72.3656 811.648 72.3672C811.604 72.4636 811.584 72.5947 811.584 72.7562C811.584 73.1057 811.68 73.5973 811.845 74.189C823.754 77.012 835.142 84.5786 841.689 94.501C842.47 95.6863 843.109 96.9016 843.681 98.1297C845.088 96.1822 856.817 91.8109 857.508 89.1843C857.509 89.1817 857.509 89.1792 857.51 89.177C857.51 89.1765 857.51 89.1765 857.51 89.176C857.51 89.174 857.512 89.1713 857.512 89.1693C857.512 89.1688 857.512 89.1688 857.512 89.1682C857.513 89.1661 857.513 89.164 857.513 89.162C857.513 89.162 857.514 89.1609 857.514 89.1604C857.514 89.1584 857.516 89.1557 857.516 89.1535C857.516 89.153 857.516 89.153 857.516 89.1526C857.517 89.1484 857.518 89.1437 857.518 89.139C857.518 89.1385 857.52 89.1374 857.52 89.1369C857.52 89.1354 857.52 89.1343 857.52 89.1327C857.521 89.1311 857.521 89.1302 857.521 89.1291C857.521 89.127 857.521 89.1254 857.522 89.1239C857.522 89.1229 857.522 89.1223 857.522 89.1213C857.522 89.1187 857.524 89.1166 857.524 89.1139L857.524 89.1135C857.524 89.1119 857.525 89.1098 857.525 89.1083C857.525 89.1073 857.525 89.1068 857.525 89.1057C857.525 89.1041 857.526 89.103 857.526 89.1021C857.526 89.1005 857.526 89.0989 857.526 89.0978C857.526 89.0969 857.528 89.0964 857.528 89.0953C857.528 89.0937 857.528 89.0921 857.528 89.0901C857.528 89.0896 857.528 89.089 857.529 89.0879C857.529 89.0859 857.529 89.0844 857.529 89.0822C857.529 89.0817 857.529 89.0817 857.529 89.0812C857.532 89.0688 857.533 89.0562 857.534 89.0437C857.534 89.0432 857.534 89.0426 857.534 89.0421C857.536 89.0374 857.536 89.0333 857.536 89.0286C857.538 89.0005 857.54 88.9724 857.54 88.9437" fill="#F57715"/>
<path d="M827.713 99.1015C827.713 98.5473 827.35 97.9942 826.626 97.9802C823.661 97.9239 820.726 98.1879 817.792 98.6035C817.232 98.6822 816.98 99.1583 816.98 99.6521C816.98 100.281 817.389 100.938 818.096 100.844C820.929 100.464 823.77 100.303 826.626 100.231C827.35 100.212 827.713 99.6562 827.713 99.1015" fill="#F8A60D"/>
<path d="M837.125 105.856C837.125 105.602 837.041 105.336 836.841 105.092C835.572 103.532 834.081 102.153 832.573 100.828C831.73 100.089 830.586 100.845 830.586 101.688C830.586 101.947 830.694 102.215 830.952 102.449C832.445 103.805 833.814 105.272 835.236 106.698C836.058 107.523 837.125 106.759 837.125 105.856" fill="#F8A60D"/>
<path d="M1192.06 459.18C1193.52 458.857 1202.1 447.253 1204.35 447.937C1206.59 448.621 1209.29 460.932 1210.21 462.74C1211.24 464.747 1223.08 468.317 1223.2 470.903C1223.32 473.485 1211.98 479.585 1210.93 481.695C1209.93 483.72 1211.15 495.872 1208.72 496.276C1205.06 496.883 1197.16 489.524 1195.4 489.097C1193.26 488.576 1182.79 493.003 1180.49 491.081C1178.96 489.809 1180.36 485.296 1181.75 481.389C1182.74 478.593 1183.74 476.109 1183.66 475.344C1183.51 473.761 1175.62 462.623 1176.21 460.935C1177.24 457.989 1189.95 459.647 1192.06 459.18" fill="#F68A11"/>
<path d="M1223.2 470.894C1223.2 470.893 1223.2 470.892 1223.2 470.892C1223.2 470.892 1223.2 470.893 1223.2 470.894ZM1223.2 470.885L1223.2 470.884L1223.2 470.885ZM1183.58 476.048C1183.57 476.048 1183.57 476.046 1183.57 476.046C1183 478.534 1179.82 485.421 1179.82 489.08C1179.82 489.925 1179.99 490.598 1180.41 491.004C1180 490.598 1179.83 489.926 1179.83 489.082C1179.83 487.073 1180.79 484.086 1181.75 481.389C1182.53 479.185 1183.31 477.174 1183.58 476.048V476.048ZM1180.42 491.014C1180.41 491.013 1180.41 491.012 1180.41 491.01C1180.41 491.012 1180.41 491.013 1180.42 491.014Z" fill="#C7D3C3"/>
<path d="M1223.2 470.943C1223.2 470.929 1223.2 470.916 1223.2 470.903C1223.2 470.9 1223.2 470.897 1223.2 470.895C1223.2 470.893 1223.2 470.892 1223.2 470.892C1223.2 470.889 1223.2 470.887 1223.2 470.885L1223.2 470.884C1223.17 470.509 1222.88 470.115 1222.44 469.707C1210.82 475.516 1196.74 477.377 1183.58 476.048C1183.31 477.175 1182.53 479.185 1181.75 481.389C1180.79 484.087 1179.83 487.073 1179.83 489.083C1179.83 489.927 1180 490.599 1180.41 491.004C1180.41 491.007 1180.41 491.008 1180.41 491.011C1180.41 491.012 1180.41 491.013 1180.42 491.015C1180.44 491.037 1180.46 491.06 1180.49 491.081C1180.9 491.427 1181.58 491.567 1182.43 491.568C1186.02 491.571 1192.65 489.056 1194.96 489.055C1195.13 489.055 1195.28 489.068 1195.4 489.097C1197.08 489.508 1204.44 496.305 1208.26 496.312C1208.42 496.312 1208.58 496.3 1208.72 496.276C1211.15 495.872 1209.93 483.72 1210.93 481.695C1211.98 479.596 1223.2 473.549 1223.2 470.943" fill="#F57715"/>
<path d="M1204.77 454.1C1204.77 453.011 1203.38 452.052 1202.41 453.061C1201.52 453.989 1200.63 454.912 1199.77 455.871C1199.51 456.164 1199.4 456.487 1199.4 456.796C1199.4 457.869 1200.73 458.788 1201.72 457.813C1202.63 456.909 1203.5 455.968 1204.38 455.029C1204.66 454.739 1204.77 454.413 1204.77 454.1" fill="#F8A60D"/>
<path d="M1199.7 459.351C1199.7 458.303 1198.35 457.396 1197.36 458.332C1195.95 459.655 1194.4 460.777 1192.93 462.015C1192.62 462.272 1192.5 462.575 1192.5 462.873C1192.5 463.745 1193.59 464.572 1194.53 464.084C1196.33 463.14 1197.89 461.728 1199.3 460.275C1199.58 459.984 1199.7 459.661 1199.7 459.351Z" fill="#F8A60D"/>
<path d="M1188.69 464.97C1188.69 464.433 1188.39 463.916 1187.7 463.746C1186.34 463.413 1184.97 463.122 1183.61 462.813C1182.56 462.576 1181.88 463.446 1181.88 464.265C1181.88 464.808 1182.18 465.328 1182.87 465.486C1184.23 465.801 1185.59 466.133 1186.96 466.42C1188 466.641 1188.69 465.782 1188.69 464.97" fill="#F8A60D"/>
<path d="M898.764 248.887C899.592 248.871 905.548 243.491 906.697 244.111C907.846 244.731 907.96 251.737 908.265 252.824C908.602 254.029 914.666 257.28 914.446 258.701C914.226 260.123 907.377 262.2 906.574 263.235C905.802 264.228 905.129 270.987 903.764 270.94C901.702 270.868 898.201 265.988 897.293 265.561C896.184 265.041 889.99 266.304 888.946 265.004C887.761 263.525 892.302 257.793 892.408 256.773C892.45 256.361 891.796 254.615 891.141 252.788C890.401 250.721 889.661 248.553 889.929 248.1C890.813 246.608 897.564 248.911 898.764 248.887" fill="#E91779"/>
<path d="M906.569 263.24C906.569 263.242 906.569 263.242 906.569 263.242C906.569 263.242 906.569 263.242 906.569 263.24ZM906.565 263.247C906.565 263.247 906.565 263.248 906.564 263.248C906.565 263.247 906.565 263.247 906.565 263.247ZM906.561 263.252C906.561 263.252 906.56 263.254 906.56 263.255C906.56 263.254 906.561 263.252 906.561 263.252ZM906.558 263.256C906.409 263.464 906.264 263.884 906.116 264.426L906.116 264.427C906.264 263.888 906.409 263.463 906.558 263.256ZM906.466 244.062C904.91 244.063 899.546 248.872 898.762 248.887C898.756 248.888 898.749 248.888 898.741 248.888C898.749 248.888 898.756 248.888 898.764 248.887C899.546 248.872 904.912 244.063 906.466 244.062ZM891.46 247.596C890.806 247.598 890.293 247.703 890.029 247.971C890.293 247.703 890.806 247.598 891.46 247.596Z" fill="#C6AADB"/>
<path d="M914.452 258.624C914.452 257.166 908.597 254.008 908.265 252.824C907.96 251.738 907.846 244.731 906.697 244.111C906.634 244.078 906.557 244.062 906.466 244.062C904.912 244.063 899.546 248.872 898.764 248.887C898.756 248.888 898.749 248.888 898.741 248.888C897.796 248.886 893.761 247.594 891.46 247.596C890.806 247.598 890.293 247.703 890.029 247.971C889.99 248.011 889.957 248.054 889.929 248.1L889.88 248.311C898.212 250.83 904.158 256.735 906.116 264.426C906.264 263.884 906.409 263.464 906.558 263.256L906.56 263.255C906.56 263.254 906.561 263.252 906.561 263.252C906.562 263.251 906.564 263.25 906.564 263.248C906.565 263.248 906.565 263.247 906.565 263.247C906.566 263.246 906.568 263.243 906.569 263.242C906.569 263.242 906.569 263.242 906.569 263.24C906.572 263.239 906.573 263.238 906.574 263.235C907.377 262.2 914.226 260.123 914.446 258.702C914.45 258.676 914.452 258.651 914.452 258.624" fill="#E21465"/>
<path d="M897.662 263.171C897.662 262.82 897.427 262.453 896.973 262.408C895.505 262.261 894.007 262.348 892.541 262.48C892.091 262.521 891.863 262.893 891.863 263.245C891.863 263.593 892.087 263.924 892.541 263.891C894.022 263.787 895.49 263.833 896.973 263.839C897.438 263.84 897.662 263.513 897.662 263.171Z" fill="#EF269D"/>
<path d="M901.342 265.422C901.342 265.26 901.282 265.089 901.138 264.936C900.784 264.558 900.417 264.193 900.053 263.825C899.545 263.312 898.826 263.802 898.826 264.362C898.826 264.525 898.888 264.694 899.032 264.845C899.39 265.22 899.745 265.596 900.112 265.961C900.628 266.473 901.342 265.985 901.342 265.422Z" fill="#EF269D"/>
<path d="M903.7 267.951C903.7 267.843 903.669 267.735 903.602 267.636C903.333 267.239 902.948 266.948 902.653 266.568C902.236 266.031 901.41 266.532 901.41 267.095C901.41 267.209 901.445 267.327 901.525 267.439C901.881 267.94 902.254 268.409 902.854 268.609C903.278 268.752 903.7 268.356 903.7 267.951" fill="#EF269D"/>
<path d="M979.151 388.826C979.979 388.81 985.935 383.43 987.085 384.05C988.234 384.67 988.347 391.676 988.653 392.763C988.99 393.968 995.054 397.219 994.834 398.64C994.614 400.062 987.765 402.139 986.962 403.174C986.19 404.167 985.517 410.926 984.151 410.879C982.09 410.807 978.589 405.927 977.681 405.5C976.571 404.98 970.378 406.243 969.334 404.943C968.149 403.464 972.69 397.732 972.795 396.712C972.838 396.3 972.183 394.554 971.529 392.727C970.789 390.66 970.049 388.492 970.317 388.039C971.201 386.547 977.951 388.85 979.151 388.826" fill="#E91779"/>
<path d="M986.957 403.179C986.957 403.18 986.957 403.181 986.957 403.181C986.957 403.181 986.957 403.18 986.957 403.179ZM986.953 403.186C986.953 403.186 986.953 403.187 986.951 403.187C986.953 403.186 986.953 403.186 986.953 403.186ZM986.949 403.191C986.949 403.191 986.947 403.192 986.947 403.194C986.947 403.192 986.949 403.191 986.949 403.191ZM986.946 403.195C986.797 403.403 986.651 403.823 986.503 404.364L986.503 404.366C986.651 403.827 986.797 403.402 986.946 403.195ZM986.854 384C985.298 384.002 979.934 388.811 979.15 388.826C979.143 388.827 979.137 388.827 979.129 388.827C979.137 388.827 979.143 388.827 979.151 388.826C979.934 388.811 985.299 384.002 986.854 384ZM971.847 387.535C971.194 387.536 970.681 387.642 970.417 387.91C970.681 387.642 971.194 387.536 971.847 387.535Z" fill="#C6AADB"/>
<path d="M994.839 398.563C994.839 397.104 988.985 393.947 988.653 392.763C988.347 391.676 988.234 384.67 987.085 384.05C987.022 384.016 986.945 384 986.854 384C985.299 384.002 979.934 388.811 979.151 388.826C979.143 388.827 979.137 388.827 979.129 388.827C978.183 388.824 974.149 387.532 971.847 387.535C971.194 387.536 970.681 387.642 970.417 387.91C970.378 387.95 970.345 387.992 970.317 388.039L970.267 388.25C978.599 390.768 984.546 396.674 986.503 404.364C986.651 403.823 986.797 403.403 986.946 403.195L986.947 403.194C986.947 403.192 986.949 403.191 986.949 403.191C986.95 403.19 986.951 403.189 986.951 403.187C986.953 403.187 986.953 403.186 986.953 403.186C986.954 403.185 986.955 403.182 986.957 403.18C986.957 403.18 986.957 403.18 986.957 403.179C986.959 403.178 986.961 403.176 986.962 403.174C987.765 402.139 994.614 400.062 994.834 398.64C994.838 398.615 994.839 398.59 994.839 398.563" fill="#E21465"/>
<path d="M978.05 403.11C978.05 402.759 977.815 402.392 977.36 402.347C975.892 402.2 974.395 402.287 972.928 402.419C972.479 402.46 972.251 402.832 972.251 403.184C972.251 403.532 972.475 403.863 972.928 403.83C974.41 403.726 975.878 403.772 977.36 403.778C977.826 403.779 978.05 403.452 978.05 403.11Z" fill="#EF269D"/>
<path d="M981.73 405.361C981.73 405.199 981.67 405.028 981.526 404.875C981.171 404.497 980.805 404.132 980.441 403.764C979.933 403.251 979.214 403.741 979.214 404.301C979.214 404.464 979.275 404.633 979.419 404.784C979.778 405.159 980.133 405.535 980.499 405.9C981.015 406.412 981.73 405.924 981.73 405.361Z" fill="#EF269D"/>
<path d="M984.087 407.89C984.087 407.782 984.057 407.674 983.99 407.575C983.721 407.178 983.335 406.887 983.041 406.507C982.623 405.97 981.798 406.471 981.798 407.034C981.798 407.148 981.833 407.266 981.913 407.378C982.269 407.879 982.642 408.348 983.242 408.548C983.666 408.691 984.087 408.295 984.087 407.89" fill="#EF269D"/>
<path d="M700.582 200.859C701.284 200.764 705.801 195.619 706.836 196.031C707.872 196.443 708.657 202.369 709.022 203.261C709.426 204.249 714.886 206.408 714.84 207.635C714.793 208.861 709.192 211.295 708.613 212.251C708.057 213.168 708.152 218.963 706.989 219.056C705.236 219.199 701.789 215.407 700.977 215.136C699.985 214.804 694.861 216.481 693.849 215.483C693.189 214.831 693.988 212.807 694.788 211.035C695.382 209.719 695.977 208.54 695.973 208.168C695.964 207.415 692.673 201.835 693.018 201.061C693.621 199.709 699.569 200.996 700.582 200.859" fill="#E91779"/>
<path d="M714.84 207.619C714.839 206.389 709.425 204.245 709.023 203.261C708.657 202.369 707.872 196.443 706.836 196.031C706.796 196.015 706.751 196.007 706.699 196.007C706.751 196.007 706.796 196.015 706.836 196.031C707.872 196.443 708.657 202.369 709.023 203.261C709.425 204.245 714.839 206.389 714.84 207.619C714.84 207.624 714.84 207.629 714.84 207.635C714.839 207.637 714.838 207.639 714.838 207.642C714.838 207.639 714.839 207.637 714.84 207.635C714.84 207.629 714.84 207.624 714.84 207.619ZM714.838 207.643C714.838 207.647 714.839 207.652 714.837 207.656C714.839 207.652 714.838 207.647 714.838 207.643ZM714.837 207.656C714.763 208.491 712.201 209.865 710.376 210.96C710.376 210.961 710.376 210.961 710.376 210.961C712.203 209.865 714.763 208.491 714.837 207.656ZM693.018 201.061C693.018 201.064 693.017 201.067 693.016 201.068C693.017 201.067 693.018 201.064 693.018 201.061Z" fill="#C6A7DA"/>
<path d="M714.84 207.619C714.839 206.389 709.425 204.245 709.023 203.261C708.657 202.369 707.872 196.443 706.836 196.031C706.796 196.015 706.751 196.007 706.699 196.007C705.453 196.014 701.256 200.768 700.582 200.859C700.529 200.867 700.461 200.869 700.382 200.869C699.485 200.869 697.031 200.439 695.189 200.437C694.104 200.437 693.23 200.585 693.018 201.061C693.018 201.064 693.017 201.067 693.016 201.068C693.001 201.105 692.993 201.153 692.993 201.211C692.993 201.551 693.248 202.227 693.607 203.027C699.723 204.416 705.776 206.716 710.376 210.961C712.201 209.865 714.763 208.491 714.837 207.656C714.839 207.652 714.838 207.647 714.838 207.643L714.838 207.642C714.838 207.639 714.839 207.637 714.84 207.635C714.84 207.629 714.84 207.624 714.84 207.619" fill="#E21365"/>
<path d="M701.132 213.175C701.132 212.923 700.944 212.665 700.623 212.629C699.48 212.503 698.132 212.896 697.02 213.143C696.737 213.205 696.616 213.41 696.616 213.623C696.616 213.95 696.896 214.3 697.317 214.223C698.432 214.019 699.692 214.012 700.761 213.652C701.017 213.567 701.132 213.372 701.132 213.175Z" fill="#EF269D"/>
<path d="M705.322 215.408C705.322 215.323 705.292 215.233 705.221 215.141C704.733 214.503 704.012 214.021 703.437 213.453C703.037 213.057 702.473 213.441 702.473 213.875C702.473 214.003 702.521 214.135 702.638 214.252C703.182 214.801 703.806 215.525 704.52 215.844C704.842 215.988 705.322 215.745 705.322 215.408Z" fill="#EF269D"/>
<path d="M1214.92 223.312C1215.53 223.027 1218.13 217.096 1219.18 217.172C1220.23 217.249 1222.63 222.368 1223.22 223.068C1223.86 223.844 1229.4 224.232 1229.71 225.351C1230.02 226.469 1225.67 230.264 1225.42 231.291C1225.32 231.703 1225.56 232.849 1225.81 234.075C1226.15 235.785 1226.49 237.649 1225.89 237.892C1224.35 238.521 1220.16 236.085 1219.35 236.073C1218.36 236.057 1214.22 239.033 1213.02 238.421C1212.18 237.989 1212.42 235.611 1212.66 233.687C1212.8 232.517 1212.95 231.516 1212.85 231.219C1212.63 230.543 1208.07 226.451 1208.16 225.655C1208.32 224.263 1214.05 223.725 1214.92 223.312" fill="#E91779"/>
<path d="M1229.73 225.473C1229.73 226.724 1225.66 230.298 1225.42 231.29C1225.4 231.356 1225.39 231.438 1225.39 231.537C1225.39 231.77 1225.43 232.09 1225.5 232.464C1225.43 232.09 1225.39 231.769 1225.39 231.537C1225.39 231.438 1225.4 231.356 1225.42 231.29C1225.66 230.298 1229.73 226.724 1229.73 225.473Z" fill="#D4AADA"/>
<path d="M1229.73 225.473C1229.73 225.435 1229.72 225.399 1229.72 225.364C1229.72 225.36 1229.71 225.355 1229.71 225.351C1229.4 224.232 1223.87 223.844 1223.22 223.068C1222.63 222.368 1220.23 217.249 1219.18 217.172C1219.18 217.172 1219.17 217.172 1219.16 217.172C1218.1 217.165 1215.52 223.028 1214.92 223.312C1214.46 223.531 1212.65 223.784 1211.01 224.179C1217.14 226.017 1222.56 229.653 1225.93 234.732C1225.78 233.932 1225.61 233.117 1225.5 232.464C1225.43 232.091 1225.39 231.771 1225.39 231.537C1225.39 231.439 1225.4 231.356 1225.42 231.291C1225.66 230.299 1229.73 226.724 1229.73 225.473" fill="#E21365"/>
<path d="M1215.65 232.428C1215.65 231.969 1215.61 231.511 1215.55 231.045C1215.47 230.441 1214.45 230.567 1214.45 231.137C1214.45 231.156 1214.45 231.175 1214.46 231.193C1214.49 231.533 1214.51 231.871 1214.51 232.207C1214.51 232.728 1214.47 233.247 1214.38 233.769C1214.37 233.808 1214.36 233.847 1214.36 233.884C1214.36 234.531 1215.37 234.773 1215.5 234.077C1215.6 233.523 1215.65 232.976 1215.65 232.428" fill="#EF269D"/>
<path d="M1214.5 229.16C1214.5 229.029 1214.45 228.9 1214.33 228.798C1213.83 228.385 1213.31 227.994 1212.8 227.596C1212.36 227.26 1211.79 227.633 1211.79 228.033C1211.79 228.161 1211.85 228.292 1211.99 228.402C1212.54 228.834 1213.08 229.274 1213.64 229.69C1214.03 229.98 1214.5 229.56 1214.5 229.16Z" fill="#EF269D"/>
<path d="M685.14 600.676C688.562 596.089 696.32 601.453 692.174 606.396C688.153 611.189 681.274 605.855 685.14 600.676Z" fill="#E91779"/>
<path d="M1212.28 373.743C1215.7 369.157 1223.46 374.521 1219.31 379.463C1215.29 384.257 1208.41 378.922 1212.28 373.743Z" fill="#E91779"/>
</svg>
