<svg width="30" height="30" viewBox="0 0 30 30" fill="none" xmlns="http://www.w3.org/2000/svg">
<circle cx="15" cy="15" r="15" fill="white"/>
<circle cx="15" cy="15" r="12.45" fill="white" stroke="#ACACAC" stroke-width="1.1"/>
<path d="M20.9639 12.5262C20.9347 11.8876 20.8333 11.4514 20.685 11.0698C20.5344 10.6695 20.2982 10.3068 19.9929 10.0071C19.6933 9.70184 19.3305 9.46555 18.9302 9.31485C18.5485 9.16663 18.1124 9.06528 17.4738 9.03625C16.8339 9.00696 16.6295 9 15 9C13.3705 9 13.1661 9.00696 12.5262 9.03607C11.8876 9.06528 11.4515 9.16672 11.0698 9.31503C10.6695 9.46564 10.3068 9.70184 10.0071 10.0071C9.70184 10.3067 9.46555 10.6694 9.31485 11.0697C9.16663 11.4514 9.06528 11.8876 9.03625 12.5262C9.00696 13.1661 9 13.3705 9 14.9999C9 16.6295 9.00696 16.8339 9.03625 17.4738C9.06537 18.1123 9.16681 18.5485 9.31512 18.9302C9.46573 19.3304 9.70193 19.6932 10.0072 19.9928C10.3068 20.2981 10.6696 20.5343 11.0699 20.6849C11.4515 20.8333 11.8877 20.9346 12.5263 20.9638C13.1663 20.993 13.3706 20.9999 15.0001 20.9999C16.6295 20.9999 16.834 20.993 17.4738 20.9638C18.1125 20.9346 18.5486 20.8333 18.9303 20.6849C19.7362 20.3732 20.3733 19.7361 20.685 18.9302C20.8334 18.5485 20.9347 18.1123 20.9639 17.4738C20.993 16.8338 21 16.6295 21 15C21 13.3705 20.993 13.1661 20.9639 12.5262ZM19.8839 17.4246C19.8572 18.0096 19.7595 18.3273 19.6773 18.5387C19.4755 19.062 19.0619 19.4756 18.5386 19.6774C18.3272 19.7596 18.0095 19.8573 17.4245 19.884C16.792 19.9129 16.6022 19.9189 15 19.9189C13.3977 19.9189 13.208 19.9129 12.5754 19.884C11.9905 19.8573 11.6728 19.7596 11.4613 19.6774C11.2007 19.5812 10.965 19.4279 10.7715 19.2285C10.5721 19.035 10.4188 18.7993 10.3226 18.5387C10.2404 18.3273 10.1427 18.0096 10.116 17.4246C10.0872 16.792 10.0811 16.6022 10.0811 15.0001C10.0811 13.3979 10.0872 13.2082 10.116 12.5755C10.1428 11.9905 10.2404 11.6728 10.3226 11.4614C10.4188 11.2007 10.5722 10.965 10.7715 10.7715C10.965 10.5721 11.2007 10.4188 11.4614 10.3227C11.6728 10.2404 11.9905 10.1428 12.5755 10.116C13.2081 10.0872 13.3979 10.0811 15 10.0811H14.9999C16.602 10.0811 16.7918 10.0872 17.4245 10.1161C18.0095 10.1428 18.3271 10.2405 18.5386 10.3227C18.7992 10.4189 19.0349 10.5722 19.2285 10.7715C19.4278 10.965 19.5811 11.2007 19.6772 11.4614C19.7595 11.6728 19.8572 11.9905 19.8839 12.5755C19.9127 13.2081 19.9189 13.3979 19.9189 15C19.9189 16.6022 19.9128 16.7919 19.8839 17.4246Z" fill="url(#paint0_linear)"/>
<path d="M15 11.9189C13.2984 11.9189 11.9189 13.2984 11.9189 15C11.9189 16.7016 13.2984 18.081 15 18.081C16.7017 18.081 18.0811 16.7016 18.0811 15C18.0811 13.2984 16.7017 11.9189 15 11.9189ZM15 17C13.8955 16.9999 13 16.1045 13.0001 14.9999C13.0001 13.8954 13.8955 12.9999 15.0001 12.9999C16.1046 13 17 13.8954 17 14.9999C17 16.1045 16.1046 17 15 17Z" fill="url(#paint1_linear)"/>
<path d="M18.9227 11.7972C18.9227 12.1948 18.6003 12.5172 18.2027 12.5172C17.805 12.5172 17.4827 12.1948 17.4827 11.7972C17.4827 11.3995 17.805 11.0771 18.2027 11.0771C18.6003 11.0771 18.9227 11.3995 18.9227 11.7972Z" fill="url(#paint2_linear)"/>
<defs>
<linearGradient id="paint0_linear" x1="10.007" y1="19.9929" x2="19.993" y2="10.0069" gradientUnits="userSpaceOnUse">
<stop stop-color="#FFD600"/>
<stop offset="0.5" stop-color="#FF0100"/>
<stop offset="1" stop-color="#D800B9"/>
</linearGradient>
<linearGradient id="paint1_linear" x1="12.8214" y1="17.1786" x2="17.1787" y2="12.8213" gradientUnits="userSpaceOnUse">
<stop stop-color="#FF6400"/>
<stop offset="0.5" stop-color="#FF0100"/>
<stop offset="1" stop-color="#FD0056"/>
</linearGradient>
<linearGradient id="paint2_linear" x1="17.6936" y1="12.3063" x2="18.7118" y2="11.2881" gradientUnits="userSpaceOnUse">
<stop stop-color="#F30072"/>
<stop offset="1" stop-color="#E50097"/>
</linearGradient>
</defs>
</svg>
