<svg width="29" height="29" viewBox="0 0 29 29" fill="none" xmlns="http://www.w3.org/2000/svg">
<path d="M28.9128 8.52176C28.8422 6.9783 28.5971 5.92426 28.2387 5.00208C27.8747 4.03454 27.3039 3.15816 26.5662 2.43378C25.8421 1.69612 24.9655 1.12507 23.9979 0.760887C23.0755 0.402679 22.0217 0.157753 20.4782 0.087616C18.9319 0.0168152 18.4379 0 14.5 0C10.5621 0 10.0681 0.0168152 8.52176 0.0871734C6.9783 0.157753 5.92448 0.402901 5.00208 0.76133C4.03454 1.12529 3.15816 1.69612 2.43378 2.43378C1.69612 3.15794 1.12507 4.03432 0.760887 5.00185C0.402679 5.92426 0.157753 6.9783 0.087616 8.52154C0.0168152 10.0681 0 10.5619 0 14.4998C0 18.4379 0.0168152 18.9319 0.087616 20.4782C0.157974 22.0215 0.403122 23.0755 0.761551 23.9979C1.12551 24.9652 1.69634 25.8418 2.434 26.566C3.15816 27.3037 4.03476 27.8745 5.0023 28.2384C5.92448 28.5971 6.97852 28.842 8.52198 28.9126C10.0685 28.9832 10.5624 28.9998 14.5002 28.9998C18.4381 28.9998 18.9321 28.9832 20.4785 28.9126C22.0219 28.842 23.0757 28.5971 23.9981 28.2384C25.9458 27.4853 27.4855 25.9456 28.2387 23.9979C28.5973 23.0755 28.8422 22.0215 28.9128 20.4782C28.9832 18.9317 29 18.4379 29 14.5C29 10.5619 28.9832 10.0681 28.9128 8.52176V8.52176ZM26.3027 20.3594C26.2383 21.7732 26.002 22.541 25.8036 23.0518C25.3157 24.3165 24.3163 25.3159 23.0516 25.8038C22.5408 26.0023 21.773 26.2385 20.3592 26.3029C18.8306 26.3728 18.3719 26.3875 14.5 26.3875C10.6279 26.3875 10.1694 26.3728 8.64057 26.3029C7.22699 26.2385 6.45924 26.0023 5.94815 25.8038C5.31847 25.5713 4.74874 25.2007 4.28101 24.719C3.79935 24.2513 3.42875 23.6818 3.19621 23.0518C2.99775 22.541 2.76145 21.7732 2.69707 20.3594C2.62737 18.8306 2.61255 18.3719 2.61255 14.5002C2.61255 10.6283 2.62737 10.1699 2.69707 8.64079C2.76167 7.22699 2.99775 6.45924 3.19621 5.94837C3.42875 5.31847 3.79957 4.74874 4.28101 4.28101C4.74874 3.79935 5.31847 3.42875 5.94837 3.19643C6.45924 2.99775 7.22699 2.76167 8.64079 2.69707C10.1696 2.62737 10.6283 2.61255 14.5 2.61255H14.4998C18.3715 2.61255 18.8301 2.62737 20.3592 2.69729C21.773 2.76167 22.5405 2.99797 23.0516 3.19643C23.6813 3.42897 24.251 3.79957 24.7188 4.28101C25.2004 4.74874 25.571 5.31847 25.8033 5.94837C26.002 6.45924 26.2383 7.22699 26.3027 8.64079C26.3724 10.1696 26.3872 10.6283 26.3872 14.5C26.3872 18.3719 26.3726 18.8304 26.3027 20.3594Z" fill="#EE2A2A"/>
<path d="M14.4998 7.05396C10.3876 7.05396 7.05396 10.3878 7.05396 14.5C7.05396 18.6122 10.3876 21.9458 14.4998 21.9458C18.6122 21.9458 21.9458 18.6122 21.9458 14.5C21.9458 10.3878 18.6122 7.05396 14.4998 7.05396V7.05396ZM14.4998 19.3332C11.8306 19.333 9.6665 17.1692 9.66673 14.4998C9.66673 11.8306 11.8306 9.6665 14.5 9.6665C17.1694 9.66673 19.3332 11.8306 19.3332 14.4998C19.3332 17.1692 17.1692 19.3332 14.4998 19.3332V19.3332Z" fill="#EE2A2A"/>
<path d="M23.98 6.75993C23.98 7.72083 23.2009 8.49986 22.24 8.49986C21.2789 8.49986 20.4999 7.72083 20.4999 6.75993C20.4999 5.79881 21.2789 5.01978 22.24 5.01978C23.2009 5.01978 23.98 5.79881 23.98 6.75993V6.75993Z" fill="#EE2A2A"/>
</svg>
