<svg width="142" height="34" viewBox="0 0 142 34" fill="none" xmlns="http://www.w3.org/2000/svg">
<path d="M4.512 14.702H7.788V26H4.512V14.702ZM6.15 13.127C5.548 13.127 5.058 12.952 4.68 12.602C4.302 12.252 4.113 11.818 4.113 11.3C4.113 10.782 4.302 10.348 4.68 9.998C5.058 9.648 5.548 9.473 6.15 9.473C6.752 9.473 7.242 9.641 7.62 9.977C7.998 10.313 8.187 10.733 8.187 11.237C8.187 11.783 7.998 12.238 7.62 12.602C7.242 12.952 6.752 13.127 6.15 13.127ZM16.2044 26.168C15.0144 26.168 13.9434 25.923 12.9914 25.433C12.0534 24.929 11.3184 24.236 10.7864 23.354C10.2544 22.472 9.98841 21.471 9.98841 20.351C9.98841 19.231 10.2544 18.23 10.7864 17.348C11.3184 16.466 12.0534 15.78 12.9914 15.29C13.9434 14.786 15.0144 14.534 16.2044 14.534C17.3944 14.534 18.4584 14.786 19.3964 15.29C20.3344 15.78 21.0694 16.466 21.6014 17.348C22.1334 18.23 22.3994 19.231 22.3994 20.351C22.3994 21.471 22.1334 22.472 21.6014 23.354C21.0694 24.236 20.3344 24.929 19.3964 25.433C18.4584 25.923 17.3944 26.168 16.2044 26.168ZM16.2044 23.48C17.0444 23.48 17.7304 23.2 18.2624 22.64C18.8084 22.066 19.0814 21.303 19.0814 20.351C19.0814 19.399 18.8084 18.643 18.2624 18.083C17.7304 17.509 17.0444 17.222 16.2044 17.222C15.3644 17.222 14.6714 17.509 14.1254 18.083C13.5794 18.643 13.3064 19.399 13.3064 20.351C13.3064 21.303 13.5794 22.066 14.1254 22.64C14.6714 23.2 15.3644 23.48 16.2044 23.48ZM25.6846 26.168C25.1106 26.168 24.6276 25.972 24.2356 25.58C23.8436 25.188 23.6476 24.698 23.6476 24.11C23.6476 23.508 23.8436 23.025 24.2356 22.661C24.6276 22.283 25.1106 22.094 25.6846 22.094C26.2586 22.094 26.7416 22.283 27.1336 22.661C27.5256 23.025 27.7216 23.508 27.7216 24.11C27.7216 24.698 27.5256 25.188 27.1336 25.58C26.7416 25.972 26.2586 26.168 25.6846 26.168Z" fill="#F9F3F0"/>
<path d="M64.313 25.168C63.375 25.168 62.458 25.056 61.562 24.832C60.666 24.594 59.952 24.3 59.42 23.95L60.512 21.598C61.016 21.92 61.625 22.186 62.339 22.396C63.053 22.592 63.753 22.69 64.439 22.69C65.825 22.69 66.518 22.347 66.518 21.661C66.518 21.339 66.329 21.108 65.951 20.968C65.573 20.828 64.992 20.709 64.208 20.611C63.284 20.471 62.521 20.31 61.919 20.128C61.317 19.946 60.792 19.624 60.344 19.162C59.91 18.7 59.693 18.042 59.693 17.188C59.693 16.474 59.896 15.844 60.302 15.298C60.722 14.738 61.324 14.304 62.108 13.996C62.906 13.688 63.844 13.534 64.922 13.534C65.72 13.534 66.511 13.625 67.295 13.807C68.093 13.975 68.751 14.213 69.269 14.521L68.177 16.852C67.183 16.292 66.098 16.012 64.922 16.012C64.222 16.012 63.697 16.11 63.347 16.306C62.997 16.502 62.822 16.754 62.822 17.062C62.822 17.412 63.011 17.657 63.389 17.797C63.767 17.937 64.369 18.07 65.195 18.196C66.119 18.35 66.875 18.518 67.463 18.7C68.051 18.868 68.562 19.183 68.996 19.645C69.43 20.107 69.647 20.751 69.647 21.577C69.647 22.277 69.437 22.9 69.017 23.446C68.597 23.992 67.981 24.419 67.169 24.727C66.371 25.021 65.419 25.168 64.313 25.168ZM78.9553 24.454C78.6333 24.692 78.2343 24.874 77.7583 25C77.2963 25.112 76.8063 25.168 76.2883 25.168C74.9443 25.168 73.9013 24.825 73.1593 24.139C72.4313 23.453 72.0673 22.445 72.0673 21.115V16.474H70.3243V13.954H72.0673V11.203H75.3433V13.954H78.1573V16.474H75.3433V21.073C75.3433 21.549 75.4623 21.92 75.7002 22.186C75.9523 22.438 76.3023 22.564 76.7503 22.564C77.2683 22.564 77.7093 22.424 78.0733 22.144L78.9553 24.454ZM92.1762 13.702V25H89.0682V23.656C88.6342 24.146 88.1162 24.524 87.5142 24.79C86.9122 25.042 86.2612 25.168 85.5612 25.168C84.0772 25.168 82.9012 24.741 82.0332 23.887C81.1652 23.033 80.7312 21.766 80.7312 20.086V13.702H84.0072V19.603C84.0072 21.423 84.7702 22.333 86.2962 22.333C87.0802 22.333 87.7102 22.081 88.1862 21.577C88.6622 21.059 88.9002 20.296 88.9002 19.288V13.702H92.1762ZM106.719 9.418V25H103.59V23.698C102.778 24.678 101.602 25.168 100.062 25.168C98.9982 25.168 98.0322 24.93 97.1642 24.454C96.3102 23.978 95.6382 23.299 95.1482 22.417C94.6582 21.535 94.4132 20.513 94.4132 19.351C94.4132 18.189 94.6582 17.167 95.1482 16.285C95.6382 15.403 96.3102 14.724 97.1642 14.248C98.0322 13.772 98.9982 13.534 100.062 13.534C101.504 13.534 102.631 13.989 103.443 14.899V9.418H106.719ZM100.629 22.48C101.455 22.48 102.141 22.2 102.687 21.64C103.233 21.066 103.506 20.303 103.506 19.351C103.506 18.399 103.233 17.643 102.687 17.083C102.141 16.509 101.455 16.222 100.629 16.222C99.7892 16.222 99.0962 16.509 98.5502 17.083C98.0042 17.643 97.7312 18.399 97.7312 19.351C97.7312 20.303 98.0042 21.066 98.5502 21.64C99.0962 22.2 99.7892 22.48 100.629 22.48ZM109.751 13.702H113.027V25H109.751V13.702ZM111.389 12.127C110.787 12.127 110.297 11.952 109.919 11.602C109.541 11.252 109.352 10.818 109.352 10.3C109.352 9.782 109.541 9.348 109.919 8.998C110.297 8.648 110.787 8.473 111.389 8.473C111.991 8.473 112.481 8.641 112.859 8.977C113.237 9.313 113.426 9.733 113.426 10.237C113.426 10.783 113.237 11.238 112.859 11.602C112.481 11.952 111.991 12.127 111.389 12.127ZM121.444 25.168C120.254 25.168 119.183 24.923 118.231 24.433C117.293 23.929 116.558 23.236 116.026 22.354C115.494 21.472 115.228 20.471 115.228 19.351C115.228 18.231 115.494 17.23 116.026 16.348C116.558 15.466 117.293 14.78 118.231 14.29C119.183 13.786 120.254 13.534 121.444 13.534C122.634 13.534 123.698 13.786 124.636 14.29C125.574 14.78 126.309 15.466 126.841 16.348C127.373 17.23 127.639 18.231 127.639 19.351C127.639 20.471 127.373 21.472 126.841 22.354C126.309 23.236 125.574 23.929 124.636 24.433C123.698 24.923 122.634 25.168 121.444 25.168ZM121.444 22.48C122.284 22.48 122.97 22.2 123.502 21.64C124.048 21.066 124.321 20.303 124.321 19.351C124.321 18.399 124.048 17.643 123.502 17.083C122.97 16.509 122.284 16.222 121.444 16.222C120.604 16.222 119.911 16.509 119.365 17.083C118.819 17.643 118.546 18.399 118.546 19.351C118.546 20.303 118.819 21.066 119.365 21.64C119.911 22.2 120.604 22.48 121.444 22.48Z" fill="#EE2A2A"/>
<rect x="42" y="17" width="12" height="3" rx="1" fill="#EE2A2A"/>
</svg>
