<svg width="133" height="20" viewBox="0 0 133 20" fill="none" xmlns="http://www.w3.org/2000/svg">
<path d="M4.51204 6.70202H7.78804V18H4.51204V6.70202ZM6.15004 5.12702C5.54804 5.12702 5.05804 4.95202 4.68004 4.60202C4.30204 4.25202 4.11304 3.81802 4.11304 3.30002C4.11304 2.78202 4.30204 2.34802 4.68004 1.99802C5.05804 1.64802 5.54804 1.47302 6.15004 1.47302C6.75204 1.47302 7.24204 1.64102 7.62004 1.97702C7.99804 2.31302 8.18704 2.73302 8.18704 3.23702C8.18704 3.78302 7.99804 4.23802 7.62004 4.60202C7.24204 4.95202 6.75204 5.12702 6.15004 5.12702Z" fill="#F9F3F0"/>
<path d="M16.2044 18.168C15.0144 18.168 13.9434 17.923 12.9914 17.433C12.0534 16.929 11.3184 16.236 10.7864 15.354C10.2544 14.472 9.98844 13.471 9.98844 12.351C9.98844 11.231 10.2544 10.23 10.7864 9.34802C11.3184 8.46602 12.0534 7.78002 12.9914 7.29002C13.9434 6.78602 15.0144 6.53402 16.2044 6.53402C17.3944 6.53402 18.4584 6.78602 19.3964 7.29002C20.3344 7.78002 21.0694 8.46602 21.6014 9.34802C22.1334 10.23 22.3994 11.231 22.3994 12.351C22.3994 13.471 22.1334 14.472 21.6014 15.354C21.0694 16.236 20.3344 16.929 19.3964 17.433C18.4584 17.923 17.3944 18.168 16.2044 18.168ZM16.2044 15.48C17.0444 15.48 17.7304 15.2 18.2624 14.64C18.8084 14.066 19.0814 13.303 19.0814 12.351C19.0814 11.399 18.8084 10.643 18.2624 10.083C17.7304 9.50902 17.0444 9.22202 16.2044 9.22202C15.3644 9.22202 14.6714 9.50902 14.1254 10.083C13.5794 10.643 13.3064 11.399 13.3064 12.351C13.3064 13.303 13.5794 14.066 14.1254 14.64C14.6714 15.2 15.3644 15.48 16.2044 15.48Z" fill="#F9F3F0"/>
<path d="M25.6846 18.168C25.1106 18.168 24.6276 17.972 24.2356 17.58C23.8436 17.188 23.6476 16.698 23.6476 16.11C23.6476 15.508 23.8436 15.025 24.2356 14.661C24.6276 14.283 25.1106 14.094 25.6846 14.094C26.2586 14.094 26.7416 14.283 27.1336 14.661C27.5256 15.025 27.7216 15.508 27.7216 16.11C27.7216 16.698 27.5256 17.188 27.1336 17.58C26.7416 17.972 26.2586 18.168 25.6846 18.168Z" fill="#F9F3F0"/>
<path d="M64.313 18.168C63.375 18.168 62.458 18.056 61.562 17.832C60.666 17.594 59.952 17.3 59.42 16.95L60.512 14.598C61.016 14.92 61.625 15.186 62.339 15.396C63.053 15.592 63.753 15.69 64.439 15.69C65.825 15.69 66.518 15.347 66.518 14.661C66.518 14.339 66.329 14.108 65.951 13.968C65.573 13.828 64.992 13.709 64.208 13.611C63.284 13.471 62.521 13.31 61.919 13.128C61.317 12.946 60.792 12.624 60.344 12.162C59.91 11.7 59.693 11.042 59.693 10.188C59.693 9.47402 59.896 8.84402 60.302 8.29802C60.722 7.73802 61.324 7.30402 62.108 6.99602C62.906 6.68802 63.844 6.53402 64.922 6.53402C65.72 6.53402 66.511 6.62502 67.295 6.80702C68.093 6.97502 68.751 7.21302 69.269 7.52102L68.177 9.85202C67.183 9.29202 66.098 9.01202 64.922 9.01202C64.222 9.01202 63.697 9.11002 63.347 9.30602C62.997 9.50202 62.822 9.75402 62.822 10.062C62.822 10.412 63.011 10.657 63.389 10.797C63.767 10.937 64.369 11.07 65.195 11.196C66.119 11.35 66.875 11.518 67.463 11.7C68.051 11.868 68.562 12.183 68.996 12.645C69.43 13.107 69.647 13.751 69.647 14.577C69.647 15.277 69.437 15.9 69.017 16.446C68.597 16.992 67.981 17.419 67.169 17.727C66.371 18.021 65.419 18.168 64.313 18.168Z" fill="#EE2A2A"/>
<path d="M78.9553 17.454C78.6333 17.692 78.2343 17.874 77.7583 18C77.2963 18.112 76.8063 18.168 76.2883 18.168C74.9443 18.168 73.9013 17.825 73.1593 17.139C72.4313 16.453 72.0673 15.445 72.0673 14.115V9.47402H70.3243V6.95402H72.0673V4.20302H75.3433V6.95402H78.1573V9.47402H75.3433V14.073C75.3433 14.549 75.4623 14.92 75.7003 15.186C75.9523 15.438 76.3023 15.564 76.7503 15.564C77.2683 15.564 77.7093 15.424 78.0733 15.144L78.9553 17.454Z" fill="#EE2A2A"/>
<path d="M92.1763 6.70202V18H89.0683V16.656C88.6343 17.146 88.1163 17.524 87.5143 17.79C86.9123 18.042 86.2613 18.168 85.5613 18.168C84.0773 18.168 82.9013 17.741 82.0333 16.887C81.1653 16.033 80.7313 14.766 80.7313 13.086V6.70202H84.0073V12.603C84.0073 14.423 84.7703 15.333 86.2963 15.333C87.0803 15.333 87.7103 15.081 88.1863 14.577C88.6623 14.059 88.9003 13.296 88.9003 12.288V6.70202H92.1763Z" fill="#EE2A2A"/>
<path d="M106.719 2.41802V18H103.59V16.698C102.778 17.678 101.602 18.168 100.062 18.168C98.9983 18.168 98.0323 17.93 97.1643 17.454C96.3103 16.978 95.6383 16.299 95.1483 15.417C94.6583 14.535 94.4133 13.513 94.4133 12.351C94.4133 11.189 94.6583 10.167 95.1483 9.28502C95.6383 8.40302 96.3103 7.72402 97.1643 7.24802C98.0323 6.77202 98.9983 6.53402 100.062 6.53402C101.504 6.53402 102.631 6.98902 103.443 7.89902V2.41802H106.719ZM100.629 15.48C101.455 15.48 102.141 15.2 102.687 14.64C103.233 14.066 103.506 13.303 103.506 12.351C103.506 11.399 103.233 10.643 102.687 10.083C102.141 9.50902 101.455 9.22202 100.629 9.22202C99.7893 9.22202 99.0963 9.50902 98.5503 10.083C98.0043 10.643 97.7313 11.399 97.7313 12.351C97.7313 13.303 98.0043 14.066 98.5503 14.64C99.0963 15.2 99.7893 15.48 100.629 15.48Z" fill="#EE2A2A"/>
<path d="M109.751 6.70202H113.027V18H109.751V6.70202ZM111.389 5.12702C110.787 5.12702 110.297 4.95202 109.919 4.60202C109.541 4.25202 109.352 3.81802 109.352 3.30002C109.352 2.78202 109.541 2.34802 109.919 1.99802C110.297 1.64802 110.787 1.47302 111.389 1.47302C111.991 1.47302 112.481 1.64102 112.859 1.97702C113.237 2.31302 113.426 2.73302 113.426 3.23702C113.426 3.78302 113.237 4.23802 112.859 4.60202C112.481 4.95202 111.991 5.12702 111.389 5.12702Z" fill="#EE2A2A"/>
<path d="M121.444 18.168C120.254 18.168 119.183 17.923 118.231 17.433C117.293 16.929 116.558 16.236 116.026 15.354C115.494 14.472 115.228 13.471 115.228 12.351C115.228 11.231 115.494 10.23 116.026 9.34802C116.558 8.46602 117.293 7.78002 118.231 7.29002C119.183 6.78602 120.254 6.53402 121.444 6.53402C122.634 6.53402 123.698 6.78602 124.636 7.29002C125.574 7.78002 126.309 8.46602 126.841 9.34802C127.373 10.23 127.639 11.231 127.639 12.351C127.639 13.471 127.373 14.472 126.841 15.354C126.309 16.236 125.574 16.929 124.636 17.433C123.698 17.923 122.634 18.168 121.444 18.168ZM121.444 15.48C122.284 15.48 122.97 15.2 123.502 14.64C124.048 14.066 124.321 13.303 124.321 12.351C124.321 11.399 124.048 10.643 123.502 10.083C122.97 9.50902 122.284 9.22202 121.444 9.22202C120.604 9.22202 119.911 9.50902 119.365 10.083C118.819 10.643 118.546 11.399 118.546 12.351C118.546 13.303 118.819 14.066 119.365 14.64C119.911 15.2 120.604 15.48 121.444 15.48Z" fill="#EE2A2A"/>
<rect x="42" y="10" width="12" height="3" rx="1" fill="#EE2A2A"/>
</svg>
