<?xml version="1.0" encoding="UTF-8"?>
<svg width="90px" height="100px" viewBox="0 0 90 100" version="1.1" xmlns="http://www.w3.org/2000/svg" xmlns:xlink="http://www.w3.org/1999/xlink">
    <!-- Generator: Sketch 51.3 (57544) - http://www.bohemiancoding.com/sketch -->
    <title>legal</title>
    <desc>Created with Sketch.</desc>
    <defs></defs>
    <g id="Page-1" stroke="none" stroke-width="1" fill="none" fill-rule="evenodd">
        <g id="legal" transform="translate(0.000000, 0.000000)" fill="#000000" fill-rule="nonzero">
            <path d="M28.6847656,9.25625 L11.8580078,9.25625 C11.0488281,9.25625 10.3931641,9.91210938 10.3931641,10.7210937 C10.3931641,11.5300781 11.0488281,12.1859375 11.8580078,12.1859375 L28.6847656,12.1859375 C29.4939453,12.1859375 30.1496094,11.5300781 30.1496094,10.7210937 C30.1496094,9.91210938 29.49375,9.25625 28.6847656,9.25625 Z" id="Shape"></path>
            <path d="M28.6847656,16.015625 L11.8580078,16.015625 C11.0488281,16.015625 10.3931641,16.6714844 10.3931641,17.4804688 C10.3931641,18.2894531 11.0488281,18.9453125 11.8580078,18.9453125 L28.6847656,18.9453125 C29.4939453,18.9453125 30.1496094,18.2894531 30.1496094,17.4804688 C30.1496094,16.6714844 29.49375,16.015625 28.6847656,16.015625 Z" id="Shape"></path>
            <path d="M87.7167969,88.3775391 L56.6730469,59.6113281 C58.0888672,58.0423828 59.4251953,56.4576172 60.6689453,54.8658203 C63.06875,56.5470703 66.4035156,56.3255859 68.5537109,54.1902344 C70.9728516,51.7876953 70.9863281,47.8851562 68.5833984,45.465625 L55.6560547,32.4494141 C53.2589844,30.0359375 49.3449219,30.0226562 46.93125,32.4197266 C45.0384766,34.2996094 44.6224609,37.1123047 45.6871094,39.4027344 C39.7662109,43.9326172 33.7285156,49.8753906 28.9767578,55.9984375 C26.7378906,54.934375 23.9117188,55.2824219 21.9833984,57.1976562 C19.5644531,59.6001953 19.5503906,63.5027344 21.9537109,65.9222656 L34.8810547,78.9382812 C37.28125,81.3550781 41.1861328,81.3710937 43.6056641,78.9679687 C45.7546875,76.8333984 45.9992188,73.4974609 44.3351563,71.0878906 C45.9390625,69.8521484 47.5369141,68.5234375 49.1191406,67.1146484 L77.671875,98.3537109 C79.6121094,100.476172 82.9277344,100.558203 84.9697266,98.5298828 L87.8429688,95.6761719 C89.8818359,93.6515625 89.8322266,90.3376953 87.7167969,88.3775391 Z M48.9958984,34.4984375 C50.2664062,33.2367187 52.3214844,33.2496094 53.5775391,34.5140625 L66.5048828,47.5302734 C67.7664063,48.8005859 67.7599609,50.8498047 66.4892578,52.1115234 C65.2216797,53.3705078 63.1664063,53.3632812 61.9076172,52.0958984 L48.9802734,39.0798828 C47.7214844,37.8125 47.7285156,35.7572266 48.9958984,34.4984375 Z M47.4761719,41.7228516 L58.525,52.8474609 C54.0158203,58.6599609 48.1861328,64.4527344 42.3316406,68.9304688 L31.2828125,57.8060547 C35.6763672,52.1419922 41.4818359,46.3078125 47.4761719,41.7228516 Z M41.5412109,76.8896484 C40.2720703,78.1501953 38.2216797,78.1445313 36.9597656,76.8740234 L24.0324219,63.8580078 C22.7707031,62.5876953 22.7775391,60.5382813 24.0480469,59.2765625 C25.3171875,58.0160156 27.3675781,58.0216797 28.6294922,59.2921875 L41.5570312,72.3082031 C42.8158203,73.5753906 42.8087891,75.6306641 41.5412109,76.8896484 Z M85.7785156,93.5976563 L82.9052734,96.4513672 C82.0220703,97.3287109 80.6296875,97.2472656 79.834375,96.3771484 L51.2757813,65.1316406 C51.8507813,64.5873047 52.4240234,64.0363281 52.9929687,63.4712891 C53.5654297,62.9027344 54.1238281,62.3296875 54.6755859,61.7546875 L85.7253906,90.5263672 C86.6103516,91.3464844 86.6412109,92.7408203 85.7785156,93.5976563 Z" id="Shape"></path>
            <path d="M70.2628906,97.0019531 C69.9902344,97.046875 69.7101563,97.0699219 69.4304688,97.0699219 L8.10234375,97.0699219 C5.31328125,97.0699219 3.04433594,94.8007812 3.04433594,92.0117188 L3.04433594,7.98769531 C3.04433594,5.19882812 5.31328125,2.9296875 8.10234375,2.9296875 L55.8390625,2.9296875 C56.0363281,2.9296875 56.2304688,2.94941406 56.4210938,2.98144531 L56.4210938,13.009375 C56.4210938,17.4138672 60.0044922,20.9970703 64.4087891,20.9970703 L74.4367188,20.9970703 C74.46875,21.1878906 74.4884766,21.3818359 74.4884766,21.5791016 L74.4884766,72.6962891 C74.4884766,73.5052734 75.1441406,74.1611328 75.9533203,74.1611328 C76.7625,74.1611328 77.4181641,73.5052734 77.4181641,72.6962891 L77.4181641,21.5791016 C77.4181641,19.8677734 76.7517578,18.2589844 75.5419922,17.0490234 L60.3691406,1.8765625 C59.159375,0.66640625 57.5505859,0 55.8390625,0 L8.10234375,0 C3.69804687,0 0.114648437,3.58339844 0.114648437,7.98769531 L0.114648437,92.0115234 C0.114648437,96.4160156 3.69804687,99.9994141 8.10234375,99.9994141 L69.4304688,99.9994141 C69.8695313,99.9994141 70.3103516,99.9632813 70.740625,99.8921875 C71.5386719,99.7603516 72.0789063,99.00625 71.946875,98.2080078 C71.8150391,97.4099609 71.0605469,96.8685547 70.2628906,97.0019531 Z M72.4169922,18.0673828 L64.4087891,18.0673828 C61.6197266,18.0673828 59.3507812,15.7982422 59.3507812,13.009375 L59.3507812,5.00136719 L72.4169922,18.0673828 Z" id="Shape"></path>
        </g>
    </g>
</svg>