<?xml version="1.0" encoding="UTF-8"?>
<svg width="104px" height="100px" viewBox="0 0 104 100" version="1.1" xmlns="http://www.w3.org/2000/svg" xmlns:xlink="http://www.w3.org/1999/xlink">
    <!-- Generator: Sketch 51.3 (57544) - http://www.bohemiancoding.com/sketch -->
    <title>medical</title>
    <desc>Created with Sketch.</desc>
    <defs></defs>
    <g id="Page-1" stroke="none" stroke-width="1" fill="none" fill-rule="evenodd">
        <g id="medical" transform="translate(2.000000, 0.000000)" fill-rule="nonzero">
            <path d="M65.9453125,0 L31.0365234,0 C27.7027344,0 25.0003906,2.70253906 25.0003906,6.03613281 L25.0003906,16.2281404 L71.9814453,16.2281404 L71.9814453,6.03613281 C71.9814453,2.70253906 69.2789063,0 65.9453125,0 Z M65.9453125,16.2565702 L31.0365234,16.2565702 L31.0365234,6.03613281 L65.9453125,6.03613281 L65.9453125,16.2565702 Z" id="Shape" fill="#000000"></path>
            <g id="Group" transform="translate(14.648438, 92.382812)" fill="#000000">
                <path d="M14.2242188,7.6171875 L2.15292969,7.6171875 C1.04160156,7.6171875 0.140820313,6.71640625 0.140820313,5.60507812 L0.140820313,0.0654296875 L16.2361328,0.0654296875 L16.2361328,5.60507812 C16.2363281,6.71640625 15.3353516,7.6171875 14.2242188,7.6171875 Z" id="Shape"></path>
                <path d="M68.5501953,7.6171875 L56.4789063,7.6171875 C55.3675781,7.6171875 54.4667969,6.71640625 54.4667969,5.60507812 L54.4667969,0.0654296875 L70.5621094,0.0654296875 L70.5621094,5.60507812 C70.5623047,6.71640625 69.6613281,7.6171875 68.5501953,7.6171875 Z" id="Shape"></path>
            </g>
            <path d="M93.9638672,92.4482422 L6.03613281,92.4482422 C2.70253906,92.4482422 2.84217094e-14,89.7457031 2.84217094e-14,86.4121094 L2.84217094e-14,20.8898437 C2.84217094e-14,17.5560547 2.70253906,14.8537109 6.03613281,14.8537109 L93.9636719,14.8537109 C97.2974609,14.8537109 99.9998047,17.55625 99.9998047,20.8898437 L99.9998047,86.4121094 C100,89.7457031 97.2974609,92.4482422 93.9638672,92.4482422 Z" id="Shape" stroke="#000000" stroke-width="3"></path>
            <circle id="Oval" stroke="#000000" stroke-width="3" cx="50" cy="53.6509766" r="26.2925781"></circle>
            <path d="M66.0857422,47.5646484 L57.8763672,47.5646484 C56.8876953,47.5646484 56.0863281,46.7632812 56.0863281,45.7746094 L56.0863281,37.5652344 C56.0863281,36.5765625 55.2849609,35.7751953 54.2962891,35.7751953 L45.7039063,35.7751953 C44.7152344,35.7751953 43.9138672,36.5765625 43.9138672,37.5652344 L43.9138672,45.7746094 C43.9138672,46.7632812 43.1125,47.5646484 42.1238281,47.5646484 L33.9144531,47.5646484 C32.9257812,47.5646484 32.1244141,48.3660156 32.1244141,49.3546875 L32.1244141,57.9470703 C32.1244141,58.9357422 32.9257813,59.7371094 33.9144531,59.7371094 L42.1238281,59.7371094 C43.1125,59.7371094 43.9138672,60.5384766 43.9138672,61.5271484 L43.9138672,69.7365234 C43.9138672,70.7251953 44.7152344,71.5265625 45.7039063,71.5265625 L54.2962891,71.5265625 C55.2849609,71.5265625 56.0863281,70.7251953 56.0863281,69.7365234 L56.0863281,61.5273437 C56.0863281,60.5386719 56.8876953,59.7373047 57.8763672,59.7373047 L66.0857422,59.7373047 C67.0744141,59.7373047 67.8757813,58.9359375 67.8757813,57.9472656 L67.8757813,49.3548828 C67.8757813,48.3660156 67.0744141,47.5646484 66.0857422,47.5646484 Z" id="Shape" stroke="#000000" stroke-width="3"></path>
            <path d="M88.8224845,83.4848017 C87.1556876,83.4848017 87.2745805,82.1648957 87.2745805,80.4980988 L87.2745805,27.0484895 C87.2745805,25.3816926 87.1565949,24.0909091 88.8233918,24.0909091 C90.4901886,24.0909091 90.2927446,25.3816926 90.2927446,27.0484895 L90.2927446,80.4980988 C90.2927446,82.1648957 90.4892813,83.4848017 88.8224845,83.4848017 Z" id="Shape" fill="#000000"></path>
            <path d="M12.0043026,83.4848017 C10.3375058,83.4848017 10.4563987,82.1648957 10.4563987,80.4980988 L10.4563987,27.0484895 C10.4563987,25.3816926 10.3384131,24.0909091 12.0052099,24.0909091 C13.6720068,24.0909091 13.4745627,25.3816926 13.4745627,27.0484895 L13.4745627,80.4980988 C13.4745627,82.1648957 13.6710995,83.4848017 12.0043026,83.4848017 Z" id="Shape-Copy" fill="#000000"></path>
        </g>
    </g>
</svg>