<svg width="30" height="30" viewBox="0 0 30 30" fill="none" xmlns="http://www.w3.org/2000/svg">
<circle cx="15" cy="15" r="15" fill="white"/>
<circle cx="15" cy="15" r="12.45" fill="white" stroke="#ACACAC" stroke-width="1.1"/>
<path d="M20.9988 18.6692C20.9821 18.205 20.7887 17.7718 20.4544 17.4494C19.7998 16.8182 19.2513 16.4538 18.7283 16.3027C18.0077 16.0944 17.3402 16.2838 16.7445 16.8655C16.7436 16.8664 16.7427 16.8673 16.7418 16.8682L16.1081 17.4972C15.712 17.2739 14.9419 16.7837 14.1098 15.9516L14.0481 15.89C13.2159 15.0578 12.7257 14.2875 12.5026 13.8919L13.1317 13.2581C13.1326 13.2572 13.1335 13.2563 13.1344 13.2554C13.7161 12.6598 13.9055 11.9923 13.6972 11.2716C13.5461 10.7487 13.1817 10.2002 12.5504 9.54557C12.2281 9.21128 11.7949 9.01792 11.3308 9.00118C10.8663 8.98443 10.4206 9.1461 10.075 9.45636L10.0615 9.46846C10.0553 9.47406 10.0492 9.47985 10.0432 9.48578C9.35512 10.1739 8.99442 11.1372 9.00007 12.2716C9.0097 14.1987 10.0688 16.4024 11.8332 18.1668C12.1659 18.4995 12.544 18.8287 12.957 19.1454C13.1624 19.3029 13.4567 19.2641 13.6142 19.0586C13.7717 18.8532 13.7329 18.5589 13.5274 18.4014C13.1469 18.1096 12.7999 17.8077 12.4961 17.5039C10.9024 15.9102 9.94596 13.9525 9.93754 12.2669C9.93321 11.3933 10.196 10.664 10.6976 10.1572L10.7012 10.154C11.0419 9.84812 11.5578 9.86673 11.8756 10.1963C13.0892 11.4549 13.0013 12.049 12.4651 12.5989L11.5962 13.4744C11.4599 13.6117 11.422 13.8186 11.5006 13.9953C11.5227 14.0448 12.0563 15.224 13.3854 16.5531L13.4471 16.6147C14.7759 17.9436 15.9552 18.4772 16.0047 18.4992C16.1814 18.578 16.3883 18.54 16.5256 18.4037L17.4011 17.5348C17.951 16.9985 18.5452 16.9107 19.8037 18.1243C20.1333 18.4421 20.1519 18.9579 19.8461 19.2986L19.8428 19.3023C19.3401 19.7998 18.6186 20.0624 17.7545 20.0624C17.7474 20.0624 17.7402 20.0624 17.7331 20.0624C17.0424 20.0589 16.2425 19.8696 15.4201 19.5148C15.1824 19.4123 14.9065 19.5219 14.804 19.7596C14.7015 19.9973 14.811 20.2731 15.0488 20.3757C15.9994 20.7857 16.901 20.9957 17.7284 20.9999C17.7372 20.9999 17.7459 20.9999 17.7547 20.9999C18.8777 20.9999 19.8314 20.6395 20.5142 19.9567C20.5202 19.9508 20.5259 19.9447 20.5315 19.9385L20.5437 19.9249C20.8539 19.5793 21.0156 19.1333 20.9988 18.6692Z" fill="url(#paint0_linear)"/>
<defs>
<linearGradient id="paint0_linear" x1="15" y1="9" x2="15" y2="20.9999" gradientUnits="userSpaceOnUse">
<stop stop-color="#FFD600"/>
<stop offset="0.510417" stop-color="#FF0100"/>
<stop offset="1" stop-color="#D800B9"/>
</linearGradient>
</defs>
</svg>
