<?xml version="1.0" encoding="UTF-8"?>
<svg width="95px" height="100px" viewBox="0 0 95 100" version="1.1" xmlns="http://www.w3.org/2000/svg" xmlns:xlink="http://www.w3.org/1999/xlink">
    <!-- Generator: Sketch 51.3 (57544) - http://www.bohemiancoding.com/sketch -->
    <title>posledovat</title>
    <desc>Created with Sketch.</desc>
    <defs></defs>
    <g id="Page-1" stroke="none" stroke-width="1" fill="none" fill-rule="evenodd">
        <g id="posledovat" fill-rule="nonzero">
            <path d="M83.5739137,88.6161805 L83.5739137,90.8248902 C83.5739137,92.3789979 82.3143006,93.6386109 80.760193,93.6386109 L13.2110596,93.6386109 C11.7591857,93.6386109 10.5827332,92.4613953 10.5827332,91.0095215 L10.5827332,88.6154176 L0.09765625,88.6154176 L0.09765625,92.4537658 C0.09765625,96.6217041 3.47595215,100 7.64312734,100 L86.5135193,100 C90.6806945,100 94.0589904,96.6217041 94.0589904,92.4537658 L94.0589904,88.6154176 L83.5739137,88.6154176 L83.5739137,88.6161805 Z" id="Shape" fill="#4F7693"></path>
            <path d="M72.4380492,94.3466187 L22.025299,94.3466187 C19.6029664,94.3466187 17.6391602,92.3828125 17.6391602,89.9597168 L17.6391602,88.9793396 C17.6391602,88.7786865 17.8016662,88.6161805 18.0023193,88.6161805 L76.461792,88.6161805 C76.661682,88.6161805 76.8249512,88.7786865 76.8249512,88.9793396 L76.8249512,89.9597168 C76.8249512,92.3828125 74.860382,94.3466187 72.4380492,94.3466187 Z" id="Shape" fill="#FFAE85"></path>
            <path d="M76.461792,88.6161805 L18.0023193,88.6161805 C17.8016662,88.6161805 17.6391602,88.7786865 17.6391602,88.9793396 L17.6391602,89.9597168 C17.6391602,90.2381896 17.6673889,90.5090332 17.7169801,90.7730102 L68.8545227,90.7730102 C70.5566406,90.7730102 71.8589783,92.3477172 71.4714051,94.0048219 C71.4378357,94.1474914 71.3974,94.2649842 71.3493348,94.3466187 L72.4380492,94.3466187 C74.8611449,94.3466187 76.8249512,92.3820496 76.8249512,89.9597168 L76.8249512,88.9785766 C76.8249512,88.7786865 76.661682,88.6161805 76.461792,88.6161805 Z" id="Shape" fill="#EA9E7D"></path>
            <polygon id="Shape" fill="#FEDFC5" points="10.5827332 71.5408324 3.66210938 71.5408324 4.22286992 67.4263 4.57534785 64.8422242 9.94262695 65.171051 10.1608277 67.3446656"></polygon>
            <path d="M27.6885986,83.3213807 L20.664215,83.3465576 L11.0931396,71.8826293 C8.91342168,70.275116 5.97991953,70.1408387 3.66210938,71.5423584 L2.80380254,72.0611572 C1.85470586,72.6348877 1.24206543,73.6328125 1.16043086,74.7383117 L0.09765625,88.6161805 L10.5827332,88.6161805 L10.5827332,81.2217713 L17.6391602,88.6337281 L31.6589355,88.6337281 L31.6589355,88.3079529 C31.6581727,85.9237672 30.0117492,83.8554383 27.6885986,83.3213807 Z" id="Shape" fill="#FF84A7"></path>
            <path d="M10.1608277,67.3446656 C9.27429199,67.8825379 8.23364258,68.1930543 7.12280273,68.1930543 C6.06613164,68.1930543 5.07736211,67.9153441 4.22286992,67.4263 L4.57534785,64.8422242 L9.94262695,65.171051 L10.1608277,67.3446656 Z" id="Shape" fill="#FECBAA"></path>
            <path d="M13.4643555,54.7317504 L13.4643555,60.3172303 C13.4643555,63.5559082 10.8398438,66.1804199 7.60345469,66.1804199 C5.26046758,66.1804199 3.24020391,64.8078918 2.30178828,62.8211975 C1.94320684,62.0628357 1.74102773,61.2121582 1.74102773,60.3172303 L1.74102773,54.7317504 C1.74102773,52.3925781 3.63769531,50.4981994 5.97457891,50.4981994 L9.23309336,50.4981994 C11.3418578,50.4981994 13.0874633,52.0378113 13.4094238,54.056549 C13.4460449,54.2770387 13.4643555,54.5013428 13.4643555,54.7317504 Z" id="Shape" fill="#FEDFC5"></path>
            <path d="M13.4094238,54.056549 L7.20214844,56.513977 C6.67419434,56.7222596 6.32705684,57.2341918 6.32705684,57.8010559 L6.32705684,59.2750549 C6.32705684,59.728241 6.10656738,60.1501465 5.73806758,60.408783 L2.30178828,62.8211975 C1.94320684,62.0628357 1.74102773,61.2121582 1.74102773,60.3172303 L1.74102773,54.7317504 C1.74102773,52.3925781 3.63769531,50.4981994 5.97457891,50.4981994 L9.23309336,50.4981994 C11.3418578,50.4981994 13.0874633,52.0378113 13.4094238,54.056549 Z" id="Shape" fill="#C97F4C"></path>
            <polygon id="Shape" fill="#FEDFC5" points="90.4945373 71.5408324 83.5731506 71.5408324 83.8974 68.3174133 84.2132568 65.171051 89.5805359 64.8422242 89.9909973 67.842102"></polygon>
            <path d="M94.0589904,88.6161805 L92.9962158,74.7383117 C92.9138184,73.6328125 92.301941,72.6348877 91.3528441,72.0611572 L90.4945373,71.5423584 C88.1767273,70.1408387 85.243225,70.275116 83.063507,71.8826293 L73.4924316,83.3465576 L66.468048,83.3213807 C64.1441346,83.8554383 62.4977111,85.9237672 62.4977111,88.3079529 L62.4977111,88.632965 L76.5174865,88.632965 L83.5739137,81.2210082 L83.5739137,88.6154176 L94.0589904,88.6154176 L94.0589904,88.6161805 Z" id="Shape" fill="#83D9FF"></path>
            <path d="M89.9909973,67.842102 C89.0258789,68.5417176 87.8372191,68.9559937 86.5524293,68.9559937 C85.596466,68.9559937 84.6931457,68.7271117 83.8974,68.3174133 L84.2132568,65.171051 L89.5805359,64.8422242 L89.9909973,67.842102 Z" id="Shape" fill="#FECBAA"></path>
            <path d="M92.4156189,54.7317504 L92.4156189,60.3172303 C92.4156189,61.2121582 92.2134398,62.0628357 91.8548584,62.8211975 C90.916443,64.8078918 88.8954162,66.1804199 86.5524293,66.1804199 C83.31604,66.1804199 80.6915283,63.5551453 80.6915283,60.3172303 L80.6915283,54.7317504 C80.6915283,54.5013428 80.7106018,54.2770387 80.7472229,54.056549 C81.0691834,52.0378113 82.8147889,50.4981994 84.9235535,50.4981994 L88.1843566,50.4981994 C90.5204773,50.4981994 92.4156189,52.393341 92.4156189,54.7317504 Z" id="Shape" fill="#FEDFC5"></path>
            <path d="M92.4156189,54.7317504 L92.4156189,60.3172303 C92.4156189,61.2121582 92.2134398,62.0628357 91.8548584,62.8211975 L88.4185791,60.4095459 C88.0493164,60.1501465 87.828827,59.728241 87.828827,59.2750549 L87.828827,57.8010559 C87.828827,57.2341918 87.4824523,56.7222596 86.9544982,56.513977 L80.74646,54.0573121 C81.0691834,52.0385742 82.8147889,50.4989625 84.9227906,50.4989625 L88.1835937,50.4989625 C90.5204773,50.4981994 92.4156189,52.393341 92.4156189,54.7317504 Z" id="Shape" fill="#C97F4C"></path>
            <path d="M40.8248902,15.3320312 L40.8248902,39.0480041 C40.8248902,39.7354125 40.5761719,40.3633117 40.1641846,40.8508301 C39.6522521,41.4566039 38.8877869,41.8418885 38.0310059,41.8418885 L16.1972047,41.8418885 C15.7096863,41.8418885 15.2671814,42.1272277 15.0733947,42.5720215 C14.3211365,44.3054199 12.5938416,45.5169678 10.5827332,45.5169678 C8.5723877,45.5169678 6.84509277,44.3054199 6.0905457,42.5720215 C5.89675898,42.1272277 5.4542541,41.8418885 4.96902461,41.8418885 L4.53491211,41.8418885 C2.99148555,41.8418885 1.74102773,40.5899047 1.74102773,39.0480041 L1.74102773,15.3320312 C1.74102773,13.7886047 2.99148555,12.5381469 4.53491211,12.5381469 L38.0310059,12.5381469 C39.5751953,12.5381469 40.8248902,13.7886047 40.8248902,15.3320312 Z" id="Shape" fill="#A7C7D3"></path>
            <path d="M92.4766541,15.3320312 L92.4766541,39.0480041 C92.4766541,40.5899047 91.2261963,41.8418885 89.6827697,41.8418885 L89.2486572,41.8418885 C88.7626648,41.8418885 88.32016,42.1272277 88.1271363,42.5720215 C87.3725891,44.3054199 85.6452941,45.5169678 83.6341857,45.5169678 C81.6261291,45.5169678 79.8988342,44.3054199 79.1442871,42.5720215 C78.9505004,42.1272277 78.5079957,41.8418885 78.022766,41.8418885 L56.186676,41.8418885 C55.052948,41.8418885 54.0756227,41.1651611 53.6376953,40.1947021 C53.4805297,39.8460389 53.3927918,39.4561768 53.3927918,39.0480041 L53.3927918,15.3320312 C53.3927918,13.7886047 54.6424865,12.5381469 56.186676,12.5381469 L89.6827697,12.5381469 C91.2261963,12.5381469 92.4766541,13.7886047 92.4766541,15.3320312 Z" id="Shape" fill="#A7C7D3"></path>
            <path d="M67.5964355,0 L25.5950928,0 C23.6595154,0 22.0909119,1.56860352 22.0909119,3.50418086 L22.0909119,32.3028564 C22.0909119,34.2376709 23.6595154,35.8070373 25.5950928,35.8070373 L39.5568848,35.8070373 C40.1657105,35.8070373 40.7211305,36.164093 40.964508,36.7225646 C41.9090271,38.8954162 44.0750121,40.4151916 46.5965271,40.4151916 C49.1172791,40.4151916 51.2832641,38.8961793 52.2285461,36.7225646 C52.4711609,36.164093 53.0265809,35.8070373 53.6354064,35.8070373 L67.5964355,35.8070373 C69.5320129,35.8070373 71.1013793,34.2384338 71.1013793,32.3028564 L71.1013793,3.50418086 C71.1013793,1.56860352 69.5320129,0 67.5964355,0 Z" id="Shape" fill="#E9EDF1"></path>
            <path d="M40.8248902,15.3320312 L40.8248902,39.0480041 C40.8248902,39.7354125 40.5761719,40.3633117 40.1641846,40.8508301 C39.5683289,40.2694703 39.0487672,39.6026611 38.6245727,38.8664246 L25.5958557,38.8664246 C21.975708,38.8664246 19.0315246,35.9222412 19.0315246,32.3028564 L19.0315246,12.5381469 L38.0310059,12.5381469 C39.5751953,12.5381469 40.8248902,13.7886047 40.8248902,15.3320312 Z" id="Shape" fill="#89B4C9"></path>
            <path d="M74.1600037,12.5381469 L74.1600037,32.3028564 C74.1600037,35.9222412 71.2150574,38.8664246 67.5956727,38.8664246 L54.5692443,38.8664246 C54.2961121,39.34021 53.9840699,39.7842406 53.6376953,40.1947021 C53.4805297,39.8460389 53.3927918,39.4561768 53.3927918,39.0480041 L53.3927918,15.3320312 C53.3927918,13.7886047 54.6424865,12.5381469 56.186676,12.5381469 L74.1600037,12.5381469 Z" id="Shape" fill="#89B4C9"></path>
            <path d="M67.5964355,0 L25.5950928,0 C23.6595154,0 22.0909119,1.56860352 22.0909119,3.50418086 L22.0909119,32.3028564 C22.0909119,34.2376709 23.6595154,35.8070373 25.5950928,35.8070373 L39.5568848,35.8070373 C40.1657105,35.8070373 40.7211305,36.164093 40.964508,36.7225646 C41.9090271,38.8954162 44.0750121,40.4151916 46.5965271,40.4151916 C49.1172791,40.4151916 51.2832641,38.8961793 52.2285461,36.7225646 C52.4711609,36.164093 53.0265809,35.8070373 53.6354064,35.8070373 L67.5964355,35.8070373 C69.5320129,35.8070373 71.1013793,34.2384338 71.1013793,32.3028564 L71.1013793,3.50418086 C71.1013793,1.56860352 69.5320129,0 67.5964355,0 Z" id="Shape" fill="#E9EDF1"></path>
            <g id="Group" transform="translate(28.320312, 7.031250)" fill="#A7C7D3">
                <path d="M34.1773986,3.10058594 L1.55410762,3.10058594 C0.708770703,3.10058594 0.0244140625,2.4162293 0.0244140625,1.57089238 C0.0244140625,0.726318359 0.708770703,0.0419617187 1.55410762,0.0419617187 L34.1773986,0.0419617187 C35.0219727,0.0419617187 35.7070922,0.726318359 35.7070922,1.57089238 C35.7070922,2.4162293 35.0219727,3.10058594 34.1773986,3.10058594 Z" id="Shape"></path>
                <path d="M34.1773986,10.8543396 L1.55410762,10.8543396 C0.708770703,10.8543396 0.0244140625,10.1699828 0.0244140625,9.32464609 C0.0244140625,8.48007207 0.708770703,7.79571523 1.55410762,7.79571523 L34.1773986,7.79571523 C35.0219727,7.79571523 35.7070922,8.48007207 35.7070922,9.32464609 C35.7070922,10.1699828 35.0219727,10.8543396 34.1773986,10.8543396 Z" id="Shape"></path>
                <path d="M19.1589355,18.6080934 L1.55410762,18.6080934 C0.708770703,18.6080934 0.0244140625,17.9237365 0.0244140625,17.0791625 C0.0244140625,16.2338258 0.708770703,15.5494689 1.55410762,15.5494689 L19.1589355,15.5494689 C20.0042725,15.5494689 20.6886291,16.2338258 20.6886291,17.0791625 C20.6886291,17.9237365 20.0042725,18.6080934 19.1589355,18.6080934 Z" id="Shape"></path>
            </g>
            <path d="M40.7524109,72.8607178 C41.3398742,72.6623535 41.8632508,72.3464965 42.2981262,71.9429016 C43.1480408,71.1479188 43.6622619,70.0218201 43.6622619,68.8049316 L43.6622619,64.8483277 L50.8010863,64.8483277 L50.8010863,68.8049316 C50.8010863,69.934082 51.2420654,70.9869385 51.9882203,71.7658996 C52.4528504,72.2549437 53.0403137,72.6364137 53.7117004,72.8607178 L40.7524109,72.8607178 Z" id="Shape" fill="#FEDFC5"></path>
            <path d="M50.8018494,64.8483277 L50.8018494,67.388916 L49.1767883,68.3799744 C47.9812621,69.1085816 46.4805604,69.1085816 45.287323,68.3799744 L43.6622619,67.388916 L43.6622619,64.8483277 L50.8018494,64.8483277 Z" id="Shape" fill="#FECBAA"></path>
            <path d="M54.206848,52.3010254 L54.206848,60.9657287 C54.206848,62.2726441 53.5263062,63.4864807 52.4124145,64.1654969 L49.1760254,66.1369324 C47.9812621,66.8647766 46.4805604,66.8647766 45.287323,66.1369324 L42.0509338,64.1654969 C40.9355164,63.4864807 40.2565002,62.2726441 40.2565002,60.9657287 L40.2565002,52.3010254 C40.2565002,49.9168396 42.1859742,47.9858398 44.5632934,47.9858398 L49.897766,47.9858398 C52.2781371,47.9858398 54.206848,49.9168396 54.206848,52.3010254 Z" id="Shape" fill="#FEDFC5"></path>
            <path d="M49.897766,47.9858398 L46.6339111,47.9858398 C49.0135193,47.9858398 50.9429932,49.9168396 50.9429932,52.3010254 L50.9429932,60.9657287 C50.9429932,62.2726441 50.2616883,63.4864807 49.1477967,64.1654969 L45.9121703,66.1369324 C45.8099365,66.1994934 45.7054139,66.2536621 45.5993652,66.305542 C46.7346191,66.8579102 48.0827332,66.8029785 49.1760254,66.1369324 L52.4124145,64.1654969 C53.5255432,63.4864807 54.206848,62.2726441 54.206848,60.9657287 L54.206848,52.3010254 C54.206848,49.9168396 52.2781371,47.9858398 49.897766,47.9858398 Z" id="Shape" fill="#FECBAA"></path>
            <path d="M54.206848,52.3010254 L54.206848,56.3262939 L44.9554443,53.3470154 L40.2565002,55.7998656 L40.2565002,52.3010254 C40.2565002,49.9168396 42.1859742,47.9858398 44.5632934,47.9858398 L49.897766,47.9858398 C52.2781371,47.9858398 54.206848,49.9168396 54.206848,52.3010254 Z" id="Shape" fill="#618AAA"></path>
            <path d="M49.8886109,47.9858398 L46.6247559,47.9858398 C49.0043641,47.9858398 50.933075,49.9168396 50.933075,52.3010254 L50.933075,55.2749633 L54.197693,56.3262939 L54.197693,52.3010254 C54.197693,49.9168396 52.2682189,47.9858398 49.8886109,47.9858398 Z" id="Shape" fill="#4F7693"></path>
            <path d="M32.6751709,88.6169434 L32.6751709,81.3621521 C32.6751709,77.9075623 34.8770141,74.8390197 38.1477355,73.7373352 L40.7524109,72.8607178 C41.3398742,72.6631164 41.8632508,72.3457336 42.2973633,71.9421387 C43.6950684,72.4494934 45.3414918,72.7912902 47.2030641,72.7516174 C49.0356445,72.7119445 50.6378174,72.3098754 51.9874572,71.7658996 C52.4543762,72.2549437 53.0403137,72.6356506 53.7117004,72.8607178 L56.3163758,73.7373352 C59.5848084,74.8390197 61.7881775,77.9075623 61.7881775,81.3621521 L61.7881775,88.6169434 L32.6751709,88.6169434 Z" id="Shape" fill="#69D998"></path>
            <path d="M47.0626832,72.7752686 L43.9994813,83.6029053 C43.9201355,83.882141 43.990326,84.1827393 44.1841125,84.3986512 L46.4637756,86.9400023 C46.7887879,87.3023986 47.3518371,87.3168945 47.69516,86.971283 L50.2311707,84.4131469 C50.452423,84.1903688 50.5317688,83.8638305 50.4386902,83.5647582 L47.0626832,72.7752686 Z" id="Shape" fill="#3DC5A1"></path>
        </g>
    </g>
</svg>