<?xml version="1.0" encoding="UTF-8"?>
<svg width="104px" height="100px" viewBox="0 0 104 100" version="1.1" xmlns="http://www.w3.org/2000/svg" xmlns:xlink="http://www.w3.org/1999/xlink">
    <!-- Generator: Sketch 51.3 (57544) - http://www.bohemiancoding.com/sketch -->
    <title>sinxron copy</title>
    <desc>Created with Sketch.</desc>
    <defs></defs>
    <g id="Page-1" stroke="none" stroke-width="1" fill="none" fill-rule="evenodd">
        <g id="sinxron-copy" transform="translate(0.158075, 0.000000)" fill="#000000" fill-rule="nonzero">
            <g id="Group">
                <path d="M29.78318,73.9675344 C30.2753345,73.9675344 30.6735799,73.5684198 30.6735799,73.0771346 L30.6735799,69.4520594 C30.6735799,68.9607743 30.2753345,68.5616595 29.78318,68.5616595 C29.2910255,68.5616595 28.8927802,68.9607743 28.8927802,69.4520594 L28.8927802,73.0771346 C28.8927802,73.5684198 29.2910255,73.9675344 29.78318,73.9675344 Z" id="Shape"></path>
                <path d="M46.928737,31.914638 C46.928737,32.6876511 46.3026746,33.3137135 45.5296614,33.3137135 C44.7575178,33.3137135 44.1314554,32.6876511 44.1314554,31.914638 C44.1314554,31.1424943 44.7575178,30.5164319 45.5296614,30.5164319 C46.3026746,30.5164319 46.928737,31.1424943 46.928737,31.914638 Z" id="Shape"></path>
                <path d="M11.7674088,70.9280872 C11.7674088,71.2075871 11.5504717,71.4339536 11.2826148,71.4339536 C11.0150591,71.4339536 10.7981221,71.2075871 10.7981221,70.9280872 C10.7981221,70.6489018 11.0150591,70.4225352 11.2826148,70.4225352 C11.5504717,70.4225352 11.7674088,70.6489018 11.7674088,70.9280872 Z" id="Shape-Copy-2"></path>
                <path d="M87.8237468,70.4586037 C87.8237468,70.7381035 87.6068098,70.9644701 87.3389528,70.9644701 C87.0713971,70.9644701 86.8544601,70.7381035 86.8544601,70.4586037 C86.8544601,70.1794182 87.0713971,69.9530516 87.3389528,69.9530516 C87.6068098,69.9530516 87.8237468,70.1794182 87.8237468,70.4586037 Z" id="Shape-Copy-7"></path>
                <path d="M59.1361794,31.914638 C59.1361794,32.6876511 58.510117,33.3137135 57.7371039,33.3137135 C56.9649603,33.3137135 56.3380282,32.6876511 56.3380282,31.914638 C56.3380282,31.1424943 56.9649603,30.5164319 57.7371039,30.5164319 C58.510117,30.5164319 59.1361794,31.1424943 59.1361794,31.914638 Z" id="Shape"></path>
                <path d="M15.9930623,70.9280872 C15.9930623,71.2075871 15.7761252,71.4339536 15.5082683,71.4339536 C15.2407126,71.4339536 15.0234742,71.2075871 15.0234742,70.9280872 C15.0234742,70.6489018 15.2407126,70.4225352 15.5082683,70.4225352 C15.7761252,70.4225352 15.9930623,70.6489018 15.9930623,70.9280872 Z" id="Shape-Copy-3"></path>
                <path d="M92.0494003,70.4586037 C92.0494003,70.7381035 91.8324632,70.9644701 91.5646063,70.9644701 C91.2970506,70.9644701 91.0798122,70.7381035 91.0798122,70.4586037 C91.0798122,70.1794182 91.2970506,69.9530516 91.5646063,69.9530516 C91.8324632,69.9530516 92.0494003,70.1794182 92.0494003,70.4586037 Z" id="Shape-Copy-8"></path>
                <path d="M51.7774166,39.0468325 C53.1460587,39.0468325 54.2590585,37.9338326 54.2590585,36.5651907 L54.2590585,35.6321839 C54.2590585,35.1408989 53.8608132,34.741784 53.3686587,34.741784 C52.8756345,34.741784 52.4782588,35.1408989 52.4782588,35.6321839 L52.4782588,36.5651907 C52.4782588,36.952132 52.1626189,37.2660327 51.7774166,37.2660327 C51.3913448,37.2660327 51.0765744,36.952132 51.0765744,36.5651907 L51.0765744,35.6321839 C51.0765744,35.1408989 50.6783292,34.741784 50.1861745,34.741784 C49.69402,34.741784 49.2957746,35.1408989 49.2957746,35.6321839 L49.2957746,36.5651907 C49.2957746,37.9329631 50.4087745,39.0468325 51.7774166,39.0468325 Z" id="Shape"></path>
                <path d="M13.5359707,73.3875705 C14.0102192,73.3875705 14.395885,72.985141 14.395885,72.4902786 L14.395885,72.1529295 C14.395885,71.9752946 14.257889,71.8309859 14.0873524,71.8309859 C13.9165144,71.8309859 13.7788197,71.9752946 13.7788197,72.1529295 L13.7788197,72.4902786 C13.7788197,72.6301857 13.6694473,72.7436833 13.5359707,72.7436833 C13.4021929,72.7436833 13.2931217,72.6301857 13.2931217,72.4902786 L13.2931217,72.1529295 C13.2931217,71.9752946 13.1551257,71.8309859 12.984589,71.8309859 C12.8140524,71.8309859 12.6760563,71.9752946 12.6760563,72.1529295 L12.6760563,72.4902786 C12.6760563,72.9848266 13.0617222,73.3875705 13.5359707,73.3875705 Z" id="Shape-Copy-4"></path>
                <path d="M89.5923087,72.9180869 C90.0665572,72.9180869 90.4522231,72.5156574 90.4522231,72.020795 L90.4522231,71.6834459 C90.4522231,71.5058111 90.314227,71.3615023 90.1436904,71.3615023 C89.9728525,71.3615023 89.8351577,71.5058111 89.8351577,71.6834459 L89.8351577,72.020795 C89.8351577,72.1607021 89.7257853,72.2741998 89.5923087,72.2741998 C89.4585309,72.2741998 89.3494597,72.1607021 89.3494597,72.020795 L89.3494597,71.6834459 C89.3494597,71.5058111 89.2114637,71.3615023 89.040927,71.3615023 C88.8703905,71.3615023 88.7323944,71.5058111 88.7323944,71.6834459 L88.7323944,72.020795 C88.7323944,72.5153431 89.1180602,72.9180869 89.5923087,72.9180869 Z" id="Shape-Copy-9"></path>
                <path d="M56.6055606,29.4657878 L59.3454533,29.9431603 C59.3976251,29.9527252 59.4489273,29.9570728 59.4993602,29.9570728 C59.9254306,29.9570728 60.3001983,29.6518673 60.3758476,29.2197104 C60.4601921,28.7353816 60.1349875,28.2736605 59.6515282,28.1893161 L56.9116356,27.7119435 C56.4194811,27.631077 55.9655857,27.9536731 55.8821107,28.4362629 C55.7968966,28.9205917 56.1221013,29.3805736 56.6055606,29.4657878 Z" id="Shape"></path>
                <path d="M15.2788578,70.1221971 L16.2282587,70.2948016 C16.2463367,70.29826 16.2641135,70.2998319 16.281589,70.2998319 C16.4292267,70.2998319 16.5590876,70.1894782 16.5853008,70.0332224 C16.6145271,69.8581027 16.5018404,69.6911574 16.3343168,69.6606608 L15.3849159,69.4880563 C15.2143793,69.4588172 15.0570999,69.5754589 15.028175,69.7499498 C14.9986474,69.9250695 15.1113342,70.091386 15.2788578,70.1221971 Z" id="Shape-Copy-5"></path>
                <path d="M91.3351958,69.6527135 L92.2845967,69.825318 C92.3026748,69.8287764 92.3204515,69.8303484 92.337927,69.8303484 C92.4855648,69.8303484 92.6154256,69.7199946 92.6416389,69.5637388 C92.6708651,69.3886192 92.5581784,69.2216738 92.3906548,69.1911772 L91.4412539,69.0185727 C91.2707173,68.9893336 91.113438,69.1059753 91.084513,69.2804662 C91.0549854,69.4555859 91.1676722,69.6219025 91.3351958,69.6527135 Z" id="Shape-Copy-10"></path>
                <path d="M46.1999402,27.7121863 L43.4600476,28.1895589 C42.9757188,28.2739036 42.6513836,28.7356246 42.7365977,29.2199534 C42.812247,29.6521103 43.1878844,29.9573158 43.6122156,29.9573158 C43.663518,29.9573158 43.7139507,29.9520985 43.7661226,29.9434033 L46.5060152,29.4660308 C46.990344,29.3816861 47.314679,28.9208347 47.2303346,28.4365059 C47.1459901,27.9530464 46.6912253,27.6304505 46.1999402,27.7121863 Z" id="Shape"></path>
                <path d="M11.5334323,69.4881441 L10.5840314,69.6607486 C10.4162065,69.6912452 10.303821,69.8581906 10.3333486,70.0333103 C10.3595619,70.1895661 10.4897241,70.2999198 10.6367592,70.2999198 C10.654536,70.2999198 10.6720114,70.2980334 10.6900895,70.2948894 L11.6394904,70.1222849 C11.8073153,70.0917883 11.9197007,69.9251574 11.8904745,69.7500377 C11.8612483,69.5752323 11.7036676,69.4585907 11.5334323,69.4881441 Z" id="Shape-Copy-6"></path>
                <path d="M87.5897703,69.0186605 L86.6403694,69.191265 C86.4725446,69.2217617 86.3601591,69.388707 86.3896866,69.5638267 C86.4158999,69.7200825 86.5460621,69.8304362 86.6930972,69.8304362 C86.710874,69.8304362 86.7283495,69.8285498 86.7464276,69.8254059 L87.6958284,69.6528014 C87.8636533,69.6223047 87.9760387,69.4556738 87.9468125,69.2805541 C87.9175863,69.1057487 87.7600056,68.9891071 87.5897703,69.0186605 Z" id="Shape-Copy-11"></path>
                <path d="M55.2176381,40.8654201 C55.5132786,40.4750005 55.4367599,39.9237178 55.0506881,39.6254686 C54.6646163,39.3272194 54.1055079,39.3993905 53.8037806,39.7828539 C53.7689993,39.8280693 52.9325103,40.8697677 51.4090917,40.8697677 C49.863935,40.8697677 49.0717921,39.8593727 49.0274462,39.8002443 C48.7378921,39.4063468 48.1848703,39.3185242 47.7874947,39.6054693 C47.3883798,39.8924147 47.2988181,40.4489146 47.5857634,40.8480295 C47.6388048,40.9219396 48.914407,42.6505675 51.4082223,42.6505675 C53.8376921,42.6505675 55.1637272,40.9367216 55.2176381,40.8654201 Z" id="Shape"></path>
                <path d="M69.0442493,44.3191318 L69.0442493,41.6409759 C69.0477275,41.6401064 69.0503361,41.6383675 69.0529448,41.6374978 C69.2955438,41.5783697 69.5268392,41.4948947 69.7485697,41.3914204 C69.7546562,41.388812 69.7598735,41.3844642 69.7650906,41.3809863 C69.9842124,41.2766425 70.1902912,41.1522995 70.3833273,41.0088267 C70.3868054,41.0062183 70.389414,41.0036097 70.3928922,41.001001 C70.7859202,40.7070996 71.1163421,40.3410268 71.3702451,39.9193043 C71.3702451,39.9193043 71.3702451,39.9184348 71.3711146,39.9184348 C74.8066321,39.5801873 77.5004395,36.6750836 77.5004395,33.1517437 C77.5004395,31.0153056 76.5083045,29.1084239 74.9631477,27.8606467 C75.1970516,26.5198298 75.324003,25.1598831 75.324003,23.7921105 C75.324003,17.2462802 72.5728067,10.919572 67.7764728,6.43453031 C62.915794,1.89036077 56.576912,-0.366072547 49.9241295,0.0826055124 C37.8993834,0.89300852 28.3971473,10.5900196 27.8223873,22.6399818 C27.7389123,24.3964347 27.8676029,26.1398447 28.1684608,27.8528209 C26.6163476,29.0997285 25.619865,31.010958 25.619865,33.1526132 C25.619865,36.6759533 28.3128029,39.5810567 31.7483204,39.9193043 C32.4074251,41.0166527 33.596074,41.7601016 34.9647161,41.7601016 C36.2733603,41.7601016 37.425489,41.0870846 38.1002452,40.0714723 C39.4436707,42.9252736 41.6548884,45.2912677 44.4069546,46.8068605 C35.5994737,48.3972329 28.8927802,56.1082349 28.8927802,65.3687412 C28.8927802,65.8600265 29.2910255,66.2591411 29.78318,66.2591411 C30.2753345,66.2591411 30.6735799,65.8600265 30.6735799,65.3687412 C30.6735799,61.0732575 32.2778648,57.1542806 34.9029793,54.1474421 C37.64635,55.5726037 39.3993248,58.3864064 39.3993248,61.5141098 L39.3993248,78.2004122 L30.6735799,78.2004122 L30.6735799,76.605692 C30.6735799,76.114407 30.2753345,75.7152921 29.78318,75.7152921 C29.2910255,75.7152921 28.8927802,76.114407 28.8927802,76.605692 L28.8927802,79.090812 C28.8927802,79.5820971 29.2910255,79.9812119 29.78318,79.9812119 L73.336255,79.9812119 C73.8284095,79.9812119 74.2266548,79.5820971 74.2266548,79.090812 L74.2266548,65.3678717 C74.2266548,57.2012354 69.0033813,50.2536816 61.7297535,47.6311758 L65.7304662,47.6311758 C67.5573512,47.6320455 69.0442493,46.1460168 69.0442493,44.3191318 Z M66.170449,28.6362684 C66.170449,28.4997521 66.1843615,28.3667139 66.2104473,28.2371536 C66.3956576,27.3345804 67.1956263,26.652868 68.15298,26.652868 C69.2459806,26.652868 70.1355109,27.5423984 70.1355109,28.6362684 L70.1355109,37.995032 C70.1355109,39.088902 69.2459806,39.9784324 68.15298,39.9784324 C67.0591097,39.9784324 66.1695793,39.088902 66.1695793,37.995032 L66.1695793,28.6362684 L66.170449,28.6362684 Z M75.7196397,33.1526132 C75.7196397,35.4986081 74.0944861,37.4567922 71.9163107,38.0045969 C71.9163107,38.0019882 71.9171802,37.9985101 71.9171802,37.9959014 L71.9171802,28.6362684 C71.9171802,28.5180122 71.8937028,28.4067122 71.8832684,28.2910646 C74.077965,28.8258263 75.7196397,30.7935753 75.7196397,33.1526132 Z M31.2031243,38.0037272 C29.0249489,37.4559227 27.4006648,35.4977386 27.4006648,33.1526132 C27.4006648,30.7935753 29.0414701,28.8266958 31.2370361,28.2910646 C31.2266017,28.4067122 31.2022548,28.5180122 31.2022548,28.6362684 L31.2022548,37.995032 C31.2022548,37.9985101 31.2031243,38.0011187 31.2031243,38.0037272 Z M30.6883619,23.7929802 C30.6883619,24.7120745 30.773576,25.6242126 30.8970494,26.5293947 C30.5214119,26.6154781 30.1553394,26.7293867 29.8049183,26.875468 C29.6101433,25.5076956 29.5336246,24.1207934 29.6005784,22.7260654 C30.1327317,11.5795459 38.9210826,2.60946285 50.0441247,1.85992713 C56.1847536,1.44689979 62.062784,3.53203554 66.559999,7.73708783 C70.9980858,11.8856209 73.5432033,17.7375654 73.5432033,23.7929802 C73.5432033,24.8259832 73.4432073,25.8511602 73.2971261,26.8693812 C72.9562699,26.7276476 72.6006317,26.6172173 72.2354284,26.5328726 C72.4336818,25.0433658 72.483245,23.5321209 72.3554239,22.0121804 C71.5006747,11.8134497 63.1523064,3.62681437 52.9370548,2.96684019 C47.117283,2.59555035 41.5522839,4.57895079 37.2967984,8.56922928 C33.0978327,12.5055967 30.6883619,18.0549442 30.6883619,23.7929802 Z M36.948986,37.9959014 C36.948986,39.0897717 36.0594558,39.9793019 34.9647161,39.9793019 C33.8717153,39.9793019 32.9821851,39.0897717 32.9821851,37.9959014 L32.9821851,28.6371381 C32.9821851,27.5432679 33.8717153,26.6537375 34.9647161,26.6537375 C35.6994698,26.6537375 36.3342274,27.0589391 36.6776923,27.6536984 L36.6776923,33.7621545 C36.6776923,34.7160301 36.7759494,35.6464285 36.948986,36.5507408 L36.948986,37.9959014 Z M34.9255872,24.8772853 C34.0351873,24.8868502 33.2291319,25.2164026 32.5882876,25.7433386 C32.5195945,25.0955377 32.4700313,24.4468676 32.4700313,23.7921105 C32.4700313,18.5444903 34.6742926,13.469037 38.514142,9.86743919 C42.4070328,6.2188866 47.4911813,4.39374071 52.8222767,4.74329233 C62.1653886,5.34674682 69.7990023,12.8334099 70.5807109,22.1591312 C70.682446,23.3643014 70.6624467,24.5625152 70.5363647,25.7468165 C70.37811,25.6155174 70.2102905,25.4972612 70.0329062,25.3929175 C70.024211,25.3885699 70.016385,25.3850915 70.0085593,25.3798744 C69.8363922,25.2816175 69.6607468,25.1929252 69.4737976,25.1224932 C69.439886,25.1094502 69.4033656,25.1024939 69.3694539,25.0903206 C68.9981642,24.9624995 68.6068751,24.879894 68.1938478,24.8746769 C67.6556082,17.0471576 61.7480136,10.696972 54.1117914,9.52658299 C54.1517897,9.17181429 54.2204827,8.75617853 54.3448257,8.36228076 C54.6708997,7.33101696 55.288267,6.43279136 54.9630622,6.27105846 C54.343956,5.96150538 51.6031939,8.86834798 51.6031939,8.86834798 C51.6031939,8.86834798 49.5484921,6.99276918 48.8659102,7.43709964 C48.6311367,7.5910066 48.8450414,8.68835499 49.0467727,9.52136591 C41.3922901,10.6778422 35.4646963,17.0358538 34.9255872,24.8772853 Z M38.7297857,36.4177024 L38.7297857,29.5962308 C39.2419395,29.0266881 39.823656,28.3371497 40.2645081,27.6884796 C41.251426,26.2381017 42.3366008,23.6295083 42.3366008,23.6295083 C42.3366008,23.6295083 42.2322571,25.2607487 41.9470509,26.3154899 C41.6201072,27.5241383 41.1096926,28.177156 41.1922979,28.1919382 C41.26273,28.203242 42.4122501,27.7093484 43.3391701,26.6833016 C44.4599959,25.4433501 45.3860465,23.6295083 45.3860465,23.6295083 C45.3860465,23.6295083 45.4695215,24.7112051 45.3121364,25.40683 C45.1243177,26.2372322 44.6999865,26.708518 44.8225904,26.7380822 C44.9191084,26.7606899 46.3703558,26.5633062 47.6911736,25.9085494 C49.4606693,25.0329315 51.2101661,23.6286389 51.2101661,23.6286389 C51.2101661,23.6286389 51.1553856,24.8459824 50.8832224,25.4250901 C50.4701951,26.3041861 49.7997865,26.680693 49.9684754,26.7380822 C50.104992,26.7832976 51.6136285,26.4398329 52.8744486,25.6702977 C54.1987445,24.8633728 55.2726155,23.6286389 55.2726155,23.6286389 C55.2726155,23.6286389 55.2960927,24.5138214 55.0595802,25.1746651 C54.7535053,26.0259361 53.3944283,27.9667296 53.5318141,27.9980327 C53.6309407,28.0197709 56.0508457,26.9937242 57.5542652,25.9085494 C59.5394046,24.4781707 61.3845497,22.0791343 61.3845497,22.0791343 L64.3896493,25.3442237 L64.3896493,36.4194416 C63.6922852,39.7793098 61.6967112,42.6661532 58.9585578,44.548688 C58.5368352,44.2417436 58.0220728,44.0556638 57.4620948,44.0556638 L55.4100013,44.0556638 C53.9978828,44.0556638 52.8501017,45.2043146 52.8501017,46.6155634 C52.8501017,46.6729526 52.8631447,46.7259939 52.8666228,46.7825134 C52.4353354,46.8294682 52.0023088,46.86338 51.558848,46.86338 C45.2451824,46.86338 39.9601723,42.3731212 38.7297857,36.4177024 Z M56.7021245,49.175463 L57.4629642,49.175463 C58.0090298,49.175463 58.5116189,49.0015568 58.9272547,48.7093944 C58.9298633,48.7102641 58.932472,48.7102641 58.9359501,48.7111335 L57.3794893,56.810816 L54.1935272,53.6926773 L56.7021245,49.175463 Z M54.6317709,46.6155634 C54.6317709,46.1868846 54.9813225,45.8364635 55.4108708,45.8364635 L57.4629642,45.8364635 C57.891643,45.8364635 58.2411947,46.1868846 58.2411947,46.6155634 C58.2411947,47.0451119 57.891643,47.3946633 57.4629642,47.3946633 L55.4108708,47.3946633 C54.9813225,47.3946633 54.6317709,47.0459814 54.6317709,46.6155634 Z M45.9860231,48.3667992 L48.9493852,53.693547 L45.7634231,56.810816 L44.1956585,48.6537444 C44.782592,48.5294016 45.3790903,48.4294055 45.9860231,48.3667992 Z M50.6693176,78.2004122 L41.1801245,78.2004122 L41.1801245,61.5141098 C41.1801245,57.899469 39.2628082,54.6135108 36.2064065,52.814451 C37.9863368,51.1736457 40.1053841,49.9006521 42.4557265,49.129378 L44.3121755,58.7950859 C44.3747818,59.1202907 44.6112942,59.3854976 44.9269341,59.4828851 C45.0156262,59.5107101 45.1060574,59.5237531 45.1956192,59.5237531 C45.4269145,59.5237531 45.6547316,59.4341914 45.8242902,59.2672414 L49.3624123,55.807377 C49.939781,56.6360403 50.4188927,57.2847104 50.6701871,57.6177409 L50.6701871,78.2004122 L50.6693176,78.2004122 Z M50.66497,54.5326445 L50.6988816,54.4987327 C50.8432239,54.3569991 50.9327856,54.1752671 50.9606106,53.9848397 C50.9875661,53.7944124 50.9545238,53.5952898 50.8562669,53.4179055 L50.6406232,53.0300947 L48.0094219,48.2963672 C49.578056,48.6520054 51.2119051,48.7406977 52.8153204,48.5798343 C53.1013961,48.5546179 53.3857329,48.5207062 53.6674609,48.4789687 C53.9578845,48.7511319 54.3135226,48.9502547 54.7074202,49.0641631 L52.287515,53.4187749 C52.0901314,53.7726742 52.1553463,54.2152657 52.4457698,54.4987327 L52.4796813,54.5326445 C52.1405643,55.0221905 51.8301417,55.4586951 51.571891,55.8125943 C51.3145098,55.4586951 51.0032176,55.0221905 50.66497,54.5326445 Z M72.4458551,65.3678717 L72.4458551,78.1995425 L63.7201102,78.1995425 L63.7201102,61.5132403 C63.7201102,58.3881454 65.4704765,55.5752121 68.2112386,54.1500508 C70.8380921,57.1542806 72.4458551,61.0715185 72.4458551,65.3678717 Z M66.9078114,52.8161899 C63.8540181,54.6161195 61.9393105,57.9003385 61.9393105,61.5132403 L61.9393105,78.1995425 L52.4501174,78.1995425 L52.4501174,57.6499135 C52.6927166,57.3273174 53.1848711,56.6638653 53.7822391,55.8065075 L57.3186222,59.2663719 C57.4890503,59.4341914 57.7159979,59.5228836 57.947293,59.5228836 C58.0368548,59.5228836 58.127286,59.5098406 58.2159783,59.4820156 C58.5316179,59.3837587 58.7681304,59.1185515 58.8307366,58.7942164 L60.6863162,49.1389429 C63.027094,49.9093475 65.1339679,51.1840801 66.9078114,52.8161899 Z M60.2011177,45.8512457 C62.2610371,44.3739123 63.9270587,42.3844251 65.0183203,40.0723418 C65.0183203,40.0723418 65.0191898,40.0732115 65.0191898,40.0732115 C65.1217944,40.2288574 65.2452679,40.3688518 65.3704804,40.5079768 C65.402653,40.5436278 65.428739,40.5844955 65.4609116,40.6184073 C65.6122099,40.7723143 65.7782904,40.9097003 65.9530661,41.0357823 C65.9652397,41.0444777 65.9748044,41.056651 65.9878474,41.0644767 C66.3634848,41.3305534 66.7895552,41.5227197 67.2495371,41.6374978 C67.2538847,41.6383675 67.2573628,41.6409759 67.2617104,41.6418454 L67.2617104,44.3191318 C67.2617104,45.1634466 66.5739115,45.8512457 65.7287272,45.8512457 L60.2011177,45.8512457 Z" id="Shape"></path>
                <path d="M23.9894941,82.9106622 C22.5625936,81.4359374 20.7461431,80.3455453 18.7027449,79.806436 C20.5652807,78.5221386 21.9452266,76.5587374 22.4399898,74.2570885 C23.4042997,73.8249316 24.0538395,72.8588824 24.0538395,71.7632732 C24.0538395,71.0641702 23.7851542,70.4207172 23.3399543,69.9320406 L23.3399543,67.8460353 C23.3399543,62.9705745 19.7600947,58.9316025 15.0846259,58.2151088 C15.1072339,58.0090298 15.1481016,57.7655611 15.2202728,57.5360049 C15.4107002,56.9342893 15.7706859,56.409962 15.5819977,56.3151832 C15.2202728,56.1343207 13.621205,57.830776 13.621205,57.830776 C13.621205,57.830776 12.4221217,56.7360362 12.0247459,56.9960261 C11.88736,57.0855878 12.0125725,57.7264322 12.1308288,58.2116305 C7.44492537,58.9185595 3.85289246,62.9627485 3.85289246,67.8460353 L3.85289246,69.7616125 C3.30508774,70.265071 2.96249259,70.9815647 2.96249259,71.7632732 C2.96249259,72.9458355 3.70246341,73.9510135 4.76850868,74.3283899 C5.27022808,76.6039528 6.59365457,78.5125737 8.39445358,79.7742634 C8.29967452,79.8073057 8.20924328,79.8490432 8.13272454,79.9090408 C6.23540774,80.4759751 4.54851736,81.5202819 3.20509183,82.9080536 C3.14683319,82.9532692 3.0998784,83.0071802 3.05292383,83.0671778 C1.16343253,85.0966633 3.55271368e-15,87.8078615 3.55271368e-15,90.7938313 L3.55271368e-15,98.8004739 C3.55271368e-15,99.2917591 0.398245143,99.6908737 0.89039987,99.6908737 L26.3015774,99.6908737 C26.7937322,99.6908737 27.1919773,99.2917591 27.1919773,98.8004739 L27.1919773,90.7938313 C27.1919773,87.8061223 26.0268056,85.0940549 24.1355753,83.0636997 C24.0912292,83.0063105 24.0451441,82.9550081 23.9894941,82.9106622 Z M19.2827222,88.5469628 L19.2827222,97.9118132 L7.91099405,97.9118132 L7.91099405,88.5469628 C7.91099405,86.4740006 6.88581702,84.5862487 5.23457736,83.4289028 C6.05106714,82.7454512 6.98581294,82.2037332 7.99968634,81.8194006 L9.00051672,87.0305006 C9.06225348,87.3557053 9.29963542,87.6209123 9.61440558,87.7182997 C9.70396734,87.7461247 9.7935291,87.7591678 9.88309086,87.7591678 C10.1152555,87.7591678 10.3422033,87.669606 10.5117617,87.5035255 L12.2603888,85.7914188 C12.6221138,86.297486 12.8751474,86.6279076 12.8907989,86.6487763 C13.061227,86.8687679 13.3238255,86.998328 13.6038144,86.998328 C13.882934,86.998328 14.1446628,86.8678984 14.3159604,86.6487763 C14.3316119,86.6279076 14.5846455,86.297486 14.9463704,85.7922882 L16.6949976,87.5035255 C16.8654257,87.6704755 17.0923732,87.7591678 17.3236686,87.7591678 C17.4132302,87.7591678 17.5036614,87.7461247 17.5923537,87.7182997 C17.9079935,87.6200428 18.144506,87.3557053 18.2071123,87.0305006 L19.2070729,81.8254874 C20.2148596,82.2080811 21.145258,82.7480598 21.9582694,83.4289028 C20.3078994,84.585379 19.2827222,86.4740006 19.2827222,88.5469628 Z M13.6742466,84.4775572 C13.6507692,84.511469 13.6264223,84.5445113 13.6046841,84.5766838 C13.5820761,84.5436416 13.5577293,84.5105995 13.5351216,84.4766877 C13.565555,84.4140815 13.5890324,84.3497363 13.6046841,84.2827822 C13.619466,84.3497363 13.6429432,84.4149509 13.6742466,84.4775572 Z M13.6046841,83.8741027 C13.5855543,83.7958448 13.5559903,83.719326 13.5159918,83.6462854 C13.5151223,83.6445465 13.5151223,83.6419378 13.5142528,83.6401989 L13.2794793,83.2176066 L12.2377809,81.343767 C13.1499192,81.4663709 14.0950994,81.4498499 14.9985423,81.295943 L13.6951153,83.6410684 C13.6525081,83.7149784 13.6220745,83.7941058 13.6046841,83.8741027 Z M15.5993884,83.9158402 L16.3610976,82.5454591 L17.0515052,81.3037687 C17.1888912,81.3228983 17.3262773,81.3455062 17.4627936,81.3707225 L16.7558649,85.0479696 L15.5993884,83.9158402 Z M10.142211,81.2811608 L11.6073709,83.9158402 L10.4517641,85.0462307 L9.73961806,81.343767 C9.87352596,81.3202896 10.0083033,81.2985514 10.142211,81.2811608 Z M5.50847972,70.5624508 C5.50674055,70.5633203 5.50674055,70.5641897 5.50587107,70.5650592 C5.50674055,70.5650592 5.50847972,70.5633203 5.50847972,70.5624508 Z M6.41713969,73.4571198 C6.35540293,73.0510487 6.02411162,72.7406262 5.61456241,72.7049755 C5.1180603,72.6606293 4.74416181,72.2571669 4.74416181,71.7632732 C4.74416181,71.298074 5.09545238,70.8946116 5.56152107,70.8276577 C5.99889528,70.764182 6.32323033,70.3885446 6.32323033,69.9459531 L6.32323033,69.6816156 C6.56322092,69.4051048 6.81016776,69.1007688 7.00755138,68.8103455 C7.5823114,67.9634221 8.21619953,66.4417427 8.21619953,66.4417427 C8.21619953,66.4417427 8.15620194,67.3938791 7.98925196,68.0086377 C7.79882459,68.7138275 7.50144506,69.0946822 7.5492691,69.1033774 C7.5910066,69.1103337 8.26141515,68.8216494 8.80226362,68.2225425 C9.45615102,67.4982229 9.9961298,66.440873 9.9961298,66.440873 C9.9961298,66.440873 10.045693,67.0721527 9.95352283,67.4782238 C9.84396179,67.9634221 9.59614548,68.2373244 9.66831662,68.2555845 C9.72396661,68.2686276 10.5708898,68.1538495 11.342164,67.7721252 C12.3742975,67.2608409 13.3951269,66.4417427 13.3951269,66.4417427 C13.3951269,66.4417427 13.3629543,67.1512801 13.2038301,67.4895277 C12.96297,68.0025512 12.5716809,68.2225425 12.6708075,68.2555845 C12.7499349,68.2816706 13.6299004,68.0808088 14.3655236,67.6330003 C15.1376673,67.1617145 15.7645992,66.4417427 15.7645992,66.4417427 C15.7645992,66.4417427 15.7785117,66.9582441 15.6411258,67.3434465 C15.4620025,67.8416877 14.6689902,68.9729477 14.7498565,68.991208 C14.8072454,69.004251 16.219364,68.4051439 17.0967211,67.7721252 C18.2540668,66.9365059 19.3305465,65.5374304 19.3305465,65.5374304 L20.8722251,67.2130167 L20.8722251,69.9789953 C20.8722251,70.3885446 21.150475,70.7459217 21.5495899,70.8441786 C21.9765295,70.9493921 22.2747787,71.3285076 22.2747787,71.7641427 C22.2747787,72.2223856 21.9487045,72.6154137 21.497418,72.6997582 C21.1243892,72.7684512 20.8374438,73.0667004 20.7800547,73.4423379 C20.2505103,76.9682864 17.1628052,79.6273127 13.5985973,79.6273127 C10.0413454,79.6273127 6.95364034,76.9752427 6.41713969,73.4571198 Z M1.78253869,90.7947007 C1.78253869,88.4869653 2.60163712,86.3670485 3.96419245,84.7079829 C5.2971836,85.5122993 6.13106401,86.95746 6.13106401,88.5460934 L6.13106401,97.9109435 L1.78253869,97.9109435 L1.78253869,90.7947007 Z M25.4129165,97.9109435 L21.0635219,97.9109435 L21.0635219,88.5460934 C21.0635219,86.95746 21.8974023,85.5122993 23.2303935,84.7079829 C24.5929488,86.3661788 25.412047,88.4860958 25.412047,90.7947007 L25.412047,97.9109435 L25.4129165,97.9109435 Z" id="Shape"></path>
                <path d="M13.5977278,79.120376 C15.8428571,79.120376 16.6584774,77.0439357 16.6584774,75.6492077 C16.6584774,75.1579227 16.260232,74.7588079 15.7680775,74.7588079 L11.4273781,74.7588079 C11.1908657,74.7588079 10.9639179,74.8527172 10.7969679,75.0196672 C10.6308874,75.1874867 10.5361086,75.4144342 10.5369783,75.6500772 C10.5395867,77.0456748 11.3569459,79.120376 13.5977278,79.120376 Z M14.7107277,76.5387381 C14.5472556,76.9491568 14.2272681,77.3387068 13.5977278,77.3387068 C12.9699262,77.3387068 12.6490693,76.9491568 12.4864669,76.5387381 L14.7107277,76.5387381 Z" id="Shape"></path>
                <path d="M94.6275939,79.806436 C96.4901297,78.5221386 97.869206,76.5587374 98.3639693,74.2570885 C99.3282793,73.8249316 99.9795581,72.8588824 99.9795581,71.7632732 C99.9795581,71.1519928 99.7743487,70.5807109 99.4256668,70.1207288 C99.8734754,69.6816156 100.152595,69.0720743 100.152595,68.3964487 C100.152595,67.6521301 99.8160862,66.9895472 99.2882808,66.5460865 C99.8152167,66.1026255 100.152595,65.4383037 100.152595,64.6948545 C100.152595,63.5496821 99.3552348,62.5923284 98.2857114,62.3419034 C98.4665739,62.048002 98.5761349,61.7062761 98.5761349,61.335856 C98.5761349,60.2706802 97.7126906,59.4063664 96.6466453,59.4063664 C96.4701304,59.4063664 96.3031805,59.4376695 96.1397086,59.4820156 C95.9936274,58.5603126 95.2032237,57.8542534 94.2406526,57.8542534 C93.8015395,57.8542534 93.4024246,58.0072908 93.0780896,58.253368 C92.8720108,57.4090534 92.1163881,56.7803824 91.2077281,56.7803824 C90.4773219,56.7803824 89.8495206,57.1925402 89.5217072,57.7907776 C89.193894,57.1916705 88.5660926,56.7803824 87.8356865,56.7803824 C86.927896,56.7803824 86.1722735,57.4090534 85.965325,58.253368 C85.6409899,58.0072908 85.2418751,57.8542534 84.8027619,57.8542534 C83.8401909,57.8542534 83.0497872,58.5603126 82.903706,59.4820156 C82.7411036,59.4376695 82.5732841,59.4063664 82.3967693,59.4063664 C81.3307242,59.4063664 80.4672796,60.2706802 80.4672796,61.335856 C80.4672796,61.7054066 80.5768407,62.048002 80.7577032,62.3419034 C79.6881798,62.5923284 78.8908198,63.5488126 78.8908198,64.6948545 C78.8908198,65.4383037 79.2264587,66.101756 79.7551336,66.5460865 C79.2281979,66.9895472 78.8908198,67.653869 78.8908198,68.3964487 C78.8908198,69.0233806 79.1368971,69.5911844 79.5299252,70.0207328 C79.1299409,70.4981054 78.8873417,71.1085161 78.8873417,71.7641427 C78.8873417,72.946705 79.6273127,73.951883 80.6942272,74.3292594 C81.1959468,76.6048225 82.5185036,78.5134434 84.3201721,79.7751329 C84.2245238,79.8081752 84.134962,79.8499127 84.0584433,79.9099103 C79.3638447,81.3133334 75.9257188,85.6505548 75.9257188,90.7947007 L75.9257188,98.8013433 C75.9257188,99.2926286 76.3230944,99.6917432 76.8161186,99.6917432 L102.226426,99.6917432 C102.719451,99.6917432 103.116826,99.2926286 103.116826,98.8013433 L103.116826,90.7947007 C103.116826,85.5201251 99.5039245,81.0916031 94.6275939,79.806436 Z M95.2067018,88.5469628 L95.2067018,97.9118132 L83.8367128,97.9118132 L83.8367128,88.5469628 C83.8367128,86.4740006 82.8106661,84.585379 81.1602959,83.4289028 C81.9767857,82.7454512 82.9115317,82.2037332 83.9245354,81.8194006 L84.9253658,87.0305006 C84.987972,87.3557053 85.2244845,87.6209123 85.5401243,87.7182997 C85.6288164,87.7461247 85.7183782,87.7591678 85.8088094,87.7591678 C86.0401048,87.7591678 86.2670524,87.669606 86.4374805,87.5035255 L88.1861074,85.7922882 C88.5469628,86.2983555 88.8008659,86.6287773 88.8165176,86.6487763 C88.9869457,86.8687679 89.249544,86.998328 89.5286634,86.998328 C89.8077831,86.998328 90.0703814,86.8687679 90.2408095,86.6487763 C90.2573306,86.6279076 90.5112337,86.297486 90.8712195,85.7914188 L92.6207163,87.5035255 C92.7902747,87.6704755 93.0172225,87.7591678 93.2485177,87.7591678 C93.3389489,87.7591678 93.4293802,87.7461247 93.5180724,87.7182997 C93.8337121,87.6200428 94.0702245,87.3557053 94.1319613,87.0305006 L95.1319222,81.8237482 C96.1397086,82.2072116 97.070107,82.7480598 97.8839882,83.4289028 C96.2327485,84.585379 95.2067018,86.4740006 95.2067018,88.5469628 Z M89.5990956,84.4766877 C89.5756182,84.5105995 89.5521408,84.5436416 89.5286634,84.5758141 C89.5069252,84.5436416 89.4825783,84.5105995 89.4591009,84.4766877 C89.4904043,84.4140815 89.5147509,84.3488666 89.5295331,84.2819127 C89.5443151,84.3497363 89.566923,84.4149509 89.5990956,84.4766877 Z M89.5286634,83.8741027 C89.5104033,83.7958448 89.4808394,83.719326 89.4408408,83.6462854 C89.4399714,83.6445465 89.4399714,83.6419378 89.4391019,83.6401989 L89.1504176,83.1210886 L88.1617607,81.343767 C89.0765072,81.4663709 90.0182095,81.4489805 90.9233916,81.2950733 L89.6199644,83.6410684 C89.5764877,83.7149784 89.5477932,83.7941058 89.5286634,83.8741027 Z M91.5251069,83.9158402 L91.6172773,83.7488902 L92.977224,81.3028992 C93.1154795,81.3228983 93.2519958,81.3446367 93.3876427,81.3698531 L92.6815834,85.0471001 L91.5251069,83.9158402 Z M86.0679298,81.2811608 L87.53222,83.9158402 L86.3757437,85.0471001 L85.6635976,81.343767 C85.798375,81.3202896 85.9322827,81.2985514 86.0679298,81.2811608 Z M98.5952645,70.6485342 C98.6178724,70.639839 98.6430888,70.6363609 98.664827,70.6276655 C98.6430888,70.6372304 98.6178724,70.6407085 98.5952645,70.6485342 Z M98.2170184,70.7650515 C98.0613725,70.7972241 97.9005093,70.8146147 97.7344288,70.8146147 C97.9005093,70.8137452 98.0613725,70.7963546 98.2170184,70.7650515 Z M97.2144491,67.555612 C97.3561827,67.4999621 97.4970469,67.4408339 97.6205202,67.3547503 C97.4961772,67.4408339 97.3587914,67.5060488 97.2144491,67.555612 Z M80.8029188,70.7589647 C80.7759633,70.7537474 80.7524859,70.7424436 80.7264,70.7354873 C80.7524859,70.7415741 80.7759633,70.7528779 80.8029188,70.7589647 Z M80.3246765,70.6007099 C80.3142422,70.5963623 80.305547,70.5894061 80.2942431,70.5850585 C80.305547,70.5894061 80.3142422,70.5963623 80.3246765,70.6007099 Z M82.3411193,73.4571198 C82.280252,73.0510487 81.9489607,72.7406262 81.5394117,72.7049755 C81.0420397,72.6606293 80.6672719,72.2571669 80.6672719,71.7632732 C80.6672719,71.2902483 81.0124757,70.8963507 81.4855006,70.8276577 C81.9228749,70.764182 82.2480794,70.3885446 82.2480794,69.9459531 L82.2480794,67.6564777 C82.3385106,67.6695207 82.4254637,67.6990846 82.5193731,67.6990846 C83.5854184,67.6990846 84.4488627,66.8347708 84.4488627,65.7695952 C84.4488627,65.7652474 84.4471238,65.7600303 84.4471238,65.754813 C84.7679807,65.9921952 85.1601391,66.1365373 85.5888181,66.1365373 C86.5418242,66.1365373 87.3278803,65.4443905 87.4852654,64.5374695 C87.7730803,65.3852624 88.5739184,65.9974123 89.5199682,65.9974123 C90.4651486,65.9974123 91.2668562,65.3852624 91.5546711,64.5374695 C91.7120561,65.4443905 92.4981123,66.1365373 93.4511184,66.1365373 C93.8797974,66.1365373 94.2719558,65.9921952 94.5928127,65.754813 C94.5928127,65.7591606 94.5910737,65.7643779 94.5910737,65.7695952 C94.5910737,66.8347708 95.4545181,67.6990846 96.5205634,67.6990846 C96.6153422,67.6990846 96.7005561,67.6695207 96.7918571,67.6564777 L96.7918571,69.9781259 C96.7918571,70.3876749 97.0709765,70.7450522 97.4692219,70.8424397 C97.897031,70.9476529 98.1961497,71.3267685 98.1961497,71.7632732 C98.1961497,72.2215159 97.869206,72.6136745 97.4179195,72.6988887 C97.0448907,72.7675817 96.7570758,73.0658307 96.6996867,73.4414682 C96.1701423,76.9674169 93.0824372,79.6264432 89.5182293,79.6264432 C85.9644555,79.6273127 82.8784894,76.9752427 82.3411193,73.4571198 Z M81.4237639,67.3538808 C81.5472374,67.4399645 81.6881013,67.4990926 81.829835,67.5547426 C81.6846232,67.5060488 81.5472374,67.4408339 81.4237639,67.3538808 Z M77.7065185,90.7947007 C77.7065185,88.4860958 78.5264862,86.3661788 79.888172,84.7079829 C81.2220327,85.5122993 82.0559131,86.95746 82.0559131,88.5460934 L82.0559131,97.9109435 L77.7065185,97.9109435 L77.7065185,90.7947007 Z M101.336027,97.9109435 L96.9875015,97.9109435 L96.9875015,88.5460934 C96.9875015,86.95746 97.8213819,85.5114299 99.1552426,84.7079829 C100.516928,86.3661788 101.336027,88.4860958 101.336027,90.7947007 L101.336027,97.9109435 Z" id="Shape"></path>
                <path d="M89.5217072,79.120376 C91.7677061,79.120376 92.5824567,77.0439357 92.5824567,75.6492077 C92.5824567,75.1579227 92.1850811,74.7588079 91.6920569,74.7588079 L87.350488,74.7588079 C87.1139756,74.7588079 86.887028,74.8527172 86.720078,75.0196672 C86.5539975,75.1874867 86.4592187,75.4144342 86.4600881,75.6500772 C86.4635663,77.0456748 87.2809255,79.120376 89.5217072,79.120376 Z M90.6355767,76.5387381 C90.4729743,76.9491568 90.1521174,77.3387068 89.5217072,77.3387068 C88.8939058,77.3387068 88.5730489,76.9491568 88.4104465,76.5387381 L90.6355767,76.5387381 Z" id="Shape"></path>
                <path d="M77.0143715,40.6131902 L76.4317858,44.4643435 C76.3578757,44.951281 76.6926451,45.4051761 77.178713,45.4782169 C77.2247981,45.4851732 77.2691443,45.4877816 77.3126207,45.4877816 C77.7456473,45.4877816 78.1256324,45.172142 78.1917168,44.7304199 L78.4525761,43.0035312 L81.0237796,46.4920901 C81.1976858,46.7294721 81.46811,46.8546845 81.7411429,46.8546845 C81.9246138,46.8546845 82.1098241,46.7981651 82.2698178,46.6807783 C82.6645849,46.3886159 82.7489293,45.8312465 82.4576366,45.4364794 L79.8855634,41.9479203 L81.6133218,42.2087799 C82.1002592,42.284429 82.5532849,41.9479203 82.6263255,41.4618526 C82.7002356,40.9749152 82.3654661,40.5210198 81.8793982,40.4479792 L78.0273754,39.866263 C77.5413075,39.7897442 77.0874123,40.1271223 77.0143715,40.6131902 Z" id="Shape"></path>
                <path d="M82.8211005,53.1318298 C82.7471904,53.6178977 83.0819598,54.0717929 83.5688972,54.1457032 L87.419181,54.7291584 C87.4643967,54.7352452 87.5087428,54.7387233 87.5522192,54.7387233 C87.7409074,54.7387233 87.9269872,54.6795952 88.0808942,54.5656865 C88.2704521,54.4248226 88.3974035,54.214396 88.4330544,53.9813616 L89.0147707,50.1293389 C89.0886808,49.6432709 88.7539114,49.1893755 88.2678434,49.1163352 C87.780906,49.0389467 87.3278803,49.3771943 87.2548397,49.8632622 L86.9939804,51.5901511 L84.4227767,48.1024618 C84.1306142,47.7059556 83.5732448,47.6216111 83.1776081,47.9137736 C82.7819716,48.205936 82.6976269,48.7633054 82.9897894,49.1589421 L85.5609931,52.6466313 L83.8349739,52.3857722 C83.3497754,52.3101229 82.8941411,52.6457618 82.8211005,53.1318298 Z" id="Shape"></path>
                <path d="M21.5069829,42.2096494 L23.2330021,41.94879 L20.6617984,45.4373489 C20.369636,45.8321159 20.4539807,46.3894856 20.8496172,46.681648 C21.0087414,46.7990345 21.1939517,46.8555542 21.3774226,46.8555542 C21.651325,46.8555542 21.92001,46.7303418 22.0956554,46.4929596 L24.6668589,43.0044007 L24.9277182,44.7312896 C24.9938026,45.1730115 25.3737877,45.4886511 25.8068143,45.4886511 C25.8511602,45.4886511 25.8955063,45.4860427 25.9398525,45.4790864 C26.4259204,45.4051761 26.7606899,44.9521504 26.6867798,44.4660825 L26.1050635,40.6140597 C26.0702823,40.3801559 25.9424611,40.170599 25.7529032,40.0306043 C25.5633456,39.8897403 25.3250939,39.8332207 25.0911901,39.8671324 L21.2409063,40.4488489 C20.7539689,40.522759 20.4191994,40.9757847 20.4931095,41.4627221 C20.5661501,41.94879 21.0200455,42.2852986 21.5069829,42.2096494 Z" id="Shape"></path>
                <path d="M15.0368017,54.5656865 C15.1907088,54.6787257 15.3767884,54.7387233 15.5663463,54.7387233 C15.6106922,54.7387233 15.6550383,54.7352452 15.698515,54.7291584 L19.5505378,54.1457032 C20.0366057,54.0717929 20.3713752,53.6187672 20.2974651,53.1326992 C20.2244245,52.6466313 19.7696596,52.3109924 19.2844611,52.3857722 L17.556703,52.647501 L20.1287759,49.1589421 C20.4200689,48.7633054 20.3357244,48.205936 19.9400877,47.9137736 C19.5453207,47.62335 18.9862121,47.706825 18.6957886,48.1033312 L16.1245852,51.5918901 L15.8637258,49.8641317 C15.7906852,49.378064 15.3367901,49.0398164 14.8498526,49.1172046 C14.3637847,49.1911147 14.0290153,49.6441404 14.1029253,50.1302083 L14.6855111,53.9822311 C14.7211618,54.214396 14.847244,54.4248226 15.0368017,54.5656865 Z" id="Shape"></path>
            </g>
        </g>
    </g>
</svg>