<?xml version="1.0" encoding="UTF-8"?>
<svg width="100px" height="100px" viewBox="0 0 100 100" version="1.1" xmlns="http://www.w3.org/2000/svg" xmlns:xlink="http://www.w3.org/1999/xlink">
    <!-- Generator: Sketch 51.3 (57544) - http://www.bohemiancoding.com/sketch -->
    <title>technical</title>
    <desc>Created with Sketch.</desc>
    <defs></defs>
    <g id="Page-1" stroke="none" stroke-width="1" fill="none" fill-rule="evenodd">
        <g id="technical" transform="translate(0.715178, 0.000000)" fill="#000000" fill-rule="nonzero">
            <path d="M93.6507937,90.4761905 C91.0257006,90.4761905 88.8888889,92.6130022 88.8888889,95.2380952 C88.8888889,97.8631883 91.0257006,100 93.6507937,100 C96.2758867,100 98.4126984,97.8631883 98.4126984,95.2380952 C98.4126984,92.6130022 96.2758867,90.4761905 93.6507937,90.4761905 Z M93.6507937,96.8253968 C92.7765377,96.8253968 92.0634921,96.1139012 92.0634921,95.2380952 C92.0634921,94.3622893 92.7765377,93.6507937 93.6507937,93.6507937 C94.5250496,93.6507937 95.2380952,94.3622893 95.2380952,95.2380952 C95.2380952,96.1139012 94.5250496,96.8253968 93.6507937,96.8253968 Z" id="Shape"></path>
            <path d="M9.52380952,4.76190476 C9.52380952,2.13681171 7.38699782,0 4.76190476,0 C2.13681171,0 0,2.13681171 0,4.76190476 C0,7.38699782 2.13681171,9.52380952 4.76190476,9.52380952 C7.38699782,9.52380952 9.52380952,7.38699782 9.52380952,4.76190476 Z M3.17460317,4.76190476 C3.17460317,3.88764881 3.88764881,3.17460317 4.76190476,3.17460317 C5.63616071,3.17460317 6.34920635,3.88764881 6.34920635,4.76190476 C6.34920635,5.63616071 5.63616071,6.34920635 4.76190476,6.34920635 C3.88764881,6.34920635 3.17460317,5.63616071 3.17460317,4.76190476 Z" id="Shape"></path>
            <path d="M85.2717323,62.9030258 L82.1366567,56.6336496 C82.8016492,55.2842881 83.3713107,53.920976 83.8394407,52.5638641 L90.4761905,50.3510974 L90.4761905,32.1885851 L83.8394407,29.9758185 C83.3728609,28.6187065 82.8016492,27.2553944 82.1366567,25.9060329 L85.2748325,19.6304563 L72.4330357,6.78865952 L66.1574591,9.92683532 C64.8080976,9.26184286 63.4447855,8.69063115 62.0876736,8.22405139 L59.8749069,1.58730159 L41.7123946,1.58730159 L39.499628,8.22405139 C38.1425161,8.69063115 36.779204,9.26184286 35.4298425,9.92683532 L29.1542659,6.78865952 L16.312469,19.6304563 L19.4506448,25.9060329 C18.7856524,27.2553944 18.2144407,28.6187065 17.7478609,29.9758185 L11.1111111,32.1885851 L11.1111111,50.3495474 L17.7478609,52.5615389 C18.2113405,53.9093502 18.7748016,55.2602617 19.4335937,56.5987722 L17.3921131,60.3174603 L7.93650794,60.3174603 L7.93650794,92.0634921 L19.047619,92.0634921 L19.047619,87.3015873 L31.0887897,87.3015873 L35.8506944,92.0634921 L44.4444444,92.0634921 L44.4444444,93.6507937 C44.4444444,97.1524679 47.2919766,100 50.7936508,100 C54.295325,100 57.1428571,97.1524679 57.1428571,93.6507937 L57.1428571,92.0634921 L68.2555183,92.0634921 C70.8806113,92.0634921 73.017423,89.9266804 73.017423,87.3015873 C73.017423,86.0777839 72.5399925,84.9717881 71.7796688,84.1269841 C72.5415427,83.2821802 73.017423,82.1761843 73.017423,80.952381 C73.017423,79.7285776 72.5399925,78.6225817 71.7796688,77.7777778 C72.3857577,77.1050347 72.7996341,76.264881 72.9445685,75.328621 L85.2717323,62.9030258 Z M22.6368738,55.8950274 C21.7633929,54.2178198 21.0511222,52.5127107 20.5186631,50.8300782 L20.2745226,50.0589038 L14.2857143,48.061601 L14.2857143,34.4765315 L20.2745226,32.4807788 L20.5171131,31.7080544 C21.047247,30.0269718 21.7602927,28.3218627 22.6345486,26.6446552 L23.0081226,25.9254091 L20.1745413,20.2574714 L29.779731,10.6522817 L35.4476687,13.4858631 L36.1669147,13.1130643 C37.8456722,12.2380333 39.5492312,11.5257627 41.2303137,10.9948536 L42.0030381,10.7522631 L44.0018911,4.76190476 L57.5869605,4.76190476 L59.5827133,10.7507131 L60.3554377,10.9933036 C62.0365202,11.5234375 63.7416294,12.2364831 65.4188369,13.1107391 L66.1380829,13.4843131 L71.8060206,10.6507317 L81.4112103,20.2559214 L78.577629,25.9238591 L78.9504278,26.6431052 C79.8254587,28.3218627 80.5377294,30.0254216 81.0686385,31.7065042 L81.311229,32.4792286 L87.3015873,34.4780815 L87.3015873,48.063151 L81.312779,50.0589038 L81.0686385,50.8300782 C80.5361794,52.5127107 79.8239087,54.2178198 78.9504278,55.8950274 L78.577629,56.6142734 L81.4143105,62.2860863 L72.0346603,71.7378163 C71.9540552,71.6316345 71.8680246,71.5270028 71.7796688,71.4285714 C72.5415427,70.5837675 73.017423,69.4777716 73.017423,68.2539683 C73.017423,65.7776847 71.1108012,63.7617808 68.6934214,63.5362413 C75.4270524,58.139571 79.3650794,50.0410776 79.3650794,41.2698413 C79.3650794,25.5161829 66.5473091,12.6984127 50.7936508,12.6984127 C35.0399925,12.6984127 22.2222222,25.5161829 22.2222222,41.2698413 C22.2222222,49.9348958 26.1617994,58.0860925 32.8489274,63.4920635 L19.2716083,63.4920635 L23.0282738,56.6476004 L22.6368738,55.8950274 Z M69.8428198,80.952381 C69.8428198,81.8281869 69.1297742,82.5396825 68.2555183,82.5396825 L55.5555556,82.5396825 C54.6812996,82.5396825 53.968254,81.8281869 53.968254,80.952381 C53.968254,80.076575 54.6812996,79.3650794 55.5555556,79.3650794 L68.2555183,79.3650794 C69.1297742,79.3650794 69.8428198,80.076575 69.8428198,80.952381 Z M46.9618056,41.2698413 L54.625496,41.2698413 L57.1428571,38.7524802 L57.1428571,31.7460317 C58.8936942,31.7460317 60.3174603,33.1697978 60.3174603,34.9206349 L60.3174603,42.1999008 L54.8983135,47.6190476 L46.6889881,47.6190476 L41.2698413,42.1999008 L41.2698413,34.9206349 C41.2698413,33.1697978 42.6936073,31.7460317 44.4444444,31.7460317 L44.4444444,38.7524802 L46.9618056,41.2698413 Z M47.6190476,50.7936508 L53.968254,50.7936508 L53.968254,57.1428571 L47.6190476,57.1428571 L47.6190476,50.7936508 Z M57.1428571,49.8635913 L63.4920635,43.5143849 L63.4920635,34.9206349 C63.4920635,31.4189607 60.6445313,28.5714286 57.1428571,28.5714286 L53.968254,28.5714286 L53.968254,37.437996 L53.3110119,38.0952381 L48.2762897,38.0952381 L47.6190476,37.437996 L47.6190476,28.5714286 L44.4444444,28.5714286 C40.9427702,28.5714286 38.0952381,31.4189607 38.0952381,34.9206349 L38.0952381,43.5143849 L44.4444444,49.8635913 L44.4444444,57.1428571 L40.6125992,57.1428571 L40.5126179,57.2428385 C35.093471,53.7458147 31.7460317,47.750806 31.7460317,41.2698413 C31.7460317,30.766369 40.2901786,22.2222222 50.7936508,22.2222222 C61.297123,22.2222222 69.8412698,30.766369 69.8412698,41.2698413 C69.8412698,47.703528 66.6271391,53.5954552 61.2475198,57.1428571 L57.1428571,57.1428571 L57.1428571,49.8635913 Z M73.015873,41.2698413 C73.015873,29.0155319 63.0479601,19.047619 50.7936508,19.047619 C38.5393415,19.047619 28.5714286,29.0155319 28.5714286,41.2698413 C28.5714286,48.6018105 32.2188119,55.4284474 38.2014198,59.5540365 L35.9157986,61.8396577 C29.3240018,57.0653522 25.3968254,49.4241381 25.3968254,41.2698413 C25.3968254,27.26702 36.7908296,15.8730159 50.7936508,15.8730159 C64.796472,15.8730159 76.1904762,27.26702 76.1904762,41.2698413 C76.1904762,49.1141183 72.6446242,56.3523065 66.5907119,61.1506387 C66.4093502,60.0252667 65.8350385,59.0409536 65.0096107,58.3255829 C70.0683593,54.1255891 73.015873,47.9414683 73.015873,41.2698413 Z M68.2555183,66.6666667 C69.1297742,66.6666667 69.8428198,67.3781623 69.8428198,68.2539683 C69.8428198,69.1297742 69.1297742,69.8412698 68.2555183,69.8412698 L55.5555556,69.8412698 C54.6812996,69.8412698 53.968254,69.1297742 53.968254,68.2539683 C53.968254,67.3781623 54.6812996,66.6666667 55.5555556,66.6666667 L68.2555183,66.6666667 Z M55.5555556,76.1904762 C54.6812996,76.1904762 53.968254,75.4789806 53.968254,74.6031746 C53.968254,73.7273687 54.6812996,73.015873 55.5555556,73.015873 L68.2555183,73.015873 C69.1297742,73.015873 69.8428198,73.7273687 69.8428198,74.6031746 C69.8428198,75.4789806 69.1297742,76.1904762 68.2555183,76.1904762 L55.5555556,76.1904762 Z M15.8730159,88.8888889 L11.1111111,88.8888889 L11.1111111,63.4920635 L15.8730159,63.4920635 L15.8730159,88.8888889 Z M37.1651786,88.8888889 L32.4032738,84.1269841 L19.047619,84.1269841 L19.047619,66.6666667 L35.577877,66.6666667 L41.9270833,60.3174603 L61.9047619,60.3174603 C62.7790179,60.3174603 63.4920635,61.028956 63.4920635,61.9047619 C63.4920635,62.7805679 62.7790179,63.4920635 61.9047619,63.4920635 L45.374504,63.4920635 L38.5602679,70.3062996 L40.8048115,72.5508433 L44.4444444,68.9112103 L44.4444444,88.8888889 L37.1651786,88.8888889 Z M50.7936508,96.8253968 C49.0428137,96.8253968 47.6190476,95.4016308 47.6190476,93.6507937 L47.6190476,66.6666667 L51.0858444,66.6666667 C50.9075831,67.1650236 50.7936508,67.6951575 50.7936508,68.2539683 C50.7936508,69.4777716 51.2710813,70.5837675 52.031405,71.4285714 C51.2695313,72.2733754 50.7936508,73.3793712 50.7936508,74.6031746 C50.7936508,75.826978 51.2710813,76.9329738 52.031405,77.7777778 C51.2695313,78.6225817 50.7936508,79.7285776 50.7936508,80.952381 C50.7936508,82.1761843 51.2710813,83.2821802 52.031405,84.1269841 C51.2695313,84.9717881 50.7936508,86.0777839 50.7936508,87.3015873 C50.7936508,89.3678694 52.1251861,91.1140563 53.968254,91.7712984 L53.968254,93.6507937 C53.968254,95.4016308 52.5444879,96.8253968 50.7936508,96.8253968 Z M68.2555183,88.8888889 L55.5555556,88.8888889 C54.6812996,88.8888889 53.968254,88.1773933 53.968254,87.3015873 C53.968254,86.4257813 54.6812996,85.7142857 55.5555556,85.7142857 L68.2555183,85.7142857 C69.1297742,85.7142857 69.8428198,86.4257813 69.8428198,87.3015873 C69.8428198,88.1773933 69.1297742,88.8888889 68.2555183,88.8888889 Z" id="Shape"></path>
            <polygon id="Shape" points="3.17460317 14.2857143 6.34920635 14.2857143 6.34920635 17.4603175 3.17460317 17.4603175"></polygon>
            <polygon id="Shape" points="3.17460317 22.2222222 6.34920635 22.2222222 6.34920635 25.3968254 3.17460317 25.3968254"></polygon>
            <polygon id="Shape" points="3.17460317 30.1587302 6.34920635 30.1587302 6.34920635 33.3333333 3.17460317 33.3333333"></polygon>
            <polygon id="Shape" points="92.0634921 66.6666667 95.2380952 66.6666667 95.2380952 69.8412698 92.0634921 69.8412698"></polygon>
            <polygon id="Shape" points="92.0634921 74.6031746 95.2380952 74.6031746 95.2380952 77.7777778 92.0634921 77.7777778"></polygon>
            <polygon id="Shape" points="92.0634921 82.5396825 95.2380952 82.5396825 95.2380952 85.7142857 92.0634921 85.7142857"></polygon>
        </g>
    </g>
</svg>