<svg width="30" height="30" viewBox="0 0 30 30" fill="none" xmlns="http://www.w3.org/2000/svg">
<circle cx="15" cy="15" r="15" fill="white"/>
<circle cx="15" cy="15" r="12.45" fill="white" stroke="#ACACAC" stroke-width="1.1"/>
<path d="M19.6175 15.6832C19.3911 15.3973 19.4559 15.2701 19.6175 15.0146C19.6204 15.0117 21.4889 12.4298 21.6814 11.5542L21.6826 11.5536C21.7782 11.2345 21.6826 11 21.22 11H19.6892C19.2996 11 19.1199 11.2013 19.0236 11.4264C19.0236 11.4264 18.2443 13.292 17.1417 14.5013C16.7859 14.8507 16.6214 14.9627 16.4271 14.9627C16.3315 14.9627 16.1827 14.8507 16.1827 14.5316V11.5536C16.1827 11.1709 16.0736 11 15.751 11H13.3441C13.0997 11 12.9544 11.1785 12.9544 11.3448C12.9544 11.7076 13.5057 11.791 13.5629 12.8119V15.0269C13.5629 15.5122 13.4748 15.6015 13.2793 15.6015C12.759 15.6015 11.496 13.7283 10.7476 11.5845C10.5965 11.1686 10.4489 11.0006 10.0563 11.0006H8.52502C8.08809 11.0006 8 11.2018 8 11.427C8 11.8249 8.52035 13.803 10.4198 16.4164C11.6856 18.2003 13.4684 19.1669 15.0901 19.1669C16.0649 19.1669 16.1839 18.9523 16.1839 18.583C16.1839 16.8785 16.0958 16.7174 16.584 16.7174C16.8104 16.7174 17.2001 16.8295 18.1101 17.6899C19.1502 18.7102 19.3211 19.1669 19.9033 19.1669H21.434C21.8704 19.1669 22.0915 18.9523 21.9643 18.5288C21.6732 17.638 19.7062 15.8057 19.6175 15.6832Z" fill="#4B729F"/>
</svg>
