<svg width="29" height="29" viewBox="0 0 29 29" fill="none" xmlns="http://www.w3.org/2000/svg">
<path d="M18.6057 16.0412C18.5559 15.9605 18.4263 15.9107 18.2315 15.8137C18.0357 15.7186 17.0715 15.2473 16.8929 15.1821C16.815 15.154 16.7461 15.1313 16.6827 15.1313C16.5993 15.1313 16.525 15.1694 16.4516 15.279C16.3211 15.4739 15.945 15.9107 15.8317 16.0412C15.7674 16.1155 15.7012 16.1527 15.6215 16.1527C15.5617 16.1527 15.4919 16.1318 15.4085 16.0892C15.2109 15.9941 14.5802 15.7874 13.8325 15.1268C13.2507 14.6111 12.8574 13.9749 12.7423 13.7801C12.6281 13.5871 12.7305 13.481 12.8293 13.385C12.9172 13.2952 13.0242 13.1566 13.1238 13.0433C13.2217 12.93 13.2543 12.8494 13.3187 12.7198C13.383 12.5902 13.3513 12.476 13.3015 12.379C13.2534 12.2821 12.8619 11.326 12.697 10.9363C12.5756 10.6463 12.4532 10.6091 12.3517 10.6091C12.3173 10.6091 12.2847 10.6137 12.2557 10.6137C12.1433 10.6137 12.0137 10.5964 11.8814 10.5964C11.7509 10.5964 11.5397 10.6454 11.3594 10.8411C11.1808 11.0342 10.6733 11.5045 10.6733 12.4606C10.6733 13.4176 11.3748 14.3402 11.4745 14.4697C11.5714 14.6002 12.8293 16.6257 14.8194 17.4042C15.9731 17.8555 16.4588 17.9579 16.7325 17.9579C16.9319 17.9579 17.0189 17.9035 17.1702 17.8899C17.5282 17.8582 18.3284 17.4187 18.4925 16.9656C18.6556 16.5124 18.6556 16.1218 18.6057 16.0412Z" fill="#F9F3F0"/>
<path d="M14.572 5.38086C9.66738 5.38086 5.67716 9.34389 5.67716 14.2159C5.67716 15.6849 6.04238 17.125 6.73838 18.4055L5.42884 22.2715C5.31919 22.5951 5.40075 22.9521 5.64 23.1968C5.81309 23.3745 6.04781 23.4687 6.28706 23.4687C6.37859 23.4687 6.47103 23.4551 6.56166 23.4261L10.6262 22.1356C11.8451 22.7337 13.2008 23.0491 14.572 23.0491C19.4775 23.0491 23.4687 19.087 23.4687 14.2159C23.4687 9.34389 19.4775 5.38086 14.572 5.38086ZM14.5702 21.2375C13.3703 21.2375 12.1858 20.9357 11.1455 20.3639C11.0113 20.2905 10.8609 20.2524 10.7096 20.2524C10.618 20.2524 10.5256 20.266 10.4341 20.295L7.71803 21.1569L8.58441 18.6012C8.6705 18.3475 8.63969 18.0675 8.50013 17.8382C7.83766 16.7507 7.48784 15.4982 7.48784 14.2168C7.48784 10.3453 10.6652 7.19427 14.5702 7.19427C18.4761 7.19427 21.6543 10.3453 21.6543 14.2168C21.6543 18.0874 18.477 21.2375 14.5702 21.2375Z" fill="#F9F3F0"/>
<path d="M21.0773 0.398926H7.9796C3.87014 0.398926 0.398804 3.87118 0.398804 7.97972V21.0766C0.398804 25.186 3.87014 28.6583 7.9796 28.6583H21.0773C25.1859 28.6583 28.6581 25.186 28.6581 21.0756V7.97972C28.6581 3.87118 25.1868 0.398926 21.0773 0.398926ZM26.835 21.0756C26.835 24.1969 24.1986 26.8342 21.0773 26.8342H7.9796C4.85922 26.8342 2.22199 24.1978 2.22199 21.0756V7.97972C2.22199 4.85934 4.85922 2.22211 7.9796 2.22211H21.0773C24.1977 2.22211 26.835 4.85843 26.835 7.97972V21.0756Z" fill="#F9F3F0"/>
<path d="M21.2205 0H7.77948C3.56232 0 0 3.56326 0 7.77948V21.2196C0 25.4367 3.56232 29 7.77948 29H21.2205C25.4367 29 29 25.4367 29 21.2186V7.77948C29 3.56326 25.4377 0 21.2205 0ZM27.129 21.2186C27.129 24.4217 24.4236 27.1281 21.2205 27.1281H7.77948C4.57732 27.1281 1.87097 24.4227 1.87097 21.2186V7.77948C1.87097 4.57732 4.57732 1.87097 7.77948 1.87097H21.2205C24.4227 1.87097 27.129 4.57639 27.129 7.77948V21.2186Z" fill="#F9F3F0"/>
</svg>
