<svg width="30" height="30" viewBox="0 0 30 30" fill="none" xmlns="http://www.w3.org/2000/svg">
<circle cx="15" cy="15" r="15" fill="white"/>
<circle cx="15" cy="15" r="12.45" fill="white" stroke="#ACACAC" stroke-width="1.1"/>
<g clip-path="url(#clip0)">
<path d="M7.37183 22.6595L8.44897 18.7261C7.78455 17.5748 7.43506 16.2689 7.43555 14.931C7.43726 10.7456 10.8433 7.34045 15.0286 7.34045C17.0596 7.34131 18.9659 8.13184 20.3995 9.56665C21.833 11.0015 22.6222 12.9087 22.6215 14.9371C22.6196 19.1224 19.2131 22.5281 15.0286 22.5281C15.0283 22.5281 15.0287 22.5281 15.0286 22.5281H15.0253C13.7545 22.5276 12.506 22.2089 11.397 21.604L7.37183 22.6595ZM11.5834 20.2299L11.814 20.3665C12.7827 20.9414 13.8934 21.2455 15.0261 21.2461H15.0286C18.5068 21.2461 21.3379 18.4155 21.3394 14.9366C21.34 13.2507 20.6842 11.6654 19.4927 10.4729C18.301 9.2804 16.7167 8.62329 15.0309 8.62256C11.5498 8.62256 8.71887 11.4528 8.71753 14.9315C8.71704 16.1237 9.05054 17.2845 9.68237 18.2892L9.83252 18.528L9.19482 20.8561L11.5834 20.2299Z" fill="white"/>
<path d="M7.63574 22.3945L8.67566 18.597C8.03406 17.4857 7.69678 16.2249 7.69714 14.9335C7.69873 10.8929 10.9869 7.60571 15.0271 7.60571C16.988 7.60657 18.8285 8.36975 20.2122 9.75488C21.5962 11.14 22.3579 12.9812 22.3572 14.9392C22.3555 18.9799 19.0671 22.2675 15.0275 22.2675C15.0271 22.2675 15.0276 22.2675 15.0275 22.2675H15.0242C13.7975 22.267 12.592 21.9591 11.5215 21.3756L7.63574 22.3945Z" fill="#64B161"/>
<path d="M7.37183 22.6595L8.44897 18.7261C7.78455 17.5748 7.43506 16.2689 7.43555 14.931C7.43726 10.7456 10.8433 7.34045 15.0286 7.34045C17.0596 7.34131 18.9659 8.13184 20.3995 9.56665C21.833 11.0015 22.6222 12.9087 22.6215 14.9371C22.6196 19.1224 19.2131 22.5281 15.0286 22.5281C15.0283 22.5281 15.0287 22.5281 15.0286 22.5281H15.0253C13.7545 22.5276 12.506 22.2089 11.397 21.604L7.37183 22.6595ZM11.5834 20.2299L11.814 20.3665C12.7827 20.9414 13.8934 21.2455 15.0261 21.2461H15.0286C18.5068 21.2461 21.3379 18.4155 21.3394 14.9366C21.34 13.2507 20.6842 11.6654 19.4927 10.4729C18.301 9.2804 16.7167 8.62329 15.0309 8.62256C11.5498 8.62256 8.71887 11.4528 8.71753 14.9315C8.71704 16.1237 9.05054 17.2845 9.68237 18.2892L9.83252 18.528L9.19482 20.8561L11.5834 20.2299Z" fill="white"/>
<path fill-rule="evenodd" clip-rule="evenodd" d="M13.131 11.7577C12.9889 11.4418 12.8392 11.4354 12.704 11.4299C12.5934 11.4252 12.4668 11.4254 12.3405 11.4254C12.214 11.4254 12.0084 11.473 11.8346 11.6628C11.6606 11.8527 11.1704 12.3116 11.1704 13.2451C11.1704 14.1787 11.8503 15.0807 11.9452 15.2074C12.04 15.334 13.2577 17.3108 15.186 18.0713C16.7887 18.7034 17.1147 18.5776 17.4626 18.546C17.8105 18.5144 18.5851 18.087 18.7432 17.644C18.9014 17.2011 18.9014 16.8214 18.8539 16.7419C18.8064 16.663 18.6799 16.6155 18.4902 16.5206C18.3005 16.4258 17.3678 15.9667 17.1938 15.9034C17.0199 15.8401 16.8934 15.8086 16.767 15.9985C16.6404 16.1882 16.2771 16.6155 16.1664 16.7419C16.0557 16.8688 15.9449 16.8846 15.7552 16.7897C15.5655 16.6946 14.9545 16.4944 14.2296 15.848C13.6656 15.3452 13.2848 14.7241 13.1741 14.5342C13.0635 14.3445 13.1722 14.2507 13.2574 14.1471C13.4109 13.9605 13.6683 13.6249 13.7316 13.4984C13.7948 13.3717 13.7632 13.261 13.7158 13.166C13.6683 13.0712 13.2996 12.1329 13.131 11.7577V11.7577Z" fill="white"/>
</g>
<defs>
<clipPath id="clip0">
<rect x="7" y="7" width="16" height="16" fill="white"/>
</clipPath>
</defs>
</svg>
